<mxfile host="app.diagrams.net" agent="Mozilla/5.0 (Windows NT 10.0; Win64; x64) AppleWebKit/537.36 (KHTML, like Gecko) Chrome/136.0.0.0 Safari/537.36" version="27.1.4">
  <diagram name="Strona-1" id="UEFNGnyOa2a-ylmZ03B-">
    <mxGraphModel dx="983" dy="512" grid="1" gridSize="10" guides="1" tooltips="1" connect="1" arrows="1" fold="1" page="1" pageScale="1" pageWidth="827" pageHeight="1169" math="0" shadow="0">
      <root>
        <mxCell id="0" />
        <mxCell id="1" parent="0" />
        <mxCell id="oLo6uGPAnkkm8A--ENiQ-1" value="&lt;font style=&quot;font-size: 24px;&quot;&gt;High Level Architecture&lt;/font&gt;" style="text;strokeColor=none;align=center;fillColor=none;html=1;verticalAlign=middle;whiteSpace=wrap;rounded=0;fontSize=30;fontStyle=1" vertex="1" parent="1">
          <mxGeometry x="30" y="10" width="300" height="30" as="geometry" />
        </mxCell>
        <mxCell id="oLo6uGPAnkkm8A--ENiQ-2" value="" style="rounded=0;whiteSpace=wrap;html=1;fillColor=none;strokeColor=#939393;dashed=1;dashPattern=8 8;" vertex="1" parent="1">
          <mxGeometry x="40" y="110" width="140" height="320" as="geometry" />
        </mxCell>
        <mxCell id="oLo6uGPAnkkm8A--ENiQ-3" value="&lt;font style=&quot;font-size: 16px;&quot;&gt;Sources&lt;/font&gt;" style="rounded=0;whiteSpace=wrap;html=1;strokeColor=none;" vertex="1" parent="1">
          <mxGeometry x="55.01" y="90" width="110" height="40" as="geometry" />
        </mxCell>
        <mxCell id="oLo6uGPAnkkm8A--ENiQ-5" value="" style="rounded=0;whiteSpace=wrap;html=1;fillColor=none;strokeColor=#939393;dashed=1;dashPattern=8 8;" vertex="1" parent="1">
          <mxGeometry x="200" y="110" width="430" height="320" as="geometry" />
        </mxCell>
        <mxCell id="oLo6uGPAnkkm8A--ENiQ-7" value="&lt;font style=&quot;font-size: 20px;&quot;&gt;Data Warehouse&lt;/font&gt;" style="rounded=0;whiteSpace=wrap;html=1;strokeColor=none;" vertex="1" parent="1">
          <mxGeometry x="310" y="90" width="250" height="40" as="geometry" />
        </mxCell>
        <mxCell id="oLo6uGPAnkkm8A--ENiQ-8" value="" style="rounded=0;whiteSpace=wrap;html=1;fillColor=none;strokeColor=#939393;dashed=1;dashPattern=8 8;" vertex="1" parent="1">
          <mxGeometry x="647.2" y="110" width="140" height="320" as="geometry" />
        </mxCell>
        <mxCell id="oLo6uGPAnkkm8A--ENiQ-9" value="&lt;font style=&quot;font-size: 16px;&quot;&gt;Consume&lt;/font&gt;" style="rounded=0;whiteSpace=wrap;html=1;strokeColor=none;" vertex="1" parent="1">
          <mxGeometry x="665" y="90" width="110" height="40" as="geometry" />
        </mxCell>
        <mxCell id="oLo6uGPAnkkm8A--ENiQ-10" value="Bronze Layer" style="rounded=0;whiteSpace=wrap;html=1;fillColor=#ffe6cc;strokeColor=#d79b00;" vertex="1" parent="1">
          <mxGeometry x="220" y="140" width="110" height="20" as="geometry" />
        </mxCell>
        <mxCell id="oLo6uGPAnkkm8A--ENiQ-11" value="" style="rounded=0;whiteSpace=wrap;html=1;fillColor=none;strokeColor=#d79b00;" vertex="1" parent="1">
          <mxGeometry x="220" y="170" width="110" height="250" as="geometry" />
        </mxCell>
        <mxCell id="oLo6uGPAnkkm8A--ENiQ-12" value="Silver Layer" style="rounded=0;whiteSpace=wrap;html=1;fillColor=#f5f5f5;strokeColor=#666666;fontColor=#333333;" vertex="1" parent="1">
          <mxGeometry x="360" y="140" width="110" height="20" as="geometry" />
        </mxCell>
        <mxCell id="oLo6uGPAnkkm8A--ENiQ-13" value="" style="rounded=0;whiteSpace=wrap;html=1;fillColor=none;strokeColor=#666666;fontColor=#333333;" vertex="1" parent="1">
          <mxGeometry x="360" y="170" width="110" height="250" as="geometry" />
        </mxCell>
        <mxCell id="oLo6uGPAnkkm8A--ENiQ-14" value="Gold Layer" style="rounded=0;whiteSpace=wrap;html=1;fillColor=#fff2cc;strokeColor=#d6b656;" vertex="1" parent="1">
          <mxGeometry x="500" y="140" width="110" height="20" as="geometry" />
        </mxCell>
        <mxCell id="oLo6uGPAnkkm8A--ENiQ-15" value="" style="rounded=0;whiteSpace=wrap;html=1;fillColor=none;strokeColor=#d6b656;" vertex="1" parent="1">
          <mxGeometry x="500" y="170" width="110" height="250" as="geometry" />
        </mxCell>
        <mxCell id="oLo6uGPAnkkm8A--ENiQ-18" value="&lt;font style=&quot;font-size: 10px;&quot;&gt;CRM&lt;/font&gt;" style="image;aspect=fixed;html=1;points=[];align=center;fontSize=12;image=img/lib/azure2/general/Folder_Blank.svg;" vertex="1" parent="1">
          <mxGeometry x="88.74" y="170" width="36.97" height="30" as="geometry" />
        </mxCell>
        <mxCell id="oLo6uGPAnkkm8A--ENiQ-20" value="&lt;font style=&quot;font-size: 10px;&quot;&gt;ERP&lt;/font&gt;" style="image;aspect=fixed;html=1;points=[];align=center;fontSize=12;image=img/lib/azure2/general/Folder_Blank.svg;" vertex="1" parent="1">
          <mxGeometry x="91.52" y="255" width="36.97" height="30" as="geometry" />
        </mxCell>
        <mxCell id="oLo6uGPAnkkm8A--ENiQ-30" value="" style="endArrow=none;html=1;rounded=0;fillColor=#f5f5f5;strokeColor=#666666;" edge="1" parent="1">
          <mxGeometry width="50" height="50" relative="1" as="geometry">
            <mxPoint x="130" y="342" as="sourcePoint" />
            <mxPoint x="64.8" y="341.68" as="targetPoint" />
            <Array as="points">
              <mxPoint x="160" y="342" />
              <mxPoint x="130" y="342" />
            </Array>
          </mxGeometry>
        </mxCell>
        <mxCell id="oLo6uGPAnkkm8A--ENiQ-31" value="&lt;font style=&quot;font-size: 7px;&quot;&gt;&lt;b style=&quot;&quot;&gt;Object Type:&lt;/b&gt; CSV Files&lt;/font&gt;&lt;div&gt;&lt;font style=&quot;font-size: 7px;&quot;&gt;&lt;b style=&quot;&quot;&gt;Interface:&lt;/b&gt; Files in Folder&lt;/font&gt;&lt;/div&gt;" style="text;html=1;align=center;verticalAlign=middle;whiteSpace=wrap;rounded=0;" vertex="1" parent="1">
          <mxGeometry x="45.01" y="360" width="130" height="30" as="geometry" />
        </mxCell>
        <mxCell id="oLo6uGPAnkkm8A--ENiQ-32" value="" style="image;aspect=fixed;html=1;points=[];align=center;fontSize=12;image=img/lib/azure2/general/File.svg;" vertex="1" parent="1">
          <mxGeometry x="118" y="180" width="20.29" height="25" as="geometry" />
        </mxCell>
        <mxCell id="oLo6uGPAnkkm8A--ENiQ-33" value="" style="image;aspect=fixed;html=1;points=[];align=center;fontSize=12;image=img/lib/azure2/general/File.svg;" vertex="1" parent="1">
          <mxGeometry x="118.00000000000001" y="265" width="20.29" height="25" as="geometry" />
        </mxCell>
        <mxCell id="oLo6uGPAnkkm8A--ENiQ-34" value="" style="html=1;verticalLabelPosition=bottom;align=center;labelBackgroundColor=#ffffff;verticalAlign=top;strokeWidth=1;strokeColor=#d79b00;shadow=0;dashed=0;shape=mxgraph.ios7.icons.data;fillColor=#ffe6cc;" vertex="1" parent="1">
          <mxGeometry x="259" y="185" width="32" height="39.1" as="geometry" />
        </mxCell>
        <mxCell id="oLo6uGPAnkkm8A--ENiQ-35" value="" style="html=1;verticalLabelPosition=bottom;align=center;labelBackgroundColor=#ffffff;verticalAlign=top;strokeWidth=1;strokeColor=#666666;shadow=0;dashed=0;shape=mxgraph.ios7.icons.data;fillColor=#f5f5f5;fontColor=#333333;" vertex="1" parent="1">
          <mxGeometry x="398" y="185" width="32" height="39.1" as="geometry" />
        </mxCell>
        <mxCell id="oLo6uGPAnkkm8A--ENiQ-36" value="" style="html=1;verticalLabelPosition=bottom;align=center;labelBackgroundColor=#ffffff;verticalAlign=top;strokeWidth=1;strokeColor=#d6b656;shadow=0;dashed=0;shape=mxgraph.ios7.icons.data;fillColor=#fff2cc;" vertex="1" parent="1">
          <mxGeometry x="539" y="185" width="32" height="39.1" as="geometry" />
        </mxCell>
        <mxCell id="oLo6uGPAnkkm8A--ENiQ-38" value="" style="shape=singleArrow;whiteSpace=wrap;html=1;fillColor=#dae8fc;strokeColor=#6c8ebf;" vertex="1" parent="1">
          <mxGeometry x="320" y="219.78" width="60" height="19.55" as="geometry" />
        </mxCell>
        <mxCell id="oLo6uGPAnkkm8A--ENiQ-41" value="&lt;font style=&quot;font-size: 10px;&quot;&gt;Raw Data&lt;/font&gt;" style="text;html=1;align=center;verticalAlign=middle;whiteSpace=wrap;rounded=0;" vertex="1" parent="1">
          <mxGeometry x="245" y="242.5" width="60" height="15" as="geometry" />
        </mxCell>
        <mxCell id="oLo6uGPAnkkm8A--ENiQ-42" value="&lt;font style=&quot;font-size: 10px;&quot;&gt;Cleaned, Standardized Data&lt;/font&gt;" style="text;html=1;align=center;verticalAlign=middle;whiteSpace=wrap;rounded=0;" vertex="1" parent="1">
          <mxGeometry x="366" y="234.1" width="95" height="25" as="geometry" />
        </mxCell>
        <mxCell id="oLo6uGPAnkkm8A--ENiQ-43" value="&lt;font style=&quot;font-size: 10px;&quot;&gt;Business-Ready Data&lt;/font&gt;" style="text;html=1;align=center;verticalAlign=middle;whiteSpace=wrap;rounded=0;" vertex="1" parent="1">
          <mxGeometry x="507.5" y="235" width="95" height="25" as="geometry" />
        </mxCell>
        <mxCell id="oLo6uGPAnkkm8A--ENiQ-44" value="" style="endArrow=none;html=1;rounded=0;fillColor=#ffe6cc;strokeColor=#d79b00;" edge="1" parent="1">
          <mxGeometry width="50" height="50" relative="1" as="geometry">
            <mxPoint x="292.6" y="270.32" as="sourcePoint" />
            <mxPoint x="227.4" y="270" as="targetPoint" />
            <Array as="points">
              <mxPoint x="322.6" y="270.32" />
              <mxPoint x="292.6" y="270.32" />
            </Array>
          </mxGeometry>
        </mxCell>
        <mxCell id="oLo6uGPAnkkm8A--ENiQ-45" value="" style="endArrow=none;html=1;rounded=0;fillColor=#f5f5f5;strokeColor=#666666;" edge="1" parent="1">
          <mxGeometry width="50" height="50" relative="1" as="geometry">
            <mxPoint x="432.6" y="270.12" as="sourcePoint" />
            <mxPoint x="367.4" y="269.8" as="targetPoint" />
            <Array as="points">
              <mxPoint x="462.6" y="270.12" />
              <mxPoint x="432.6" y="270.12" />
            </Array>
          </mxGeometry>
        </mxCell>
        <mxCell id="oLo6uGPAnkkm8A--ENiQ-46" value="" style="endArrow=none;html=1;rounded=0;fillColor=#fff2cc;strokeColor=#d6b656;" edge="1" parent="1">
          <mxGeometry width="50" height="50" relative="1" as="geometry">
            <mxPoint x="572.6" y="270.32" as="sourcePoint" />
            <mxPoint x="507.40000000000003" y="270" as="targetPoint" />
            <Array as="points">
              <mxPoint x="602.6" y="270.32" />
              <mxPoint x="572.6" y="270.32" />
            </Array>
          </mxGeometry>
        </mxCell>
        <mxCell id="oLo6uGPAnkkm8A--ENiQ-47" value="" style="shape=singleArrow;whiteSpace=wrap;html=1;fillColor=#dae8fc;strokeColor=#6c8ebf;" vertex="1" parent="1">
          <mxGeometry x="461" y="219.78" width="60" height="19.55" as="geometry" />
        </mxCell>
        <mxCell id="oLo6uGPAnkkm8A--ENiQ-48" value="" style="shape=singleArrow;whiteSpace=wrap;html=1;fillColor=#dae8fc;strokeColor=#6c8ebf;" vertex="1" parent="1">
          <mxGeometry x="602.5" y="219.78" width="60" height="19.55" as="geometry" />
        </mxCell>
        <mxCell id="oLo6uGPAnkkm8A--ENiQ-49" value="" style="shape=singleArrow;whiteSpace=wrap;html=1;fillColor=#dae8fc;strokeColor=#6c8ebf;" vertex="1" parent="1">
          <mxGeometry x="170" y="219.78" width="60" height="19.55" as="geometry" />
        </mxCell>
        <mxCell id="oLo6uGPAnkkm8A--ENiQ-50" value="&lt;div style=&quot;line-height: 70%;&quot;&gt;&lt;div&gt;&lt;font style=&quot;line-height: 90%; font-size: 7px;&quot;&gt;&lt;span style=&quot;font-weight: bold; background-color: transparent; color: light-dark(rgb(0, 0, 0), rgb(255, 255, 255));&quot;&gt;Object Type:&lt;/span&gt;&lt;span style=&quot;background-color: transparent; color: light-dark(rgb(0, 0, 0), rgb(255, 255, 255));&quot;&gt;&lt;b&gt;&amp;nbsp;&lt;/b&gt;Table&lt;br&gt;&lt;br&gt;&lt;/span&gt;&lt;/font&gt;&lt;/div&gt;&lt;div&gt;&lt;font style=&quot;line-height: 90%; font-size: 7px;&quot;&gt;&lt;b&gt;Load:&amp;nbsp;&lt;/b&gt;&lt;/font&gt;&lt;/div&gt;&lt;div&gt;&lt;font style=&quot;line-height: 70%; font-size: 7px;&quot;&gt;&lt;b&gt;&lt;span style=&quot;white-space: pre;&quot;&gt;&#x9;&lt;/span&gt;- &lt;/b&gt;Batch Processing&lt;/font&gt;&lt;/div&gt;&lt;div&gt;&lt;span style=&quot;text-align: center; background-color: transparent; color: light-dark(rgb(0, 0, 0), rgb(255, 255, 255));&quot;&gt;&lt;font style=&quot;line-height: 70%; font-size: 7px;&quot;&gt;&lt;span style=&quot;white-space: pre;&quot;&gt;&#x9;&lt;/span&gt;- Full Load&lt;/font&gt;&lt;/span&gt;&lt;/div&gt;&lt;div&gt;&lt;span style=&quot;text-align: center; background-color: transparent; color: light-dark(rgb(0, 0, 0), rgb(255, 255, 255));&quot;&gt;&lt;font style=&quot;line-height: 70%; font-size: 7px;&quot;&gt;&lt;span style=&quot;white-space: pre;&quot;&gt;&#x9;&lt;/span&gt;- Trunc &amp;amp; Insert&lt;br&gt;&lt;br&gt;&lt;/font&gt;&lt;/span&gt;&lt;/div&gt;&lt;div&gt;&lt;span style=&quot;text-align: center; background-color: transparent; color: light-dark(rgb(0, 0, 0), rgb(255, 255, 255));&quot;&gt;&lt;font style=&quot;line-height: 90%; font-size: 7px;&quot;&gt;No&lt;b&gt; Transformations&lt;br&gt;&lt;br&gt;&lt;/b&gt;&lt;/font&gt;&lt;/span&gt;&lt;/div&gt;&lt;div&gt;&lt;span style=&quot;text-align: center; background-color: transparent; color: light-dark(rgb(0, 0, 0), rgb(255, 255, 255));&quot;&gt;&lt;font style=&quot;line-height: 90%; font-size: 7px;&quot;&gt;&lt;b&gt;Data Model: &lt;/b&gt;None (As-is)&lt;/font&gt;&lt;/span&gt;&lt;/div&gt;&lt;div&gt;&lt;font&gt;&lt;span style=&quot;white-space: pre;&quot;&gt;&lt;font style=&quot;line-height: 90%; font-size: 7px;&quot;&gt;&lt;b style=&quot;&quot;&gt;&#x9;&lt;/b&gt;&lt;/font&gt;&lt;/span&gt;&lt;/font&gt;&lt;/div&gt;&lt;/div&gt;" style="text;html=1;align=left;verticalAlign=middle;whiteSpace=wrap;rounded=0;" vertex="1" parent="1">
          <mxGeometry x="225" y="295.75" width="105" height="55" as="geometry" />
        </mxCell>
        <mxCell id="oLo6uGPAnkkm8A--ENiQ-56" value="&lt;div style=&quot;line-height: 70%;&quot;&gt;&lt;div&gt;&lt;font style=&quot;line-height: 90%; font-size: 7px;&quot;&gt;&lt;span style=&quot;font-weight: bold; background-color: transparent; color: light-dark(rgb(0, 0, 0), rgb(255, 255, 255));&quot;&gt;Object Type:&lt;/span&gt;&lt;span style=&quot;background-color: transparent; color: light-dark(rgb(0, 0, 0), rgb(255, 255, 255));&quot;&gt;&lt;b&gt;&amp;nbsp;&lt;/b&gt;Table&lt;br&gt;&lt;br&gt;&lt;/span&gt;&lt;/font&gt;&lt;/div&gt;&lt;div&gt;&lt;font style=&quot;line-height: 90%; font-size: 7px;&quot;&gt;&lt;b&gt;Load:&amp;nbsp;&lt;/b&gt;&lt;/font&gt;&lt;/div&gt;&lt;div&gt;&lt;font style=&quot;line-height: 70%; font-size: 7px;&quot;&gt;&lt;span style=&quot;white-space: pre;&quot;&gt;&#x9;&lt;/span&gt;- Batch Processing&lt;/font&gt;&lt;/div&gt;&lt;div&gt;&lt;span style=&quot;text-align: center; background-color: transparent; color: light-dark(rgb(0, 0, 0), rgb(255, 255, 255));&quot;&gt;&lt;font style=&quot;line-height: 70%; font-size: 7px;&quot;&gt;&lt;span style=&quot;white-space: pre;&quot;&gt;&#x9;&lt;/span&gt;- Full Load&lt;/font&gt;&lt;/span&gt;&lt;/div&gt;&lt;div&gt;&lt;span style=&quot;text-align: center; background-color: transparent; color: light-dark(rgb(0, 0, 0), rgb(255, 255, 255));&quot;&gt;&lt;font style=&quot;line-height: 70%; font-size: 7px;&quot;&gt;&lt;span style=&quot;white-space: pre;&quot;&gt;&#x9;&lt;/span&gt;- Trunc &amp;amp; Insert&lt;br&gt;&lt;br&gt;&lt;/font&gt;&lt;/span&gt;&lt;/div&gt;&lt;div&gt;&lt;span style=&quot;text-align: center; background-color: transparent; color: light-dark(rgb(0, 0, 0), rgb(255, 255, 255));&quot;&gt;&lt;font style=&quot;line-height: 90%; font-size: 7px;&quot;&gt;&lt;b&gt;Transformations:&lt;/b&gt;&lt;/font&gt;&lt;/span&gt;&lt;/div&gt;&lt;div&gt;&lt;span style=&quot;text-align: center; background-color: transparent; color: light-dark(rgb(0, 0, 0), rgb(255, 255, 255));&quot;&gt;&lt;font style=&quot;line-height: 90%; font-size: 7px;&quot;&gt;&lt;span style=&quot;font-weight: bold; white-space: pre;&quot;&gt;&#x9;&lt;/span&gt;- Data Cleansing&lt;br&gt;&lt;/font&gt;&lt;/span&gt;&lt;/div&gt;&lt;div&gt;&lt;span style=&quot;text-align: center; background-color: transparent; color: light-dark(rgb(0, 0, 0), rgb(255, 255, 255));&quot;&gt;&lt;font style=&quot;line-height: 90%; font-size: 7px;&quot;&gt;&lt;span style=&quot;white-space: pre;&quot;&gt;&#x9;&lt;/span&gt;- Data Standrization&lt;br&gt;&lt;/font&gt;&lt;/span&gt;&lt;/div&gt;&lt;div&gt;&lt;span style=&quot;text-align: center; background-color: transparent; color: light-dark(rgb(0, 0, 0), rgb(255, 255, 255));&quot;&gt;&lt;font style=&quot;line-height: 90%; font-size: 7px;&quot;&gt;&lt;span style=&quot;white-space: pre;&quot;&gt;&#x9;&lt;/span&gt;- Data Normalization&lt;br&gt;&lt;/font&gt;&lt;/span&gt;&lt;/div&gt;&lt;div&gt;&lt;span style=&quot;text-align: center; background-color: transparent; color: light-dark(rgb(0, 0, 0), rgb(255, 255, 255));&quot;&gt;&lt;font style=&quot;line-height: 90%; font-size: 7px;&quot;&gt;&lt;span style=&quot;white-space: pre;&quot;&gt;&#x9;&lt;/span&gt;- Derived Columns&lt;br&gt;&lt;/font&gt;&lt;/span&gt;&lt;/div&gt;&lt;div&gt;&lt;span style=&quot;text-align: center; background-color: transparent; color: light-dark(rgb(0, 0, 0), rgb(255, 255, 255));&quot;&gt;&lt;font style=&quot;line-height: 90%; font-size: 7px;&quot;&gt;&lt;span style=&quot;white-space: pre;&quot;&gt;&#x9;&lt;/span&gt;- Data Enrichment&lt;br&gt;&lt;br&gt;&lt;/font&gt;&lt;/span&gt;&lt;/div&gt;&lt;div&gt;&lt;span style=&quot;text-align: center; background-color: transparent; color: light-dark(rgb(0, 0, 0), rgb(255, 255, 255));&quot;&gt;&lt;font style=&quot;line-height: 90%; font-size: 7px;&quot;&gt;&lt;b&gt;Data Model: &lt;/b&gt;None (As-is)&lt;/font&gt;&lt;/span&gt;&lt;/div&gt;&lt;div&gt;&lt;font&gt;&lt;span style=&quot;white-space: pre;&quot;&gt;&lt;font style=&quot;line-height: 90%; font-size: 7px;&quot;&gt;&lt;b style=&quot;&quot;&gt;&#x9;&lt;/b&gt;&lt;/font&gt;&lt;/span&gt;&lt;/font&gt;&lt;/div&gt;&lt;/div&gt;" style="text;html=1;align=left;verticalAlign=middle;whiteSpace=wrap;rounded=0;" vertex="1" parent="1">
          <mxGeometry x="365" y="320" width="105" height="55" as="geometry" />
        </mxCell>
        <mxCell id="oLo6uGPAnkkm8A--ENiQ-58" value="&lt;div style=&quot;line-height: 70%;&quot;&gt;&lt;div&gt;&lt;font style=&quot;line-height: 90%; font-size: 7px;&quot;&gt;&lt;span style=&quot;font-weight: bold; background-color: transparent; color: light-dark(rgb(0, 0, 0), rgb(255, 255, 255));&quot;&gt;Object Type:&lt;/span&gt;&lt;span style=&quot;background-color: transparent; color: light-dark(rgb(0, 0, 0), rgb(255, 255, 255));&quot;&gt;&lt;b&gt;&amp;nbsp;Views&lt;/b&gt;&lt;br&gt;&lt;br&gt;&lt;/span&gt;&lt;/font&gt;&lt;/div&gt;&lt;div&gt;&lt;font style=&quot;font-size: 7px;&quot;&gt;No &lt;b&gt;Load&lt;/b&gt;&lt;/font&gt;&lt;/div&gt;&lt;div&gt;&lt;span style=&quot;text-align: center; background-color: transparent; color: light-dark(rgb(0, 0, 0), rgb(255, 255, 255));&quot;&gt;&lt;font style=&quot;line-height: 70%; font-size: 7px;&quot;&gt;&lt;br&gt;&lt;/font&gt;&lt;/span&gt;&lt;/div&gt;&lt;div&gt;&lt;span style=&quot;text-align: center; background-color: transparent; color: light-dark(rgb(0, 0, 0), rgb(255, 255, 255));&quot;&gt;&lt;font style=&quot;line-height: 90%; font-size: 7px;&quot;&gt;&lt;b&gt;Transformations:&lt;/b&gt;&lt;/font&gt;&lt;/span&gt;&lt;/div&gt;&lt;div&gt;&lt;span style=&quot;text-align: center; background-color: transparent; color: light-dark(rgb(0, 0, 0), rgb(255, 255, 255));&quot;&gt;&lt;font style=&quot;line-height: 90%; font-size: 7px;&quot;&gt;&lt;span style=&quot;white-space: pre;&quot;&gt;&#x9;&lt;/span&gt;- Data Integrations&lt;br&gt;&lt;/font&gt;&lt;/span&gt;&lt;/div&gt;&lt;div&gt;&lt;span style=&quot;text-align: center; background-color: transparent; color: light-dark(rgb(0, 0, 0), rgb(255, 255, 255));&quot;&gt;&lt;font style=&quot;line-height: 90%; font-size: 7px;&quot;&gt;&lt;span style=&quot;white-space: pre;&quot;&gt;&#x9;&lt;/span&gt;- Aggregations&lt;br&gt;&lt;/font&gt;&lt;/span&gt;&lt;/div&gt;&lt;div&gt;&lt;span style=&quot;text-align: center; background-color: transparent; color: light-dark(rgb(0, 0, 0), rgb(255, 255, 255));&quot;&gt;&lt;font style=&quot;line-height: 90%; font-size: 7px;&quot;&gt;&lt;span style=&quot;white-space: pre;&quot;&gt;&#x9;&lt;/span&gt;- Business Logics&lt;/font&gt;&lt;/span&gt;&lt;/div&gt;&lt;div&gt;&lt;span style=&quot;text-align: center; background-color: transparent; color: light-dark(rgb(0, 0, 0), rgb(255, 255, 255));&quot;&gt;&lt;font style=&quot;line-height: 90%; font-size: 7px;&quot;&gt;&lt;b&gt;&lt;br&gt;&lt;/b&gt;&lt;/font&gt;&lt;/span&gt;&lt;/div&gt;&lt;div&gt;&lt;span style=&quot;text-align: center; background-color: transparent; color: light-dark(rgb(0, 0, 0), rgb(255, 255, 255));&quot;&gt;&lt;font style=&quot;line-height: 90%; font-size: 7px;&quot;&gt;&lt;b&gt;Data Model:&lt;/b&gt;&lt;/font&gt;&lt;/span&gt;&lt;/div&gt;&lt;div&gt;&lt;span style=&quot;text-align: center; background-color: transparent; color: light-dark(rgb(0, 0, 0), rgb(255, 255, 255));&quot;&gt;&lt;font style=&quot;line-height: 90%; font-size: 7px;&quot;&gt;&lt;span style=&quot;white-space: pre;&quot;&gt;&#x9;&lt;/span&gt;- Star Schema&lt;br&gt;&lt;/font&gt;&lt;/span&gt;&lt;/div&gt;&lt;div&gt;&lt;span style=&quot;text-align: center; background-color: transparent; color: light-dark(rgb(0, 0, 0), rgb(255, 255, 255));&quot;&gt;&lt;font style=&quot;line-height: 90%; font-size: 7px;&quot;&gt;&lt;span style=&quot;white-space: pre;&quot;&gt;&#x9;&lt;/span&gt;- Flat Table&lt;br&gt;&lt;/font&gt;&lt;/span&gt;&lt;/div&gt;&lt;div&gt;&lt;span style=&quot;text-align: center; background-color: transparent; color: light-dark(rgb(0, 0, 0), rgb(255, 255, 255));&quot;&gt;&lt;font style=&quot;line-height: 90%; font-size: 7px;&quot;&gt;&lt;span style=&quot;white-space: pre;&quot;&gt;&#x9;&lt;/span&gt;- Aggregated Table&lt;br&gt;&lt;/font&gt;&lt;/span&gt;&lt;/div&gt;&lt;div&gt;&lt;font&gt;&lt;span style=&quot;white-space: pre;&quot;&gt;&lt;font style=&quot;line-height: 90%; font-size: 7px;&quot;&gt;&lt;b style=&quot;&quot;&gt;&#x9;&lt;/b&gt;&lt;/font&gt;&lt;/span&gt;&lt;/font&gt;&lt;/div&gt;&lt;/div&gt;" style="text;html=1;align=left;verticalAlign=middle;whiteSpace=wrap;rounded=0;" vertex="1" parent="1">
          <mxGeometry x="505" y="310" width="105" height="55" as="geometry" />
        </mxCell>
        <mxCell id="oLo6uGPAnkkm8A--ENiQ-59" value="" style="image;aspect=fixed;html=1;points=[];align=center;fontSize=12;image=img/lib/azure2/analytics/Power_BI_Embedded.svg;" vertex="1" parent="1">
          <mxGeometry x="699.2" y="137.85" width="36" height="48" as="geometry" />
        </mxCell>
        <mxCell id="oLo6uGPAnkkm8A--ENiQ-60" value="&lt;font style=&quot;font-size: 10px;&quot;&gt;BI &amp;amp; Reporting&lt;/font&gt;" style="text;html=1;align=center;verticalAlign=middle;whiteSpace=wrap;rounded=0;" vertex="1" parent="1">
          <mxGeometry x="677.2" y="177.45" width="80" height="30" as="geometry" />
        </mxCell>
        <mxCell id="oLo6uGPAnkkm8A--ENiQ-62" value="" style="shadow=0;dashed=0;html=1;strokeColor=#6c8ebf;fillColor=#dae8fc;labelPosition=center;verticalLabelPosition=bottom;verticalAlign=top;align=center;outlineConnect=0;shape=mxgraph.veeam.reporting;" vertex="1" parent="1">
          <mxGeometry x="694.8000000000001" y="220.95" width="44.8" height="44.8" as="geometry" />
        </mxCell>
        <mxCell id="oLo6uGPAnkkm8A--ENiQ-63" value="&lt;font style=&quot;font-size: 10px;&quot;&gt;Ad-Hoc &lt;br&gt;SQL Queries&lt;/font&gt;" style="text;html=1;align=center;verticalAlign=middle;whiteSpace=wrap;rounded=0;" vertex="1" parent="1">
          <mxGeometry x="682.8000000000001" y="265.75000000000006" width="74.4" height="30" as="geometry" />
        </mxCell>
        <mxCell id="oLo6uGPAnkkm8A--ENiQ-74" value="&lt;span style=&quot;font-size: 10px;&quot;&gt;Machine Learning&lt;/span&gt;" style="text;html=1;align=center;verticalAlign=middle;whiteSpace=wrap;rounded=0;" vertex="1" parent="1">
          <mxGeometry x="672.2" y="350.75" width="90" height="30" as="geometry" />
        </mxCell>
        <mxCell id="oLo6uGPAnkkm8A--ENiQ-76" value="" style="shape=image;verticalLabelPosition=bottom;labelBackgroundColor=default;verticalAlign=top;aspect=fixed;imageAspect=0;image=data:image/png,iVBORw0KGgoAAAANSUhEUgAAAgAAAAIACAYAAAD0eNT6AAAACXBIWXMAAA7DAAAOwwHHb6hkAAAAGXRFWHRTb2Z0d2FyZQB3d3cuaW5rc2NhcGUub3Jnm+48GgAAIABJREFUeJzsnXeYVEXWh9+ewAxhBgYQkJyDkkREARXFiDnnxaxrznHVNafPNa4554gJMaEICEgyAKLknNMMYWBi9/fHmVnGcUL3rXNDd9f7POfZVaerzq2+fatu1Tm/E8JiCR77AecC/YHWFf59KrAaWAcsBX4FpgO/ANs89tEiNAT2BgYA3YAOQFugQZmFgK3AZmATMBeYA8wCxgMbvXfZYrFYLEEjB/gYiMRohcA3wCVAS8+9Tj46AjcCE4FSYv++yq0UWcTdD/Tw9AosFovFEhgaAb/hfDIpt2LgA2B/b91PeFKAE4FvMZv0a7JpwHlAukfXZLFYLJYA8C76E8oUYIiXF5GAhIBTgN9xZ9KvypYCl2EXAhaLxZLw7IG7E8rnQCfPriZx6A1MwLuJv7LNBg5w+yItFovF4h+P4v5ksg2JEQh5dE3xTCpwJ3Kc4tfkX25h4CWgvpsXbLFYLBZ/mIR3E8pXSLChpWp2Bcbi/8Rf1W7A7u5dtsVisVj84A+8nUzmAJ09ubL4ojewDP8n++psG3C4a1dvsVgsFs/5Ce8nkw3AQC8uLk4YAmzB/0m+NisCznRpDCwWi8XiBT8sjmRO3hS59IjT/rEJfyaTzdhFAMC+iFiP35N7tBYGznJlJCwWi8XiHpFIJOWnvMiFk/PCqyfnhiPPfzXez8kkD+jp/lUHll7Ex5t/ZSsChrkwHhaLxWJxg2lbIt0m54V/mpwbjlS0QYcc4edkshRo4f7VB47mwBL8n8yd2jZkAWOxWBxgU6IsnjFlU+SMSCjyPKIR/xc2rF3NxcP2Z+XihT54Bkjk+8GIyl0ykAKMBob67YghfwJ7Afl+O2KxxBupfjtgSQ5+yovcBJFngTpV/fd6DbI48OgT+OOXaaxdscxj7wBoj5wtj/Ojcx+4DrjYbycU2AVoBXzqtyMWS7xhFwAW15m8qfT/QnBHbX9XPyubI884m0679WT7tm1sWreW4qIiL1wsZzDwGbDWy059oAvwEZDmtyNK9EW0JBb57YjFEk/YIwCLq0zZFLk1Eorc5/TzkUiEgu35ZGTWZdP6taxaupg/fpnG5O+/Zfr47ykpLtZ0F6R+wEDkjDlR+RLlALq6GakM27clQwe0YM/dGtOxdQMaNkgnNTWFzVuLWLIqn1nz8xgzdQ1fjF9J7hb1hd08RMegULthiyVRsQsAi2tMyY0cFyHyMS7dZ3kb1jPilWd5/7kn2ZK7SbPpM5DiRInIMGQBoELjhnW45fyeXHhiZxo2iK52T2FRKR+NXs6Dr8zm9wV5Wq6AHGs8qtmgxZLI2AWAxZQMRERmLyALEdiZ9t3SvOUNsrOn44Hs7uZNG3n2nn/x2esvEomovLgvAroBJRqNBYxJKGgfpKaEuHZ4D245f3dysqsM66iV0nCE5z6Yz81P/Mq27SpDvRroCBRoNGaxJDp2AWBxSgi4EPg30LLyf2zSrMWOax96ou5Bx53smUMTvh7Jvy/6B/lbt2g0l4i7AAcAP5g20rBBOu89vC+HD/7b1+6ImfPyOObKsSxdrRLIfxnwjEZDFkuiYxcAFiekAm8Bp9X2h6ddcjVX3fcfQiFvbrWFf/7OlccdysZ1a0ybmo7saiQS7wGnmjTQvmV9vnz6QHp0bKjkkrBuUwHHXjWOyTM3mDY1m+QWdrJYosYuACxOeAy4Oto/vuLuhznziutddOevLJozm38eMUQjLqAPMFPBpSDQFFiBHNk4onmTTCa8diid22bpeVWBDXmFDDjjaxav3GbaVH/gZwWXLJaEJsVvByxxRz/gylg+8Nx9t7N+9UqX3Pk7Hbvvzr0vv0tKqnGW6z80/AkIx2Ew+aemhHjnwcGuTf4ATRtl8NkTQ2hQzzg70dYJsFiiwOoAWGLlLuQNK2rCpaVk1q1P//0PdMmlv9OqQyd25Oczc8okk2aaAv9VcslvbgN6OP3wxSd14YrTuym6UzXNm2SSVT+dryasMmmmMYnzvVksrmGPACyxshxoHeuHevbfh5dGG03GMVNYsINT+ndn7crlJs3cQ2LIzN5GFRLM0dCgXhrzRx5Di6Z1lV2qmqLiMLsdP5KFy42OAtoi96rFYqmGRFECs3hDMxxM/gBrli9VdqV2MjLrcv6Nt3P/VReZNHO7lj/xyjVn9fBs8geok57CvZf35fSbJpg0cyDwhpJLFktCYmMALLHQz28HYuWwU84kO6ex327ELakpIf55ShfP+z3pkLY0b5Jp0kRvLV8slkTFLgAsseB4AdC6Y2dNP6ImI7MuQ489yZe+E4F9++1Cy128e/svJy01xPFD25g04X7AgsUS59gFgCUWOjr9YJdefTX9iIl9DjrMt77jnaEDWsRr33YBYLHUgl0AWGIh2+kHu/f17/Sgxx4xJS1YKtCnq+tKztX33a2RycebaflhsSQqdgFgiQXHC4Bmu7bS9CO2vlu2JiPT+23sRKBDK0eJA2p9GwhINsBmOVksNWIXAJZYcLwAaNDQ6G3OiFAoRJaP/ccz2VFW+HOD9LQU6mU6TlRKBeopumOxJBx2AWCJBcdvVCXF6vXfY8OjWgSWQBH22wGLJcjYBYAlFhxXatm8aaOmHzGTv2Wzr/3HK1u2FfvWd3FJmO0FjssEFwA7FN2xWBIOuwCwxMJ6px9cMm+Oph8xsWHtanZsTwQxP+9RKMxj1Hck4vjjxpWgLJZExy4ALLHgeAfg9+lTNP2IifmzfvOt73jnt7m5vvU9Y26eycf9c9xiiRPsAsASC4udfvDn8WMoKfZnO3nauDG+9JsIjJm6xre+v59i1LetA2Cx1IJdAFhiwfFr/NbNeUz4eqSmL1ERiUT44fMRnvebKEz4dT0r1m73vN+S0gif/mA0h0/T8sViSVTsAsASC7MAx7PB+88/pehKdIwb9Smrly3xvN9EIRyO8MqnCz3v99Mxy1m7scCkiZ+1fLFYEhWbG2WJlfHAfk4//PhHX3kmzVtaUsIZg3qzdL5RAOJzQCKkEFwKZDn5YJNGGSz68liy63ujCRAOR+h32lfMMIs/aA2sVHLJYklIbDlgS7SkAGcCXU0aeeyWa3hj/M+eKPN99saLppP/GuAyEiOfvD1wqpMPbswr5I6nZ/L4jXvqelQNL368wHTyjwDnA49gsGNlsSQ6qX47YIkL9gc+RCZDI23YzZs2kL9lC4MOGabiWHUs/PN3bj//DIqLjASIPgQ+VXLJb1IBx2URp83eyB7dc+jW3rEYZFTMmp/HqTdOoKjYaM0VAg4EzgY2IkdXzhMKLZYExS4ALDXRFngKeBRQE/P/45ep5OyyC7v120uryb+wJXcTVxx3CBvXGkew3wgsUnApCCwFrsXhrl8kAl+MX8nRQ1rTvEmmrmdlbMwr5OCLvzc9+69INnA8cDQwFxkDi8VShl0AWKoiB7gPeAvohwuxIlPGfEvLdu3p0rOParu569dx/WnHsGD2TNOmlgFXkzhvjkVAH2B3xw0Uh/nyx1UcNmhXdsnRXQSs21TAMVeOY9Z8o9z/6tgVOAfoDfyCFQmyWAC7ALD8lXRkm38EcBAu3h+RcJgfv/yc1PQ0eu89mJCCVv/832dw2bEHs2jObAUPeRD4UaOhALEEuNCkgc3binlr1GL6dMuhS1tHMYV/Y8bcXA668HtmL3Q91rIH8E+gMTAVkQu2WJIWuwCwlHM08AnwDzyqohaJRJg+fgyzpv1E7wGDyM5p7KidooIC3nn6Ue6+9FzyNjhWK67IZiTgsVCjsQCxConn6GDSSGFRmPe+XkpBUSkD+zQlPc1ZNnFpOMLT783jjJsnsj7Xs6FOBQYCFyALgF9IjCBPiyVm7ALA0hd4G7gVaOqHAyuXLOKT115g88aNtO3clexGOVF9rqiggK8/eItbhp/ED5+P0Kw4+BDwjVZjASMPON20kUhERIJe/3wxqakhenRsSGad6B4nBYWlvPv1Us64eSJvjlxMcYkv8289YBhwCnLcM9cPJywWP7E6AMnLrsA9wLkESBAqJSWFXgMGse9hR9J9j/506NaDrEY5pKfXYUteLmuWL2XB7JlMH/8DE7/5gq2b1c+MVyGpjolYPag+srAZrN1wZkYqhw9uyUEDmtOvR2M6tckiJ7sOKSkh8rYWsXRVPjPn5TJm6lq+GL+SvK0+l4f+O2OA6wBbOMJisSQs9YDbga1IgJu1v9okwJ0wd3/JBL7D//ENspUCLwMtHY6xxWKxBJIQcDJS0MfvB23Q7Wsgw9kwB5J04HP8H9d4sXwkCFQnytFisVh8ZG9gIv4/WOPJviQxFgGpwLv4P57xaCuAi7CxUhaLJQ5pC7yBRDn7/TCNRxtBfMtlh4AX8H8c491+BobEOPYWi8XiC42QLcwd+P/wjHf7kPhdBDyC/+OXSDYS6BzTN2CxWCwekQ5cAWzA+4fjEkQ5LxF3G94gQJkSUfIA/o+bm/Yy8JMP/RYC/0HUMi0WiyUQHMzOoide2jbgTqAu8KwP/XtlrxI/i4Db8H+83LYZyM7M0cBCH/rfCNxEYsSJWCyWOKUHMArvH4ClyJtxizI/9ir7d35PDG7aSwRfO+MK/B8nr+yqsmuuU/b/83zwYS6SXWOxWCye0RR4AijB+4feaKSwSjmpiKSq3xOCF/YkwV0EnE1iHsFUZ1uA1hWuvwnymyj2wZcxwB41fTkWi8ViSj1ki9cPIZ/ZiHxqZa7xwRc/7ZEqvxl/OR3dxWAYqSDo91jXZh9VMRa7I1oOXvtihYQsFosrhJBCPcvw/sG2DriEqqPh2xB8VcFVLrT5QBVj4RfHoj9ZXwH0BMYrt+uGHVHNuBwO/O6DP9sQtU1PimpZLJbExi8hn0JkS7VhDb597INf0doS5Gw4A7jWhfbvrGFcvOJg9NM9b6mij1+V+9D+nutXMz4pwHBgjQ9+WSEhi8XimE7IFqfXD64w8B61l4092gfforEpSLnX9Er+3uFCX/+qZYzcZD9Etlbzeu6rpq8U4Bgk/iOIcQa17chk4582xjSkDLPFYrHUSiPknLkQ7x9Wk5F66bVRH3nzMu1vCvAF5hPZLGTbtTahlntcGLMbohgvbfoDmx36W509EWXf7YAbkV0pk4C7MLKzoHFeX4Sc/ddGe2Rx68ciZgRWSMhisVRDOnA5/gn5nE70Ee4PKfS5HdnlAKlWty8iJvQqMA4pXLQJmWSKkG3cP5GJZwRwK3AIsYuyaPhe2a6O0QcTeqF/jzhNccxGztpvBt4BJiBxKpvYGZS4CYnDmIIoK96F7CY0L2sjA/leTa9hfAzXMBArJGSxWAJCEIR8omV3dILO/Nw+114EhIHLPPC7M/pBjR/hv9zx/ui8lZ8XY79WSMhisfhGUIR8oiWEvOWZ9j8Xfx9+IeC/Vfhlugi4xEWf26Bfzvkz/h4r4RdvoDOx7hJjv1ZIyGKxeIqfQj7fAX0c+n2hQv9hYKjD/jUJAc+gvwi4yAVfmwFzlH39Djl6CQpNgfWYX9crDvu3QkIWi8VV6iJbf9oBXNHYHMzeNpqg84B+zcAHbULA8+iOcylwlqKPTdHPZ58ENFD0UYuLML+2MHCggQ/dkcp/Xv8+S4EPkDLeFoslgQghk+9ivH+wbEC2OE3PeV9X8GUj8jYbJFKAN9Ed8xIkqNKUhkgamaZvvxLcILQUdDQv5mB+xHQwUnTI699rPpKymGXov8ViCQBBFvKJFq0grQsUfHGDVOBt9BcBpxr4VA99Jb5ZyE5OkOmJTpBpZUEjJ1ghIYvF4oi2SGCTHznHI4GOStdRB/hDwacfCW4hHZAH7Xvofg9FSMpbrNQBvlL2ZT6wqwNf/OBhzK93O3q/gfpItowfQkLTgSFK12GxWFymEf6pjk1FFOI00agvX4zzwEMvSUci4zW/k0LgqBh9+FzZh2WICE68UA9YhPl1f63sVxv8XdRbISGLJaCkIVt2a/H+4bC8rO8U5Wtqj47c7IPKfrlJHfSDwAqoupJiZVKBd5X7XosEtsUbw9C5/pNc8G0vZEfL6995ERK02tSFa7JYLA6JJyGfWPhCwcelBDPivCYygC/R/a7yqTk6PQS8oNzneqKTyA0qn2A+BqvRiYOpCiskZLEkMfEm5BMLpyr5erSLPrpJPSQ/W3sRMKSa/v6j3NdmpGZAPKNVbvpxF320QkIWS5IRr0I+0ZKNRCGb+jrCZT/dph4wFt3vbxt/j9N4QLmPfBKnAt11mI9HKZKN4yZ+Cgl9D/R1+foslqQnnoV8YuEpBX+3EV+BZ9VRH/10vDzkHBl0giwrWiFSoCdRSAN+wXxcpuNNSp0VErJYEowQou62DO9/2OsQjXmvCrb0R2dn4xqP/PUCNwR5NgKPKrdZRPweudTEPsgEZzo+l3vo8+HAbAWfY7WtSGnseu5fosWS+CSCkE+0pCBlW019n0lwisxo0Qh5i/T6PojWtNQHg8pzmI/RZqCVhz4HQUhIOzPIYkkKEkXIJxaucuhvRStF6q0nIk2RxY3fk31lCyOFmhKZhuiUQn7Pa8eRLJg7sUJClgDhhSpbAyRSvhtyNrYLEmBWH7k585Etq7VIROucMsv3wLfqaITUqr8SifD1kinAtUixFq9phSj+ZRu28yxwqbk7gaUZEhjYw2c/KnIFUt440TkTeEuhncOBbxTaiZX2iCbGKXivivkxEr+0wON+K5KOiBn1QOaDVshc0ACJryqfD9YhdVMWAj8jMTOWOGEgcA+ybe4kIra47LN3lrXl1Q8lHTkj1Kh4F6stQbZv/ZTK/RDz61iNLKASnV2RBavX90lVdrPL1xo0vsN8zBbgnnZGNAwEfqrCL7etEEk39bIYVBfgaiRd2klKZxh5MXkGOBTvX8osUdASCTyZh/5NOxd5yLmpY34U8KcLvtdmW5CiJX4+jEBPde0Mrx33kdbIROL1PVPR7nX9KoNHV0RZMd7HLgSchiz+vb5vNiC7Rm7F6dQHzsUdtcRc4EmkaJTFZ9ohgWrbcf+mLURkMFsr+p/IQj7RUhcdNbMfCHaxHzdog45mvRN70oPrCyp3ovM8CcIxTiIJCdUvu5bVHvk/Ghig6L8lSuoDD6FTtjNW24Gco5m8NbcAXsQfIZ9vCNbq9X50vpMuXjseEDrgfXroiyTfYqsimejsNv5AcMaxOfKCE4/iYiEkCHWdD75HkOPLNgb+W2LgCETf3Y8vuqItQDT4Y6EuEuCnIS8aq80muoIwXrIb8iZkem3/9trxgNEZWIk399E72BrxIL99jfE822vHa6En8pLg9fOpFHiJ2I9au6GvlunEtiK7D0FZ0GmQg7dp4DWSDvwf/qTFVWdhREa1tgdiMgn5REsIGIf59c3FFiUBeRC6vfX5KYmnr2DC2+j8Pht77XgUDCP4QkJnolMtVNNGIdlm8cp+iIT6FnZe00bkyNi3kupNgAn496XWZqPLfKyKfYGpPvhUgByTBGYFV4lzMb/GMHCQ144HmN1xbxv0G+xCqzLNkaAw07F90WvHoyQNeXnwY2t9OfAPqn6jTkNiv7z2KVpbQrCOWaMhA3iZmq+rFLgPj8Wd2iJpGH5/qbXZbP66fdURndS2WC0MvI+cDQeVJuikO77pteNxwEHo31MFeKtgF09cgs5vdrDXjsdAQ+Rlwg8hoWn8tXhVHXTKNLttecDQ2IbZN1KQ3b1or+0NPFoE+BHgZGLzgd7IUYVGqlCsNhkY5GikvaW2lWY0tgl5A7PspBE6hWuqsikEdzfJT1KQ353p+M4i+McrHZCXCz+OYT9C3qq/9KFvp5ZPfCwCriH2a3sFlxcBzXAnrz8RbSn+C/lEy37oPEAu9trxgNMAUXB08z6bCGR5dUFxRF90yvDe6LXjDhmEzqInGWwbwZYmz0R0GZxc2wu4NOfURb/6WSJaUIR8oiUd+B3z656ELTJSkbpITXYv7rnxSBqu5a/8B/OxjacS1iHkpWMJ/j8Hg25rEM2aIHIkZtf2NC4sAl40dCrRrQTJ2Y23LfCbMb/2YnyMRg0gdYAv8Pb++574WXR6RQN0jitHeu24IZnIS0jFqHFrf7ffysYqaNyK+bU9runQmQoOJbJ9A/RyPLr+0QGdlJ1HvHY8wKTiT6Bp+X0YxAeanxyPztge77XjCvgpJBQvpjpRKvEQOtf2fxrOaKXVJKIFUcgnFjQkj5cib1oWOQJ5DX/vyVHY4iiV+RzzcV1O/MZa+CUkFA8WJnhBgTegd333x9JxVecGbyKCOao0rVef/dq1Z49dW9IxpzEN6kg689bCQhblbuLXNav4celiNm7frt21BusRpbty6eB45EQkiteU44DPFNqJd0JI+d0glD3+DNFzL/bbkYDQDlmsm8ZJPIaU5o5XhiG7dbv57Uhl0jLr0HKPLjTr2ZGcDrtSp0Fd0jLSKcrfwdZVG9m4YCUrp/3JlpUb3Oj+D3YGjQaBQUhwrxZ3IbUyaqXyAmBfJMBILaDgmO67cdle+zC0Y2dSQjU3WxoO8/2iBbzw81Q+m/MH4UhEyw2nFCJiF/cDm332xYQspNKhaR7558Cx5u4kBA8RrIjxEUhluXhdoGpzI/IdmVAC7IWcHccraYhG/10EQB1vlx7t6HfuEXQ+pD9pmbVvXK2fs5TZH41j9ohxlBQUabpyDcE5DkhFFqzdFNu8DREMqpHKM/K3wCEavQ9q044HDxnG4LbtHH1+1to1XPXV54xbsljDnViJIOe6NwO+OKDM44hGtgn5yJvEMnN34p7bgbv9dqIK3kN270r9diQApAM/Yx6rMwV5Qwsbe+QvDZFgs6vwQU0yu1VTBl51Mt2OHEgoJfb3y+0btzDpsQ+Y/fF40HkxXIsIxQVly/kYRAhIM5r/JuDhmv6gon7+AERT34iUUIh7DzqMl489kbaNGjlup3mDBgzv04/UlBSvFwFTgFOR7b88Lzt2iX7I0YVpyt6/gK/M3Yl7rkEqUQaRnkig52fIIjaZCQMzEblrk4dqa2SymK7hlI8UIhX/3kbUUnfDI82SLocP4IRXbqbZ7u0J1bILXB3p9TLoOLQfzXZrz5Kxv1JabLzR1QA52p1i2pASc5Hdmv0V2zwEyQyZXN0fVFwAPIKhdnKDOnV49+QzuGDPvRx/0RUJhULs374DvZq3YNT8ORSXuvpiswyRFL0GCQBKBMrlJVsbtjMTOI/4fwsy5SLgKfQenKXI4qyfYpt9kLKo5WmJycxy5N7vZ9jOYOB1RCMg3slDYoFGI89702dD9YRC7HP5CRx423BS0nXqoOV02JWOB/Zj6YRZFG7JN22uMxLHExTGIkWp9lZs81CkkNDUqv5j+QIgGykD6VgGMzMtjVFnncthnbs6baJaeuzSjP4tW/Pe7zPciAvIR3Y+Tgd+1W7cZy4DLjBsI4wEEC41dyeuOQl4FT3xowjwT+QoYRmyBai1CNgDebDHWz67G0xEdgFMAgIzgZbAxyoeBYPliBz4bKA/UnZWlf1uPJ29LjoGFF4GK1KvSTadDtqTuaN+onhHoUlTjZFJd4mGX0p8jcRq7KXUXggJBl2PCPv9hfIFwHDgBJNeXj72JI7u1sOkiRrp1LgJDepk8O3C+VpNlte+Ph5JpUq04KldkQeWaZ74i8Cz5u7ENccj+uua5ZyvAJ4r+/+/IdXejkRvEdAPecB9rdRevLIDGVvTvP5eiPrlImOPgsUfiJxsPnIMrBIf0POUAxl8zSkaTVVJRlY9du3ThbkjJxEJG21MhpHg5iDxFTo7V+WULwJWUOklt3wBcC/QxWnrp/Xqw10HqsQO1sjANm2ZsWY1czesN23qW+St9mXkxk9EXkRW9iaUPzh3mLsTtxyGbJlq5trfjMSYVGQ6UlxJU2dibyQD5FvFNuORmcAQzCV+9yG+U4GrowQp9f4KshvcF4Odrpz2LTj6v9eQkpZa+x8bkNWyCWl1M1g2cZZJMy2BRwnecdkXyP3aV6m9EHA0sAApevW/f5mOPHgcibtkZ2Tw5xXX0aKBN5oZ8zduoNczj5vEA+QjEbGJHCl9KCIEYspwkrvc7/7IaryeYpv3IlkE1XEd+kqLDyJSsclMd2AG5gu5uxFNkETmO6SktSOOf+lG2g72Rii1tLiEN4+6ic3L1pk0cwZS9C5opCIxClrHASAVcodQFhMQwlCE4MZ9h/DAwYfruBYll4/6jGenVRvYGA09kbOvRCQTWeF1NmxnDHAwwVsZe8UAJFAqW7HNx5Eg09q4GYWMnEokw8RVG/cg+dEmFCLlxoM4YWgQQoLGHMUEtOzXlZPfrml9q8+8Lyfz1XVPe9pnnLMCOdLKS8FgdZESCnHpXt5XWbx+8P6EzI5KTbfGg8ytmE/+hYjCXbJO/r2RN3/Nyf9FoleVexD9yfoOzCe/eOd+YKFhGxnAM8RH2W8ndMIgILDPWe4fBVem67C9yW7V1PN+45jWlL2IpGCgPrRfuw60adhQy6moad8ox7HAUBmJugDojo463cNIXmoy0g05M2+s2OY7SMR/LAuqu4lCyStG7iFY6oVeswPJjDHlIKRgWiLi+IUwvV4mnYbuqelLdIRCdDvS+xfROOdqoFEK4Dhv75BOpi+azjmkk+OYRTAIeAwwIeTNxDSKdwExFpRIINoj2/6aJZ4/Bc7GmYbCbShV+KrAQ8iPP1n5BsnoMOURXEidCwCOn42t+ncjNcNxJrkRbQcZSdgkI9nA4SmIaIgjBrRy/FFjBrQy0q/QfLsLCmcBByq0cxkSKJJstESCnzRv6m8w1+e/EX3N8kfReROOV67BvLZHc/TjNIKA40VN814dNf2IvW9lvYEk4IgUDEpedm7s37lL5yZGfSfaAqAxOpHj75GcKWO7IJN/J8U2xyPaGkZKJWVcC2hGOYUQRcMLFduMJ1ajEw9xIZBoe8+On42N2rXQ9CMm0utl0qCZc+n5JKW30QKgcd26ir7E2rdRZlaiLQAeBJoZtrEFSUFLNhoiAX+aKla/IVV7L7tiAAAgAElEQVQTtQqNRBDhIE1BphDwPCJvnIw8Qw0a6VGSgoyhP/ve7tDE6QczG5pWXzYjs6GjTPZkpkUKBjdveqq7Qg81kWHWdyNE/elaJCDQvwsxZxBwvkI7twCrFNqJJxogk79m5NJMJEhMu5BUBLgceE2xzfK4kUQNaKuJMHIMYqoH0gu40twdX+mCPEPeAPZz2khqHU2hzPjrPw5pkIYI4zgKHMsvKiIzzZ9B31ZkVBu6XBXp6LJ/3gr8iGzbjkc0k+NB7SsdkZM11aefyk5Z2mShLrII1NzCnYuIMG1SbLMiYaS2Qzp6k3YqUuimGPhAqc144RfkaMV0Ar8TKR8eL6WyeyBiMPuX/W9LjUaL8/0NHSryuf84ZG0aMvk52hJfsWUzTeppiqRFz/ItpjE8fyELOKLMQBZFk5DFwFhkQaBxlqvN1ZjXOy9FUtSSqdJfHeSBrRE0Wc4SpPzmWsU2q6IUySpIB7TE1lOBt5BFbyIVvImG2xFZ8FYGbTQAngSOU/FIlxAifDaEnZO+6XFhlWxdm+tGs9ERibDNz/7jkxVpQC7gKKn+z/Xr6NNiV12Xou7b1edsfeRhXq5qsQM5LxxXZlPwXx+/HTpiMU8RrCqIqUBHpK59S6ApO49otiD3ax5yXPEHse/UpCI10Y/UcLaMVYhqoldlpEuRrI80DIt4VSAdeBepeui0imAn5L7MqWDlu1MbgTXIW/IcwGgLT5EtyEL6Q8N2jkUqOvpdWCYVEbIqn/D3w+BcPxY2LVjpRTdVsmXVRoq32x2AGBmbhuR9Oyo4MG7pYk7r1UfXpWj7XrLYy+7qIm+L5W+Mhci2+Thkl2AS3hcVehKzEqcgkpB3KPhiQipwADKBDkHq2Ue7rbQD0Xf/GfkuRlFz4F0KUgDqJIe+VsV6xHdThblYKUZKWH/EzqMsU8p3Ro5HYiNqIpWdv4n+iIBMtClkJcgiYDzwA/AlegGTTviozIcjavvDWngK+B5vnwVpSNW48u38/ZDAVs9ZOX2OH91K39P+9K3vOObLNAwU30bN+5PS8DGkpmiVSI+O0nCYUfP8u9mQmIn92BkwU4xUcxuPTEQTkKMVtzgOedsw5Wrc9bMmegP/QApxOD2DrItUaNsHCejahry9foBU06q4O1Ce+na2w76qIg+pFujX06cIOBkRG9IqyJGBHAMcjaRGVmYfZOFxCuA07ysN2ZbuiUhObwVGIIWnxuLPcdTlwO+YFX5qi8QD3KDhUDWkI4ut8u38wRhkcmmyccFK8patpVFbTR2t6Fg05hfP+4xzpgJTU5BtVEes3LKF7xYt0HMpSr6aP5c12/yat6okHQkmuwl5k8hFBvgR5EGqmaBaft5oyijkoes1ByPHKTOA61EKQCqjATI5fYIUa7mQndXfHkQmGy22IW+Mfh+fFCJv7FVN1k7JBD5DdmbKORw5+voJCZrTTPrOAs5B3p4XAufhfWbOYqRSoylXI4tbLTKRif525DvOQ4q33Y98J4GY/AGIRPjzkx8973b7xs0sHveb5/3GOXcAkRCifOY4enVI+46MOcc7PZFwJEL/559ixprVnvWpQBhJDyuPIfgR2OCwrUcwz9ffDuyOBK55xd7IQ2uoh32C3NsTkJ0GLXYgMQQ/KLZpSj1kUXeAYpvbkMqEZ+K94M0cZNIbgXdFqeogC7rdDNv5CdgXZzsZ9ZBdlvIz/L2RRUBckNmwAed+/xh16nvn8g93v87Md43Wv/Pwbye0NnZF9yUJJOvnHNhZ0WoeBhrQn54+nKO7aeqoVM+bM37hnE9M43V8J4KUIy5fEIwnuujxPshRg2nu5c2IJrwX1AceQ9LXEkGrswgJvBvltyNVUK5rsK/fjigyFhiOdwGW+5f1aXqvXgy8EMXfNUC28cvP8Pdi565VXLLn+Uey7/WnedJX7pI1vHX0zYRLHMs5hJEJ1u3sHSfsjpRl18za+Bl5PhTAzpv8aQy2R1tnN2TqRZfTvIG7Skyrt25lwAv/ZdXWLa724xN/slOHYCx/F+VJQbb+9jHsZzawBxK34Db9kfQyxxUnA0Ypou3/kd+O1EAWIudsep8EiVwkVdUrnYJXgHMN28hFqnOuq/TvGyIP4PIz/D0xX9AHipS0VE587VZa7um4zlxUhEtL+fSCh1k+2fEpNsixVhB/K92RHUbNo7Y5yA7h/xY75QuAQcjk4phBbdrx3dkXkOGSMFBBSQkHvfYik1fEi9aGMQvYGVQ4DhiGuRRsBHnoTDBsJxquQirZJYpMahg5m37db0eioCFyXpxoZa9fBi7B/cVrU2RBblrs5E0kJmA/dm7p9yG+lUejol6TbE774C6yWrpXL2bsvW8w4+3Rps3chJQ/DxJdkJdAza3/+cjk/5cXy1CF/50HGNX3PaN3X1497mTSlLMCSsJhzv7kA96bNUO13TgjjLni38vIVrzb3Afc6kE/XlEuw/uM347EQGMkqM5Rim+AGYVkPritw3Ee8nsxIVJm3qZJBYSm3dty4qu3kNlIf2f4tze/Zdz9b5o2U4JkbgQpoKwjMvlrViVdiEz+Kyr/h4or0fpIhLZjZq1dw0/Ll3FU1x7UTdd58du0YzvHvvsGX8xN+jxP0zPJDUj6oJsPzhTgv0iNhUTiJuAJv52IkR1IAN0wpHRtotAV2UL/GHfVOX9DAlYdiaSVESIx4l4csX3DZhZ8O402A3tSr3G2Spvh0lLGP/QOU/6rIlj5OfCSRkNKtEMm/7aKbS5BtDqqjKGpeHNmA0tRSFnr2qQpb514Gnu2NFHXhKkrl3PWiPdZuGmjqUsWOdN8zeU+nkOCnxKJu9FRXPSLZshZomlke9CYgjzY3FzQ7o7UC4jroDy/qdOgLgfdfR5dh5kdtW9bm8voW19g2aTflTxjIOYVIbXIQrJHdldsczly7FStal7FHYBCZBdgiGmvG3ds55Vfp7Niy2Z6NmtBToxlgxflbuKGb7/kyi8/Z9MOPwXCEoYZiFCOm+lUV6JTYz1IPIpUSYxn8hFdhKPxSBLWI1oj26Vu1i5YX9ZPosVSeEppUQkLvpnG6l/m0ahdC7JaxFZ6pnDrdn5++Qu+vv4ZchepFSz9DnhAqzEFHgGOUmxvJbJAXlTTH1XenmqERAqqbRmmpaRwSKcunLx7Lw7s0Im2DaveYFial8eYxQv4cPYsvlu0gNJwMtWm8YRcRH+gPO3wV8xLoZZzMJJ+lkjRzM8jAWde5aC7TSvku+/ktyPK3IKIPGnRhZ0R+gegexZrAZrt3oFuRw2k7aCeNO3SGkJ/PyUp2LyNldPmsGD0dBZ+97O2zn8pMADZ3QkCTZAJ21FV3ipYg9y7tar8VnU+dRYSveoKOXXr0q5hI5rUExn7jdvzWbo5j9wdftfWYTZSgMaf8obeswXJBihfEEzHWQnktshiwlFFyYDyFiIZnGir0LbI993eZz80CSNxDt86/PxuyGSvWho3DihBpI9742OQYlpmHRq2aUbdnCxSUlMoyi9g65pN5K9ztbLf80haaVA4HXhHqa11yJu/49zIEBI9HEkym4WoLg1C3iq+QiZJv/3yyrYC3wD/QoKsoj33/DQAvmvaJyTWTkZlOiDqiH6Ps6YtIrqFewpSPvsKpOjR2gD47pUVIaneDyALpkbA+wHwy2tbTvBeVv6NzrWtJ8by8NVFqLZC3up2ie064p7pwEHIxA8BqrTlA9GUQD4G0YxXp1GTpnTp1Zc2HTpTv6EMeVFBAWuWL2XB7JmsXFLj0ZYJbyFFihKZWxBZZnWaN8mkT9ccOrfNIqu+rKN2FJSyeOU2Zs7LY+lq1wrlPcjf4zVSkbz78u38fUmsOIiaqFixdBwSYFY++CEkxdFU7CjeCCMl3sf47UglHkDUWU3YhMxdMRVFqClF5TCksE2y5bD+iBTZqCr60D5QJE1lPFLbYCpmaVJ/oWHjJhx15rkceuJpdOnVl5Qa9CTWrFjG2JEfM/LNV1j4p1pUMMhKejDywExEGiOiIGpvQc2bZHL+8Z059bB29OrSqKoj3f+xaMU2Phq9jFc+XcjcJaqKnsWIjG4GdsFe3YK9nCeQoN1k407gLr+dqILLkPRpp+QhcVg/x/rB2nJUr0EioZONb4BjqT3POAVJ2ziAneeImrrNSUFGZl1O/edVDL/mJhpkx/a8jkQi/PjV5zx1x40sXzhfy6Vx6BbVCRIPo1SutkG9NK4/ezeuG96DBvViOzUJhyN8OHoZNz32q5u7AolMPjCJnRP+VGSbvzbuRY75ko33kbP2iN+OVEF3nJcU3wIciiz4YiYakYoHESGUZOMTpOZ5rIFxu7EzingIEldgqYbd++/N/a99QPNWZsHWxYWFPP6v6xjxsppY3354I5nsJTmI1odxCdkD+jfnvYf3pXkTs6pv2wtKuOTeabwx0rUjnUShPGi3vF7INGJ/Nt2EbsZEvPAdclzpe6R5DfxA7C8d25Cd+klOO41Gk/p7ZBstiAUT3KQHkmf8GbGtGtcjsQQjgP8A7yLb5VuQB3CybEnWymEnn8lDb46gYWPzU5TUtDQGH3oEjZs1Y8oPowmbp5E2Rt4aEomrgSNMG7n4pC68+9BgshuYq32mp6Vw/NA21K+bxpipa4kE8f3MH3KRiesFRF/jGiQ+ZSIi6RrrDX4pUpUz2RhD8Cd/kLP74URfOyUfKUlu9JISi0zlTUiwQlClLcPA40gAl2bw4nPIj0fr0dSBnYVBhpT9c9Jx6j+v4ur7HyVU04GxQ8aN+pRbhp9kuggoQXLA1+h45TshJC/YcdlvgDsu7sVdl/bW8agSb4xcxNm3JWroRa1sYKdOxzjkpUErDXU48Cp68VylyMvNJSjsJrnIB0g6r6qIgIsciyzyaiuesBbZnR5v2mEsVakmIiJBh6InWKDFNqRM65PIqvlUwGxvcif9kRQj47JTZeQhq73PkGCcV5Bdg4OU2g88Bxx9Arf992VXJn+A9l27k5qexvTxRsG+Kcjknygz0mAMz/7PObYjj9/onihen2457CgsZeJv613rI4C8DZwJ3IjsOE1B7jutF44TkUlFqwJhGDgfUa4biQRM5yi1rUUEeVm9FGfaJn4xF9k57kzVC/Uwcr+ciOjWGOPkCdwFWVkFpcrYFGSVV1H1aCAiDKJZhuoO4B7F9iryMXC8S20HimYtW/P2pJlkVaMIqUUkEuGWs09m7EgjpdgfkViORMAo+K9ru2x+/WAY9TLdlUgIhyMcdskYvpucKBsvtbIECSR2Q/N8GKLToVnL4HLg6Qr/nFP2z6cr9mHCWmTHw6kwVFDohUgDd0V2XP5AvkvVYBmnr2B1gOuRaFK/lPO2I7nMD1H1Ku8g4Av0dgJAzuEeV2wPRKP9c+U2A8vtT7/CkWec40lfq5ct4ZQBPSgudFw0rgSRxd6k55Vv/I5BoZGPH9uf44d6o4o7e+Fm+pw0itJw0gQEVKVhYMoQRMwstkIsNVOT7PIpyLPRr6DnCFLs7EbkOMUSBU7PhIqQyXd3ZNvKS8nUMCJV3A2pO1/dFs/3yE1ZrNj3o8AFiu3VB55SbC/QdNqtF8NO9U5jZ9e27TnpgstMmkgDNuK/epmGOZ78B/XdxbPJH2D3Tg0559iOnvUXAK5DtwrcAGR7XnPyv5+aMwg+QN5W78Wd3YyamIBk7ZyHnfxjwjQoZAly9r4b8Dru1ucuAF4EeiJbPCui+MzIsr/VKnoTQoICT1Nq7w7MhXR2IIGP/4cchwT2zOu86/9FSqrWUWR0nH31TaTXsdVcTbjj4pjURVW4/eJepKQENd4YkLzt55Hz+zmGbaUjzxWNC+6FvPlrBuc9RXTaAduA25HsqbuR2Ca3CCPb/Icgk/9EF/tKWLR/YY2RALyzkLRB0wVGGDmH/aDMnK7uLkDSabSutxgJxBhp0EZPpBqVaS7Vv/irrGsDJOCrXIdgLwJQzzyrYSO+nLua9Azv40dvPPN4xn/pimJxwtNyl7os+/Z4Un2YjA88/zvGTl/reb9VEEGCrsayMw+/omMHIOlmpoN0PhIU7JQuiG8tDP2oyKuIX07OYzKRFLxTkfRTjePY2chZ+KvAQoX2khrtiJ5NwLNl1hj5YQxFKk51p/b0vHWITOl05Eb+EZ1V5EvIxKiVB5uOLEiOQo4aYqV8J8F08v8DicatyDZEyfCbsn+uhyzGytMO90Y3LiIq9tx/qC+TP8CgQ4bZBYBDDhvU0pfJH+CI/Vr6tQAII2l45Sl5P1Lzy8dY5FhyuGG/DyPxQE5edNoiGVCak/8HwIU4z0goYOfLW32k0Np+Zf/bFWhNzYum7cACZD74CRHLsZO+Im6G9G5CotsrhmHnIIuALKQaVQgRvMgHVgObXfTn8bJ+71ZqLxNJ5TuU2JWYzkfe0k2IIGkutcl/bkfeTspz4jKRM8IDkF2CgXgQyNl7wEC3u6i+731Mhzp5GdS3qW99D+7rWS2yEqT42Xh2Tvh5MbZxPfJCYFJjoQlylBdrkZ4WyOTf1qDvyoxCdnK1jk/zkVTqiunUmYjWRnaZpSLPqx3AKv66y2JxAa/LnuaWmV/cgywCVLTQkVXtKGSX49coP7MLkrlgyuvIwypWCti5jQmyCzGAnUcGg9FNnwSgXdfu2k1GTZuOXUhJTSVcqvUsSx66d/BPuNLFvouRt8pxyO9gAlIO24T1iFjai4btnI1sb0cr8tIEmVSNBJ4q8QNwMroB1FVRgOz4WnwikeueV8dNyAR3iVJ7jZBglCHIlnxtPIJ5JbZNSLqLBsVIAE15rfBURONhX2QxcBAKleNymvpXIym9Th2yGjZi86aNvvkQrzRr7J/mV+OGdUhPS6G4xDjJqASYgbwlT0QmVzd2G18GzsFsdy+ExCv1ofag6mwk4K+nQX+VmYIo0gVdOteiQLKV+gXZOr8cObPToimyCKgtd+kAdGrN34h7EbalSFnJJ5A0ymbAnsC1GOzeZNTVzEiKncy6fslVxDd1M/x9R6ibYZQ1cj9wIDJR9kdqro/EvaPGCPJiYfrm3A1JDayJesi17GXYV0VmIOJBprshljghGRcAIEE+5yLBKVq0QrbOqjuHqwM8g3mk8ATMIoVjpRTJVngMCchxROEOf18oCnZ4nZqcGOwo9DerdEeh42ObCPBvJEDPy5tvFjpiYbdR/QtFHeBDdFUq5yOyvn4e0Vo8JlkXACAT23B2Rstr0Bb4mqqzHW5AKgyaUIy8YfglkRZrYNT/2Lh2taYfMVFcWMjWzY5dT2rWbvSvjsqGvEKT7f98/NPEuAspu2xCXeC/Vfz7NKTCqHFVxwosQeKYkkZ/2SIk8wIA5IztBCTqV4seyKKioth9J6IT0qiNRxFJV7/Y4vSDi+dGEx7hDssXL7ABgA6Zu8TxV27Mn4uMdurdzCiqjXzgCoV2hiHBeOWkILt/Jyi0Xc4q4GCiE1azJBjJvgAASTs5Cpim2OYeSHBOeTT9E5jLci7DvWJE0eL4IfHbJKOy1UbM+Mm/vuOdSb/5p6w6/ud1Jh9fruWHQ0YigjWmPAmUp0M8gk4MUTkbkDRmm1ufpNgFgLAFWW1rvl3vgzwAhgNHKrR3KfJm4SeOx+eXCWPZvs2f2KJJo7/ypd9E4OuJq3wryvPF+JUmH1cpl2rIlYgwlwktEO2Sh5BiZFpsBg4jGONk8Qm7ANjJRmQ17DjQrQoOQipUmfIxojfgN44XAAU7tjN6xHuavkRF3ob1TP7+a8/7TRRWb9jB6J+8j9+Ys3gLk2ca7T4EYWJbjgQimnIFemm/IC8SRyLBvZYkxi4A/spq5DxMc/vQNOp/K3CVhiMK/I5BitOr/7mfogJvg8pef+xBiotqE0u01MTdz88i4vEmwMOvGseMBGVyexL4zbANTS3mQuB4bPEcC3YBUBVLkYhY/8LW/8odBCdAZxuxyx7/jzXLl/LBC95VP169bAkfvfyMSROliMZDKAHM8RvxTzM28MkY747Uf1+Qx1ujFps0sQ2YrOSOKSXARXhbMr06SpEYgtG1/aElObALgKpZgOTEbvLZj1+pOhXIT4wO1F9/9AFWLTV6uEdFJBLhiX9dR3GhUYXqn5CjoUTA6Ajppsd/ZUu+28qwUFhUyvn/nmyq/vc97pYmj5VpiLqfn4SReKQPffbDEiDsAqB6ZuKvKlYY+Cf+5TJXxxcmH966OY8bTj/W9YDA1x+9n7FffGLajEYUd1AwKoe4YNlWzrx5ImGXAwIvuXcaU383XnMZ3aMucQv+FbcpVyh8x6f+LQHFSGczCViJbHmfinnp3lh5FvPCIm6wHtkdae20gdwN61j452yGHnsSKan6t+DYLz7h4esuJWJ2cF2CqEWaRnEHhRXA6UjxGEfMW7qVHYWlHDJwVz2vKvDI63/y8GvGZ//bkGqbQdoBACl8sxrdHP5ouZ7g7SRaAoBdANTOUiSg6GS8G681yIPCPxm2mikFjjNpYNmCecyYPJF9DztKVad/xMvPcN8VF2gI/3wBvKTgUpBogAS5OmbSb+tZtX4Hhw1qSWqqTmxaaTjCTY/9yl3PzdJo7nXgI42GXGAWUmSrtpohmtwJPOhhf5Y4QjO6NNE5CXgPbxYBZyByn0GlAyIeYnz/tO7YmYfeHEGn3XoZtVNUUMDjt17Lx68+Z+pSOfshdRcSiUaIoFSWaUND+jfj/Yf3o3mTTKN2Nm0u4uzbJpnm/FfkLOBtrcZcoCtyvOhFmcX/IG//FkuV2B2A6PkD2Q04FncXTqORksVBZS+k3oFKsfYtuZv4/M2X2ZGfT7fee8S8GxCJRBg36lNuPOsEpv6gFtz8I6LnnmgUIIsAk3K1ACxdlc9LHy+kbkYqfbvlkJYWWzhRcUmYVz5ZyAnXjOO3uar1Z45AFjkzNRtVZCOi53+Ay/28QHDShy0Bxe4AxM5luHeeVgD0RipzBZHhwPOA2WtfNdRrkMXhJ5/JYaecQc/++5CaVn0p2jXLl/LD5yMY+darLJqjqvkSQSbInzQbDRA5yP3lOBagMi2a1uXcYzty6mHt6N01h1ANT5U/F23mg2+X8eqnC1m62lVhy0eRhXTQgmhBfj8zkN0AN3gb+a0GIfXQEmDsAsAZNwMPuNDuvxHZz6CRBvwfcLVXHdbPyqZ73z1p1aETDRs3ISWUwo7t+axZvpQFs2e6mUo4CqkNkcjcAtzvRsPNGmfSp1sOnVo3oGFWOimhEFu3l7Bw+VZmzstj5TpPyzJ/hwTw+p3OWxUH404+/mfIcWUQFz4WS8JwH/K2qGnGW7Mu0AR5kGpfa1BtByIJnah0QLbI/R5nr2whYBZg4g67IBk1mtf6Ld7EFlgsFqQ6l+YPOBfo6+kV1Exv5AHq90Pca9uOqEEmGm1Izu9zK/JWHBQaAtPRvcZJ7Kw+arFYPGAX5Nxe84e8Guji5UVUw0lITrXfD2+/bBuwv/EoBodWiMKl3+Pql4WRctp+i5/VR3T4ta/vcC8vwmKxwCu487BaBrT37jL+QggJniqtwb9ksURZBDRDslj8Hs8g2CgkE8IP6iBS2m5c1+94L1ZmsSQt+yJvFW49qOYD7kiuVU8W8ImC74lkm4EBJoPqM7sgk4Pf4xgkmwf0MBlUB6QiOvxuXpdmyWCLxVINaUgaj9sPqpkopmvVQhekYpzfD+cgWh7Q3/nQ+kYO8DP+j18QbQui6eEFKYgOv9vXlI8EeVosFhe5Be8eVFNQUG6rhWFIAKLfD+UgWy7Qz+kA+0AjpAqd3+MWZAsjMrlupkOHgOc8vKYvXbwWiyXpaYf3wXETkeAhbex5f2y2DujpaKS9pSGycPR7vOLF3sed3xfAwz5cz/EuXYvFkvSMwp+H1JdIEJEW9YEPXPR3DaKauMTDMfLCVgPdYx9uz8hCVAz9HidN2wpch7vHGb+iH3h7l8vjUp0tx/1dQ4sl6TgJfx+EH6JTv6ED8JuLfk5Hcs5B3kZfxt2ASa9tJdA5tiH3hPpIHQO/x0fTxgKdyq6vLiJz61Zf64EDYxrx6rnewzGqyh5Vug6LxYKsqFfg/wPxNczOLIeir0BW0d5CHtSV2QeY6tEYVbRFwOVI5Ldmu8sIVsBVPeAHdK9xK7KLM0m53WjH9zSqvtdvQKRu3ei3GLgiivGuiYvxf8FbTLBExSyWuOZx/P1BVzSnxYiuQh4MbvhUgmzT1kQI0dn3Yot6MXABO3Oj2yCLAe0+2tZyzV6QicjAal5bPjCkQh+H4833tgiZQGuTtD0M0fh3y49XovChKs4iODE1k/Ff+MhiiXv64d4bh1OLpRhRJrJz4JYvG4ldP78/8Cy6D/GtwJtISdiqSgm2Rz8mYQHQOsZr1yQDiQ/RvKbtSLGaqhgAPAasUuxvBzAC+d5iOeLqjLsaB5OBljH4cxzuLbCd2iUx+G+xWCqRis7W9XzkrUrzx31rFP63wt2I8FnsPKN1QhrypvkgMI7YMizygQnI7szJyDZ4bXRCgqQ0x2Au3os2gQSFfubA35qsgOhkZVOBg4B7gW+QRWC0fRQhAX1PI5OmSQS+2+JVq4CBUfhxKPqy4BpaI7lAiyj8tyQhthxw7VyG8y33csKIcmAW8Dm6FbuuBJ6q5r8NAj7CvcnpE6Tu+DbFNlORN/V2yPZ6NhJTkIo8zDaV/e9KZOJ1Uva0KxJcpjkufwIHIKmCXpCGpK+doNhmEXAi8IXDz3dCvrccoHHZ/6YhE+MWZDJdghQkKjT0tSIh4A6knLYbz7RC5DnwcjX/fV9kERTNAjRa/oXoB8xB1BxNeAc409gjiyXJaIGOQM5zFdo8Ft1twjBwYRW+n4VsrbrxVlQuoBLP54td0d3GjiCLgOYe+J6KfjR8CXCqB767yZGIaqMb93wEeJ6/6+33RT8WoWIE/9lKbVZ3pGOxWKrhPcx/eOuBppXaPRPdQKESJGIa5I3rQcW2K9tWEkdopDuiV6A5Pr/hrnxzChLnoOlzCXC6iz57SXdZPu0AACAASURBVFdkIebW/f8jOxd53dC/fyrvNoaA7xXanY/EAlkslig4FJ0f9FnVtK+dKlSIbMePU2yzss0DdotpFINPX2I7v47GpuFOxbkU9CtQlpB428M5wNe49ztYghy9aO8gvUbVRxjdkd+3aft3xjSKFkuSkoGcvZn+4MZS85nkVQp9eGVfIw/WRMSNRcBkJH5BixDwjLKPYeAiRR+DRCqyE+Z3Pn609jFVZ66Uc49CH4UEW8XSYgkEWj+2aEqO+iUXGos9gY4CYZDph/5Z7iR0JFlDSKCnpm9hkiNF7FT0s2+07VtqDwzOQIJeTfsaiw3+tliqpSs66Tx3xdCnHwVDorEdyLFCsjAQiVbXHMMJQANDv7RjOsJIVHuy0AcRbfL791Td/RFtGqTWsWSiHflYLCr4FXDjdcnQaGw5sFcM15AoDEYCHTXHcjRVyyNHw33KvkSAGx36Es80Ree3rWlOSn1rBCavIXGP8ywWx5yNzg/7CAd9p+BuoZNYrGKkczJyMKKGpzmm3xB7FLbGUVRluyVGHxIJtzNkYrGZOMsW0UpNftZB3xZLwtIYWIv5D+sdAx9SkYp/fj6Yqsp1TkYOQV9H4SuiF4G6Q7nvCHBb7MOQkLipkRGNzcdMhOpyBR9KEaEwi8UCvID5j2ozsWmHV0Ud9LXdo7ECpHiOZSeHoy/v+gm1L7CuVe4zgk0Bq8xA9NP4orFliNKlCSnoFGaaiV3sWyzsjY4wz6VK/tTD3Xz+yrYKKddr+TvHIRK5muP9EdWnfLmRGvqI+TAkJC3xpsJhua1FxIM06I2OomhtFTwtloQmDVFvM/0hTUU3VS4bmK7gV232M8EoaRtkTkS/ytsH/H0RcCH6eeuP6Q1DQpKBaPy7/TvLRfQmNHlCwa98zHckLJa45QbMf0TFwB4u+HaGgm81mdOa58nIGeiXhH6VnfUUtJUhI8CT+sOQsFyFu6V8n3bB52xghYJvn7jgm8USeNoRW/nZ6syNt6zr0Z9wKtq1Lvic6JyNbg2HCBJ7cp4L7T6LFXyJlaHoPA+qszdxng5aHScp+XaMsl8WS+DRqKW+Cmio6FMmognu1kOo3D4k8dX93OBc9CdrbXuV+K7U6BeX4f538yv6W+4jFfxairlglcUSNxyPzg9asx57KySWwKuJ4hXsW6ITLiC4GvOvYyd/JwzHu4XdeuBARd/bobNz8bCiTxZLYKmHjjToV4o+DQZWK/gUqz2heA3JxJX4P9lXtg+puaCMpWqOx93z/6qsGLhJ8RpuVfJJO1DRYgkc/8H8x5IPdFTy5yJ0yn06tTuUriPZuAb/J/1yG4Gd/J1wCPpaD7HY84j2hyl1gNkK/kzB7iBZEphe6OR1a6ze66AjQKRhNyhcTzJyHf5/d19iszmcMBh3g/6itYmIxK8p+6JzNHWhgi8WS+BIQUq0mv5AfsdcQWsX4AcFX7QsjKSiWWLnTvz73r7GTv5OGIB+5UcTW4EIkpnyioIvm4BmCr5YLIHiEnQmygMM/dgDibr1+6FT2UqRfHdL7NyL99/Xt8ReYMgiu4Ab8f/3VtkKkCwTE5oA6xR8ed3QD4slUDRHVramP4wXDf04A/1Kc5pWguQWW2LnAbz7nsYTfR15y04640+wbSxmWpDrPCU/DjLwwWIJFBqldjcgdcWdkEpwSpHWZoXAMIfXmew8jPvfzwRszrYT2qCT/eOFjcP5NnwIGKPgwzzsDpMlATgYnR/lOQ77bwJ8p+RDVbYQkX3VbHMbEiRliY0Q8AzufdcTgSzPriZx2BUpw6v5XYwEvldus/LvupfD690dncyi2x32b7EEggxgLuY/hLE4E83pDSxS6L86+w5ZYID+DkMe0M/BNSc7ISQnX/u7nouu6mSy0AQJ3NX+3WUiqZePK7dd0bYixaiccL9C/zuQYxOLJS65E/MfQSGwm4O+jwY2K/RfnVV1Vvioch/rHV57MtMLGTft77sEONPD60gEsoFp6H4PP/H3Ixg3Y3vCyOI+1vz8usgugmn/38bYr8USCLogK1jTH8C9MfYbQnQC3JIWrSlaOAS8pNzfGvTqmCc63XA3yKwEOM2zq4lv6iI7d5rjPwPIqaY/t7N7RgGNYhyDw5X6tvecJe4YjfmNv4TYoq2zkPKabj0EoskXTgXeV+53KaI5bqmeLsBK3Pvuy60IONaja4pX6iATpua4z0WyiWrCbX2PeUCPGMfiI4V+VxP74sNi8Y0z0fnBHRlDn13QkeOszmJRDKsDfKHc/7wY+k82OqNTmz1aK0SOmCx/JxX4AN3xXgq0jbJ/txU+txDbAnBXJJ7HtN//xtCnxeIbDZEyvaY3/Psx9DkMyFXoszpzohleF/23kRlA4xj9SHTa4k96WSGxLVCTgRDwMrrjvAJndT/crPFRHhcQbWDy1Qp9lgL7xD4MFou3PIv5zb4ZKc9bG26f95tWDctGv8TwZGwqWjlt0Am0cmrbgaGuX2V84EYK5jrMgmDdrvL5PtEdUaYCPyv0NwNbdMoSYPZCZzK+Ioq+MoE3FfqqzrTqhjcCflH27XusSEgrYAHuff/RWj7m8tSJgBtpsHsq+NUK/UV4RZsBdIjCj/5IEKlpf1c7GwaLxV3S0JnopiMr5ppoU/Z3bv2of0U36K4Z8Keyj9+QvIVomuFuvEestg3Y39UrDjZ3oDue+cB+iv5lAq8p+1jRNhCddO9/FfraArR2NAoWi4tolGYtpfYo+/2AtQp9VWfvAvWcD0O1tEb/rDoZ69Dvgr6wjIZtRqrcJRtXoDuOhUj6nBtchBzrufH9R3NcmI1OsOpHBmNgsajTBlHNMr2xn6iln4uQNCw3fsAlmJ33R0NndAIkK9prxC5SEq/koHOW6pblIVu9ycLZSECc1vgV4X52xaHoFCarzt5CAoCr4zSlfmwWiiUwaOTer0RWyFWRCbyq0Ed1thF5MHhBL2TLUNP/xz3y3U9y0I+lWA/8ptzmBkSCOtE5DZ0z7XLzUmSpM+7uIv0EtKyh/68V+liMOzuVFktMDEPnR3NyNe23RCLf3fqxzgG6mw9DTPRFP23xHk+vwFsaAlPQHa9cJMisEfrxJOuAnq6MRDA4Bt2duDCyu+clDdAR6anOVlF92l5ndKSLHzAfBovFOfXQKbbzdTXtD0R/y7yijcS/Ai+DkOAxzeu52dMr8Ib6wHh0xykPyVgpZxdglnIfa0nMOg5D0ZH4rmjXe3oFO/FCNvyCavq+XaH9YqCP+TBYLM7QqL++HehURdtnof+gKTenBT60OQR5SGhe2zWeXoG71ENfT34zVQeaupFZsAbvd5fcZB90Yn0q2m2eXkHVHImOWl91VlXhsDrAHwpt/4izSqkWixE90dkGvLVSu2no5xRXtK3A8XrDYMxx6EYmh4HzPb0Cd6gLjEH3u88HhtTQZ3P00zWX40zJLmj0RmJlNMfmMU+voGa6ov/dV7Qf+Xstg/3RCaI8T28YLJbaCQETML9x5/LXXPamiMiNWz/C+cDuqiOhw1nobkOWAKd4egW6uFFMJp/ohJ1ao68uuJToxGKCSldkN0NzTF4meG+u2cDnuPf8Wc5fj54AXldodyNyjGWxeMKFmN+0Yf4qo9oHdzXdv6b6UqJB4FJ0rzdeterrILEZmmNRgASrRktbdGJbKtoS4rOiY1v0y+y+if/Hb9WRiuxAaqY3VrQdwPAK/TVBslFM231FdxgslqrRumFfrdDmqcgbmhs/uAiiL1CbumAQ0CgaUtG2U/OWd9BIBz5DdwwKgaMc+NIOmbQ1fZlHzelhQaMV+rshnxAf4lVePpMuUmgvjI50ucVSI1pbVs3wfrUdD9yL7hhs5u/bjkEkFXgP3WsvQlLWnNIF0afQ9GkO8VHWuSn6QZGjiS/5aq92JVPQOVKdQ3yNryXO0ApaOR9/ztvihf9DdyxygT08vYLYSAXeRveaS5C3OFO6op+KOhOZYINKQ/S1ESYSXeW8oOFVXJJbQdUWiwqaaSvd8T7iNp4IAS+gOyZrCWZKWgr6VR1LgNMVfeyOfhDcb8hxWtCoh77uwq+I4FK84lVmklZadSJknVgChpZwxa14n3Mbj6QihYk0x2Y50N7Da6iNEPJ9aV5jKZJVoU0f9CWcfwUau+CrU+oAX6F7jbMI5kLHCW5rkzyJTtxJdcJqFosjOqEjXZmHe+f9BSRG/ntF0tGPiJ9HMM6g3Zr8z3HR5z3Rl3D+Cchy0edoSUf/SG4+sKuXF+EBg3BXnVTr/qpOWt1iiRntnGxtq0l3O96pg07xkIo2E3/fykLo1EavaGHgEg9874d+NbmJ+LsISAHeqcIvEwvabpMmLZGFm9/PvZpsNf7JnFsSCK3ylW7Zz0iuciJTD4lr0Bw3P89lH4rSx2gtDFzmof8DgS3K1/AjUqDGa9zYiVlHMONNNMlAxIz8fv7VZLWVV7f4iNsqWI2QqP3eQA+gG/LW1xB520hFtuQLEKGPZUjaz89I5bUNZX/7J8HdxnsVeesr9NsRD8hBpHH7KrY5DjgCuRcHI5kCvZEc+LbIhNQICarLrWCrkdK805Bo8Y0x9PkQcKOO+//jGrwviTwE+BLdkqzfIXXeC6L8+3rId7YX0B/53nIqWF1koZKPpDOW/8Z/Q9LO1iFyvFerXYHsjhyI7DIlA1cBjxBMbYNSpO7Fz8i9MgA5xuqNKFO2RbKxshD/NyPP0tVI+uNC5Pc9GYlNsASczsBdyIPZpFZ3KbII+MGgDTetGLhCacziiWboZ08swzz9aDbwbyRlribuUfY9AtwQ7eC5wEHoxMZUtC+pOZe7GbLbMQGzGhJh9NUOtyCTTLIxFB1xNDdsNvAN5sGLi5BF9hCCJ+Gc1KQCZyDniH7fbF7YepJb8ao1+g9uTZuGSEXXqeT3HS709S9nQ6jK4ehXdPycv4/fEUiEvmbhKE2LN9VJbTogOyt+fw9e2Dxk4R3PqZ1xTyoS9T4f/28Ir+xXEjewKBY6oq9Qp22LkVro6cDNLrR/l/Eo6nEUsnWqeX0jkG3Zw5AtWL+/z5qskNhqLSQq9YEP8P/78MpykYV9tsbgWaKn/FzH7xvAS3uP+FQSc4vdCO62Y0VzI2XqAYXx0+Z4dJTc3B47bSsBTlIYv0QhhGidaFb3DLqtQnahLS6TgZzDJNPNVYq8Qdpzp7/TD3dFlYJoj6iMnDucQnC36N36bZ6tMnKJx5Ek32/zK+JbgbWcdCQo+gwkC24vAlC9shP6+txBt1zk7NNSPYOBbfj/XXlhTxL8heAZmAXgxpN5mXoZj3TDXcnzINpq/lrmPZ7IBu6j6oXbauB6fCq2tC/64iNBtz+pParcIhyMfiBa0OxZgj/5l3MOib9Ld7PWYCU4DdFX8wy6FSGBwPFEJ6JbrE1CMnE842j0U42Cbp9jA0ti5Vj0z6CDYi8RP5N/ORfgnuy133af4jglAynImCXq/VCd3akwdl7QhNiC6Wfj0SLgKJLrTDGM5Ir7ft4Sh/REhDz8/g617Q3i9364lMR86GtWWkwmTiZ5juvK7d8qI+cuTpQwXS/pPZjkevPfCpyoMnLJRytE0Mfv71Db3kXSXeOZq/B/HLWtgOTO+TehN8HW8XDDgizatgvOX7Jdq+bZkeQ6818I9FIZueQjm8QUIPmQYMqrOuEG/B9PbduESIxbYqcJIvvs93folZUggllBZDhm1zYdZUGkOsBUQ6fiyUaTOPXC/WAE/n+H2vYpkoqTSPwL/8dV2+ZjtTmckobUYfD7O/TKcglm0ba7ML+2ySjGrCXTTfEoifOW5wdBr9ToxEbxdxncROFO/B9fbbMV58wYjrlOf7zYWIIXz3M/Otc2EYVqnnuR+OlDEeSG/4fpYCU5zYgPJcBYbBKQqTlIAeQp/B9nTSsF9lMdoeRjALAC/79LL+xKpTHT4hL0rm0cMeyIVU5rSkUq8O3p+FKqIDsjgyO79mBoh070btGC9o1yaJRZl0gkQl5BAYtyN/HzqhV8v3ghX8+fS0FJiWb3VbECOAEpGmNxznvAqZoNpmdkMPCgw9lryFC6992TVu07kdUoh9S0NLbm5bJm+VIWzJ7J9PE/MOHrkWzdnKfZPYikaFekfG2i8iXKuvmtmtXjyP1bMmTP5uzWqSFtW9Qnq34aqSkhcrcUsXR1PrPm5zFm6lpGjltB7pYize5BjgJ6kRxlud2iBXKcN8jNTlJSU2kzaHfaDupJ854dyGm/KxlZ9UjNSKdwSz7b1uayccEKVk6bw6Ixv7Btba62C3mIQNI67YYd0gUpbqTFGCR7b0dtf1h5AXAu8IqWF7tmZXH7kIMY3qcfddOjO07NKyjglV+m8Z9JP7Jm21YtVyoyEdENX+NG40lEX+AXlHLj62dl84+rbuDE8y8lq1FOVJ8pKihg9Cfv88ZjD7J0/lwNN8q5m/hIHXLC4Yhcqgp7dM/h3//szVFDWpGaEt2tUFhUyojv/p+9sw6zstr++OdMMnR3g5SAhCAqCGKiYhcWdl37XjsuXrvzXvVeuzEQA0RFREJRQULpLmmYYZiB6d8fa+bHMEyc8+71xjlnf55nP/eqc/Ze735j11rftZZHXpvPn8tUJ3BXI+FUFuekAC/igohOUrUUel14HL1HHk/1BuEdVxcVFLJ6+h/M/O+XrJ+l+o6/jKy8g4L2pPxbRJdlT2V/VPqNTQQWoKB8Vy0pibuOOJKbBgykRoqzo9Rdubn884fveH7GdAqLikxNKuF/wHWIWI3FjI+QmGIjQqEQZ15xHZfddi91GzgLaS3Iz+ejV57n5QfvJWdPlZPecNiJOAtlaFQWMH4GBphWkpaayOM39+Zv53Ym5HAKWFhYxMsfL+X2Z2ezK1tl128lsrLL06gszrkGkb1W8Y/qeuogDrvpLGo2CW9yXx7Lvv2NHx54i+ytKq9lDtAR2Q0OAl2Q3XdN8bnxyE53hbtipV/dc5GYZyOa1qzFp+dewICWOs6WYxfO56LPPiIrV2XMPh34TKOiOKcr8CeGzjRp1Wvwz5ffYsjw01WMWjh7JreedypbN/6lUd1dBDPjnwlDgB9MK2nSoBpfvjCEfgfqBM7MW5LOKTdOZtVfKqcuFwNvaVQU57QAVmE4AUhMTuLIf17MgWcMVjFq18btfHnds2yev1KjuueAmzQqUmIYEn2k6YD8BbJQK3cALT0BmIKhI02PJk358ryLaVWnjkk1+zFn4waGv/cmf2XuNK3qWyS3ucWMV4HLTCpo2LQ5T3/0FZ169FIySdi68S9uOWc4S+bNNq1qDdAOUdGLFT7GMG1uvdopTHnjGLp3VA07ZsuOHE6+YTIz5m01rWo+okhpMWMUhsdgqbVrMPw/N9Oib2cdi4rJ35PLN7e9xLLvZppWlQ40J4yzcg85DRiNbgjyGMRXa79ttpIJQHtgGQbnuR3qN2DKpVfRtGYtp1VUyuwNf3HE6y+TnWe0u1eEOFws17EqLklG/Cccq0/VqluPl8f/SIeu7nynt23eyKVDD2HT+rWmVR2LaETEAg2A9RhmEvvi+SEMH9xCx6IybE3Pof95E1i5fpdpVT2QHSqLMxKRCXBzpxUkVUvh9NfvoFnvA/SsKkVBbj6fXvwwG2YvNa3qQuBdBZM0OQt4H93w9I+QLKEFpf9lyRbuBRgM/tWSkvj47PNdG/wBejdrzhunnkXIzOcshMywLM4ZgsHgHwqFuO8/b7g2+AM0aNyUJ94fS7W06qZVxZLe/OkYDv6XnNLBtcEfoGHdVL54fjC1ahgvfqyctxkDMBj8AYbcc5Frgz9AYkoSJ71wI7WaGh9DnathjzIfAyMpM1gbcjZyNLaPrHnJBMAo3/1tAwdzUNNmJlWExZkH9uCa/sb+S8M1bIljjD6ux54xgkHDTtaypUI69ezNDQ8+YVrNMKIvA2BFGL3jzRqm8cxtqtHB5dK9Y10euv4g02rsBMCMk0x+3G5wL7Uz/8qo3qAORz1gdBIJMBRIUzBHm/eBS9E9gjwf+HfpfxFCvA634XC7oUnNmiy54VZqOvT2j5SMPXvo9PyTbM127DCUD9xHbJ3tesktOExDmZySwuhfF9K8TTtlk8qnsLCQi4/sZ+oP8DiiOR/t3IOBStjDN/TizssOVDSnYnLzCul22pcsX2t0FPAvJJGZJXKuQvxfIiYhMZGLxj9Ondbepav/7NJHWfPzfJMqXgJWK5mjzRmIOJ8m1yBhkISAE4GvnNb0wgknc23/Q5XsCo9Hpv7APd9/62mbFnPOvuoGbnn0WU/b/HHcWG6/QCfKIF6pWT2JNd+cRr3a3qkjfzhhNSNun+ZZexYdupx8OMc9drWnbW5esIoPzrwP9MLFY51cJCPk4gTA8X5bzZQURvZyf1uwLJf36U9yYrRnaI0/zrz8Ws/bHHT8cBo3b+l5u7HEeSe09XTwBzjzmNY0aRDrisyxR4+zh3reZuNubWl2UAfP241iUiiO8EhAhDMcMeyALo6FfkxoVKMGR7Xv6Hm7Fud06tGL1h2NNaYiJiExkaNONdYrimtOHuL9BCopMcRpQ1t53q7FOTUa16N5H/cc/yrjgOMP8aXdKOYcoF0CBsp/Q9u11zMnQo62E4Coou8R3q8MSug35Cjf2o520lITGdq/qS9tH3WIP+1anNHqkK44loU0brubL+1GMQnASQk4dOgC6OmB539F9G5mFKVi8ZgDuvf0re1OPXv71na0c0TfxqSl+nPcdlBn57KxFu9p2FlH/dUJ9Tu2ICHJHgtHyHEJGHgGt6vrOBzcmA71dGRILd7gled/eTRs0kxDEyAu8XMQbtu8hl8LSosDards5FvbCUmJ1Gpmx4QI6ZAAOFbvqZ1qpCtiRL20IIZuWiqiRi3NHBeRU7O2rjx1vHBgB//6LTkpgerVNMXQLG6SWtPfb3KKz+1HIU2NkrlYLFGDXUo6omt7O3GyWGKVBCDT6Y935lSYZdB10nXSvlo8Iss8kZNZ+ztjMbNvbJOXX0j2HpU0wRYPyNnpr+5S7i47JkTIBqMJwIod/gmkLd8eC+Js8cP6VSt8a3v75k3sdq4cGdes2eBfv61cv8tqu0QR6Ws3+9Z2YX4BmRu2+dZ+lLI8Adji9NfzNm1QtCUy5ujkfLd4xLI/5/nW9tI/5/rWdrTz+8IdvrU9d3G6b21bImfLglW+tb192XoK8zVz58QF3yQAi53+etJK/7LqTlyxzLe2LZEzc8qkuGw72hk/db1vbX//y0bf2rZEzrpfF1JU4E+KlTUzjHIBxCOFwFcJwBKnNXy9dDG7cnP1TAqT7buz+d5OAKKKpX/OZfXSRZ63W1RUxKTPP/G83VhhzuId/LnM+5V4fkERY39Y63m7Fufs3pHJ6ul/+NL20q9/8aXdKOYDYFUC4Hh/NCs3l7fmzNIzKUxe+30mOfnWOSja+OTVlzxv8+eJX/vqfxALvDtupedtjp20lk3b9njersWM2W9/43mbm+evZOM8/3ajo5BcJFumTjrgxdf/g1oeaQJk5uTQ6fkn2ZzlOFVoPvA0YN2LnHE54EhxIzklhQ9/WUCLtt5ISBcWFnLREX1YNt/I/+BlIBZCCP6GQ9GvWjWSWfT5cJo38ibOurCwiD7nfs3cxUb+B88BdgbhjBGAY1m/0169jdaH91A0p3LGXPIoa82OAN4BgupUNhzQ1jm+CvgvyKC/E5gJDHBS06Zdu3jqp6mMOvJoPfMqYdTkiSaDP8BPwO1K5sQjTYGRTn6Yl5vLyw/cwwOvva9sUvl8Pfod08F/IzJw+nOwqUtn4FQnP8zMyuOOZ2fz9kOHKZtUPv/9dJnp4L8EuEnJnHikCLjD6Y+nPvkh5w04kFCi+zIzq6fOMx38s5EBMYgxhCOBW5XrfJniwR9EBwBgvEmNj0//kelrVptUERZfLl7I8zOmG1ejYUscY/SsTPxsNN98/J6WLRWybsUynrv776bVjCc2Bn+AcSY/fnfcSsZPdX+RNG9JOrc+/btpNUbXajH7Rm5dtIZpT36oZUuFZG/N4Pv7Xjet5nuCOfifD7zG3jFag/eA60r/i5LK38VgSzwnP58zR7/Lmgz3nIXmb97EhWNGU2gWGFwIjFEyKV4Zh+waOaKoqIiHrr+CBbN+VTRpX7Iyd/KPEaew01yn4gMNewLCGMCxcldREZx7+zTmmK3MK2XLjhxOuXEyu7KN/XvcH31im18Ao/CP39/8mgVjpiiZsz8Fufl8df2zZG40jv0P4rNyNvAWoJnd6CNkR2GfWMmSCcBKYKpJ7ZuzdnHSe2+6MgmYv3kTw99/k0xz5cGJgPUIMyMLGG1SQW7OHm4971SWzJutZNJeMtN3cNv5p7FqyULTqtYAsRQ/uB34wqSCzKw8TvzbDyxZra/quHn7HoZfP5lVfxkLD/0JuDe7jA8KgFdNK5l0/xss+XqGgjn7kr8nl6///m82zDGOBNtB8BaEpyMrdc3Bfwyyo7CfUELpRnYDZ5q0siUriw//nMuhrdrQqk5dk6r+n/FLFnHSe2+yOUtFkexWwPtYtNhjPXAl4kTqiN1Zu5jw0Xu07tiJdl10fFxWL13MdacezSKdyJRHMZwUB5DNwMUmFWRm5/POlys5sGNdOrfVSfA0Z/EOhl7xPQuWq/ha3g/8plFRnLMUuAGDLeiigkKWfTsTiopo2a+LSj6OzI3bGHvZ46z7ZYFxXch5eJCOi04EPgaSFev8AjgHyCvvP5aeACwq/sOGJq1l5eby/h9zSEpIoH+LViQmOHt+snJzuXfSt9w04Sv26IX87QS+oZyZkCUiNgCHAAeYVJKfl8ekzz8hMz2dnoccRorDSJLCwkK+fOc17rn0XLZsUBGuyUBmzP4lu3CH1cBxQCuTSnJyC/lwwioys/Lp170BaanOFisFhUW8+MESzr9zOlt3qHT1BmSCY2OEzbkAGIbCGfT63xax6Y8VNO/TidTaztNyL/l6BuOuf570NZtMTQKJ19euNgAAIABJREFUEBmBgRS+Ml2BCYBm3vLxyKK+QrGeslOykcCbWq13qN+A2w4fzIgeB1EjJSWs36Tv2cNbc2bxxPQf2ZDpyr2ZjnSKlRkzYwASUaGSZq9eo8acd+3NnDLyCmrXqx/Wb/Jyc5kybixvPv2Ittzv/cAozQoDxHHIh0aFurVSuPXirlxzdifq1Q7vHd+TU8BH367m0dcXsHCFaoTlzcCzmhXGISnAi8AV2hUnVUuh+1lD6H3R8dRu2Sis3xQVFLJq6lx+e+ULjS3/0vybMg5xPjMBeTe1+BY4hSpCYct+vBOAGUA/RUOomZLCCZ26MLRdBw5q2ox2detTt1o1ipCsfsu3b2f2hvVMXLGMb5Yt0VzxV8Q65KzFbhWa8S6yUlYjOSWFQ448ln5DjqJLr760bN+R2nXqkZiURGZGOpvWrWHZgj+YNXUy0yZ8ScZ29QQgfwGdEF+HWGU8srpTIykxxMDejTlpcAsO7dmQ9i1rUrdWComJITJ25bFq/S7mLU1n0q8b+erH9WTsKndH0oQlQA8qWe1YqqQp8CngbrxnKESLPp1oPbAHzXp1pF7bZlSrW5Ok1GRyMrPJ/Gsb25avZ92vC1n5w2yytqj7le1AwmId58FRphMGkvzlMAk4CYfRDX2RLbSiGC+7gQuddJDl/+mK//dRu/wEVNPspADyAv73s3a5TLWH4o/+yMLI7/voRQnSyh/gWvSu7UeghqlBTykaFPTyNA5VEOOcNGAy/t8/N8o4ZCs0FhmF//3rRlkLtNPrprhiJLIg8vseelEmoRtbr8HD6FzbdByqfZYlBYkF9ftmeVW+w6G8bZySgmwj+33f3Cxj0fXGDQJ34X+/ulmWAc3Veiv2SQKewf/75lXZBrRU6Tld7sf82mYgsv5qtEU6zO+b5lVZjpwhWionEQlV8ft+eVE+JnZ2h27F//70oszHMJIpTmiA6KL4fb+8KnnAsSo9p8+FmF3bTEAn7r4MhyHOUH7fPK9KJnCGSs/FJiEkSsTv++Rl+QBdUQ4/uBH/+9HLMguoo9JzsUlPRBDN7/vkZblWpefcoREyQXFyXbOB8MKmHHIi4lnr9w30qhQCDxC8c6Ig8CL+3x8/yttE7/NwLfJM+92HXpdpKDhDxSBnAbvw//54We5W6Tl3eZnIr2seHu12nUh87QQUIQpKqmcqUc4j+H9P/CyvoaR54CGXE5+Df0n5DvAmT3nwSQAeIv6eh3s0Os8D6iPqi+Fe13ygsZcGHkZ8+QQUAQuRGM14J9adx8ItLxE9k4CRiOKl333md4lFZ85IqYNk+PP7XnhZcoFLNTrPQ9oj5/lVXdvXyLGB57QlvqIDihDRiBMU+i5auR7/70GQyvMEfxJwHvGh5RFueY/oPcIxpTMi8+73PfCy/AUcqdF5PpCC+OysZf/rWogIr/n6/UlBdALiaXVRANxJ8D/82lxC/G0ZhlOeMulUlzkL5w5FsVz+S/y9vycC6fjf916WL/FpdaxMCOiN5Oc5EzjQX3P252BEStfvG+5lGU38OBadTeysIv9yoc5HnHeta5yGvsOuG33nVwnyxE2TEHJsF0+LtHXIN8viIQlI9q3F+P8AeFXmIEchsYx25Echkj74aLxVD1yBSMQmA3e4UP/9DvvXDU5CshdqXt+niA7CccDPynVXVhYj35WBSAZPzbpHOeveqKEG8BHe3Su/yzbEy19FAc/ijETgXCR/ejxsGW8hes+YquJIIBvd/vp7mTYGIVEWboWX/oJ4wJd1/rrPhbaCEGJ0HJL1S/O6vmB/OeRhiAKkG0cMhYia2Qj21V3w4nmMFdoBc3HnnQpaWYhkf7SRWgGjPXAvsmIw+VDkIx+ESQZ1uFnygBuU+iwoDEDEkDT7aVQl7dVHBupvMR9U/kCeu45VXOMDytdXBNxWRZtuchT6A+R4Kg+fawhcA0zB/L7NAm6nch3/E9Hd3SgErqqkvWhkKLAV9753JmU+8A3m+QaWAk8iO0Px5s/hCm53Ym1gMCKx2wXxSG2IyBbWRGb6O5EP2CrE8/FP4HdkFbcdCWFZCDRz2VanvAlcjXygopmDgB+Aeop1Pk34q620Yhv6FpeOxbaUlGTkedhR/L8bkcHjNyR0ZkcEdj2G/qDtRy76wchgXV2xzonAcKrII16KNKAXkkL8YKANMrGrV/y/ici9KSlrkfs2C3nPw71vZ6GrylgIXIRECEQ7NyIDYxBlqwuAQ5D7nYZkHeyDvOttgdbIeFAD2XFKRyYKG4GViET7b8iCcp23pluCwjn4P4utahXT2rWrd58DgA3o9skbBHuW/hi611sI/M1D+w9F/3x8KsE+S70IXce2fGRiEa2kIgJVfn//KiteT4otMcpX+P8wV1Y2IyuyaKMVsvui2RcfE3z9/BD60saFyNa42/RBdkE0bZ8O1PLAdlP+hu515yC+DdFGc+SI1O/vXmVlAzYng0WJDuicdabjnqPiHsTrPFpojqRQ1eyDsQRzK7I8QsAr6F5/AeLB7hZ9kW1zTZt/JjoG/xK0lSmzkHPlaOEw3A3P1Hq+onl3xRJA7sH8ocxDPiBuCmS8wv4e1EGjIeJvoXndE4FqXl6EAm5NAi5wwdae6Dt6uZ5NzCUeRrcfMhAfhqBzIebOdBWVQkTpcpVCXRNcun5LHJMCLMD84ZyKOCRq1FVZG03c6QZjaqMv4vQzwT4/rowE4B10+yMfkeTVogviGKVp4xwkL3y08hS6/bGFACquFZMEPIp736udiJDU4wp1ZSPRYBaLOkegs4V/GTIQfq5QV0VlLeIdHSSqAz+iP5BoRg/4QSLiEa7ZL/mIA6spndDf8vUslaiLhID/odsvm5DFQZBoCHyPe9+ppcjEpzs62hx3utMNFovwFuYP6TZEMzqExKq75RewG8nMFgRSkLAxzetbTHB3OiIlEfgQ3f7JBU42sKkjsF7ZpkVAUwObgoQb92wNEs4YBHoh4XBufJuKkMxy9ZDv4DSF+hZhUzBbXKYBsl1n+rC+UarOcxBnILdetFfw1zkuEX2J0GWII2EskYz+rlAOItUbKW3Q//gvITbvmXaU0BL8nySdi7vfpOfYG61zhUJ9hcSuQqolYGg9sENL1XkQ7s62J+DPVnkC+tvb66hcvS2aSUE/f/oeIksr3QrJZaBpwyqCs7LVJg0RstLsr3n44yCZiJz3u7kreVGp9rQWVK/rdoPFUjFaW1aL2XfLqgHun7d1V+2JygkBLylfw2agm4fX4AcpwDh0+y2b8FZILdEPz1xN7E7YSqiBzjehdJmBtyGStZE8DG59f9ayf7SD5pGqxeIZWk4rd5Wp122P20zgdL1uqBRtxbt0RIgmHkhDPxdFFpULRjVBPzplLfHjlV0XkRjW7L9peJMGvDMie+7Wd2cK+/vraDlVX6rXDRZL+GgMcNmI0FBZLkA/0UpJKUQmGQk63VAuo5RtjjbBFA2qo5/CeBeSEbEsjZHEKZptbURCCOOJRuhPor7BXee2E3Ffm6RsdkzNsOogy35bYpjq6JyVViRccSjuqm59hTtymTco25mDpJ2NR2ogqyfN/kxn3xDRhkhGQ802NhH7RzUV0RJ9H4ox6DvyhpBsiJo5DkqXytRJ71WoPw/xnbJYfGMYOi9LRdKVzRGhGzde0CIkdEZzlXYxug5EuUiGuHimDpKhUvO+70DOY+siGQ01696Mt74mQaQD+pP3t9DbtasJfKpsX+nyF5Liuzw6orO7+bB5N1gs5ozB/GFejzjhlEc1JGzQrZd1G3CseTdwHvoZ0zTEbGKBeuifL29BhJQ069yKyAZbZBKkLZ/8vIJdHdGX4i5dfqbycM8JCm2sQDcVtcXimFaIc53pQ/1cFe1ciY7jYXklH9kOdHqedrKybYVIuKVlL/WQ9M9ufbhNSzrRoWnvJb3Qz574kIE9x7lgT+nyLuLAWhHnKrUT77uCloBxC+YPdQFwSBXtDELOV916gT8g8pn1UegnCflHhDbEC41wd/XmtGQA/V287mjmUHQWCKWLE8nbK5Fzczfufx6ygKiM2oiGh2lbHzu4dovFVRLR2aKdSdX57Fuhn1CndJkNtA3zut34uN0dZtvxihse+yZlFxLSZamYo9GfJN8SZtvVgDeV2y5dtiKLgKp4UaGtnYiTpcUSOPqhcwZ+fRhtVQPeVmirorKFfZUKy+Mg9LcTnwnj2i3QAn3BHiclCxji7qXGDKeguwIvBC6vos2WwK+KbZYtcwhP5Olg5JjRtL0bw2jLYvENDeW7DOQDXxUlYTwaL1Z5pbJtvU7op4j9dxjXbNlLK2A57n3cqyrZVD1JtOzLBXjnKDsQ/Xe0dBlNeCJFiej4rszF35wmFkuV1EYng9roCNo8HgnrcutFfxvZcSihg9I1li7v4K4wUazSGndzSFRUchABGUvkXIp+qGzZe3Elco/cuPeFiNBXuA7DNym0WUDFYYUWS6A4H50XLZIPbEfcPReeDjRDdia0RU4+w87sTeiIjnNVuCUH64Vtyo3o3pNs5CgmFfifct2lSwZylBEuzdBRGXwxgjYtFt/5DvOHfjmVh9SUpQ76meRKl3VIAiPNOr9GZEEtZnQGNuDevS8puUQ2AFgq5l/o3puduOscvAA5+ouEjxXa/Qt3FEstFtfoiI7X74MRtuu2vKdmmY43iU7iBbcnAflIHLdFjyfw/z0Mp4xDVCMj4Xiltu0zZ4lKRmH+8OfgTFN9OLJd5/eHo6Iym8g/KJaq6YFOfvWyJR852rLoEkKS5fj9PlZUnCYOS0PHQfWbCNu1WAJDKjpb5pNxptDXE3+9xCsq84AGDq7HUjUhdLZdy5bF2G1Yt0hEBLj8fi/LlkzgDIfX9LBC+7uRnVSLJWoZjI7H70iH7dcHvlVoX6ssRRyDLPqEkFBKt+7dT0Atz64mvkjEnYmb07IM2U1ywoHoRCDc67B9iyVQvIv5y7AVSdvqhERkG8/vj8pawlcYtETO47h/D6chmeQs+qQgTrF+v6c/IpLTTggBkxRsWMy+occWS9TSBB3FvP8Z2jECUW7z46OyCd20w5Z9eQTv7uVUrPOmW1QHpuDf4P8KkGxg/6VKdliBKUtMcTXmL0Uh5rKrvYFVCrZEUnYUt2txhwfxfqD4FrtCc4s6SE4QL+/nHuBiQ7sbAJsVbHnL0A6LJXAkIGeopi/Hn5jN0EGOEn5QsCWckoHkSLC4wyi8H/xLygTE0dWiT0O8S/i0Dp1Mjq8r2LINSXZlscQcB6GTDKSqtJvhkAL8V8GWyko2Nkucm9yFf4N/SRmL+YTUUj5uqG6WLVORI0pTBqHj7HyFgi0WS2B5CvOXJAtor2SP25rhTmKILVVzM/4P/iXlU6yUsxsMw90cH6+go8KZhCTqMbXnF+y3whLj1ATWYP6yfKlok9tqZB9hncY00daR1ygfINEmFnNCyO6Om2qe03GmLVIedyrYk4vzsEOLJao4DZ2X+HQFW05FN0d5RWUu4eUNt1TO5ehmktMso7GTAFNq4J0ewLMK9rYBdinY8piCLRZL1PA55i+NaZKMYxDvX68GiK3A0Qb2xjuXEPwcD29gt3Gd0grvvf9NxXY0ko+txmpLWOKM1ojUpunL87TD9g9DZ+YeaclHx4kx3hiJ/uD/GhK3rV3vq+htL8cLRyBaGV6/j0XArQ5tPkup/ZMdtm+xRDW3oTOgRhpj3x9JHerHx6akvEdkqY7jmbPQP6Z5k70r9UvRP1Z4HjsJCJcrkTNwv97FQuCqCG2uhYQPmrb9WYTtWiwxQxKSFc/0JfqV8M9eeyBb8X59bEqX35GdEEvFnIH+4F/eWf316E8CntHrhpgkFdmF8fs9LEJ2gc6LwPZnFdrMwkqDW+Kc/uhswV4TRlsdEb8Bvz82pctmJGGSZX9ORX9l+AkVh+zdpNxWERL2atmf5sAM/H//Spd84MwwbO+JzqT072H3lsUSw2gI8mQgH5WKaAWsVGjHjZKDeLdb9nI8+g6aY6hatOcW5TaLELVCy14OI3gT8dLv4vGV2J4A/KzQzjysgJTFAkjKXg0HoPcqqL8xsFChfreLljBJtHMMkgtds2+/JnzZ3vuU2y4C7om8G2KSC9G/t9olC1H2K4/rFOovAA6NuOcslhjmQnRe3mPK1NsA+EOp7pLipsPSZJynIo0FjkIklDX7dDyRa/Y/oGxDEeL0Gq8kA//GvfdG+50sL4FXMyBdoe6XnXWhxRLbfI/5y7WUvVnaaiMOgpofhhnIUYOGjkFFZS3xmUDocHRCQ0uX73AebfGwsi1FxOckoCE673Zl7/yBwH+U690CdCt1HR8q1LkRqOe0Iy2WWKYTOtuDo5CP/mSFukqXuchxBYgX+aO4p0q3G4l9jxcORT80cyrmAiuPKdtUCPzN0KZoohfu+t58zd4BNYR+VME6JO/IsUr1nW/QlxZLzPMvzF+yPcAUhXpKl4WUvzU/AjkzdOPjVogMQLEuL3sI4sSp2Xcagz/IoPKism2FxEfWt/PQP84p3YePsv+7kYQ4e2q2tQJYrlDPREe9aLHEEanAItz5aDgtqxHN74o4CHdXOROI3W3DXkgOdM3++hk5/tEihP72ciEigBOLeLE7dlEl7acA41xq22nZA3QJvwstlvhFa7tNo6wnvNTDDXD/nLN7OJ0XRRyEvijTbPYe02gSQqI0NG0tAC5wwVY/qQ18gXvvwVrg4DDscOMI0KSMCsNmi8VSzAf4/9KWdQKqiiRk5eOWPZnoZEAMAl0QhyjN/pmDTMTcIgF4R9nmfCJToAsynXE33HYK0CQCe9xwAnZSSjsmWyyWMGiKhOL49dKmA30d2n4B7p99RnPGuU7oC8EsJLLBwSmJiN6Epu35wDke2O4mJ6ITIldReQVnwjl10ZEbNyk2A6hlP2yikKr5G+KA5TVZyDHETwZ1HAp8isQOu8FnSJRApmKdSUA7xN+hFZJqORUZ9HaUKhuBBYgcaqR0QrZmNftlITAEkVX2giQkn4DmbkwuIkP7pYPfhoAOyH2rV6okFdebAWxA/FRWIGfoWoQQ4aR/4s43LQe4FnjdoI5myO5BRxWLIuN9rOe/xeKIBLzfwtuN3oy9Be7qnf+BfPidkgQcCTyBeM1HEs2wG5kgPY+sXmuE0V4H5AxXsw8W494kqzJS0D/r3gMMC6PtROQZfRjROYhkpywPOSp5BUm0VMtpBxT/9jOF666orAcGGNhXmjbAGhdtLa/sQHYyLRaLQ/ogW6RevLC56Ofmrga84aLN25Ddikg4BBkANI9YdiFb4ydR/lZtW2CV8rUvA1pGeO2apCIqg5rXVNkEdADwHLKa12pvDzAWGE7FSZLKoyPwp/K1ly4/U3luDyd0Qt/vpLISToIyi8VSBRqpN6sqBUhMv1vcgH5a25KST9WZxULAKcBvLtlQuqxC4txLJgKtkK1nzTZWEoxUytWQVbjmtWUhRxolHA/8otxGeWU1cuxWlcPaccB2F+14jcilm8OlJ/php+WVGUS3n47FEhhqIYpcbr2sXgmzDEUiC9y6jncpX/b2cGCmi+1WVFYiyVOWKNe7BvFVCArVgR/QvcZMZDD+SbnecMo65Ny6vDP9W3FvRy4PuD6M/jalP/qqk2Wvo5cH12GxxA1n4N4Le7OH19EOOYN161pmIituECe+N3FPkMWPsh5/nLmqogbiR+F3/2iWqcABxdeXhn70Q+myhX13PdxmCO5F6jzt3WVYLPHDt+i/rPd5egVCDcSL3K2P6UZk9bjaxTb8KBsItppaLXRyxQep7EKOl2a52MZsxEfEa05Aogy0n1ENCWqLxVIKN87unvX0CvYlBNyOdw6O0V42Ex1KiHXw5rw+VsqHhBdB4hanoeubUwhc6ukVWCwxTldkAND88LxNMLQY3BZQiYWyFZkARgv1gd/xv9+CXPKBOwjGO3g1uteWh0wsLBaLIa1xZyv7F4LjpdsRmI//H+UglnTC034PGvVwd9s8mksGEpESFJ5C/xpzkCMGi8XikBbopOGsqAQpG5vboirRWDIQj+1opRHuxspHY1mM7OgFhR6I/ocb15oNHOHdpVgssUND3F8Vbwcae3VBYVDiF1CA/x9qv8suYuPj2RiRTfa7P4NQxiHa/EEhAffDLDOIzh0si8U36uBd3PrbHl1TJAxHPhx+f7D9KmWFcKKdFohqod/96lcJagKra/Dm+rcAB3p0TRZLVFMdSdzh5QfqKE+uLDJ64O7xR1BLNiKYFGu0Ij7vZyai4RE0muCummHZsglJl2yxWCogBfga7z9SSwhmvu76uKN9ENSSg0RFxCqtEXVEv/vZq7IMmcgGETdFjSoqa/BH78ASQIIQ/hIkkpH0ucN9av+fwL98arsykpBsfTd51WDtevXp3LM3rdofQI06dUhMSGR3dhZ/rV7J0j/nsnHtareaHockE4pl7kSy+KnTvmVNDuxQhzbNa1IjLZHEhAR2ZeexfO0u5izewfrN2W40WxETkSyR271sNEyOQuzzgyWIb8smn9q3BAQ7AdhLIqJjf66PNuxBYs2X+mhDZVyEZPBzZaeiZu06nDBiJMefdR5devUlITGxwr9dv2oF34/9iM/fepX1q1ZomlEEDEQcs2KR+sjzVV+rws5ta3PVmQdw+tGtaNOscj2dRSt3Mvqb1bz22TLWbnR1MvA0e0WugkYqMA/JDOgX85A03EGcHFk8wk4AhBDwX+Byvw1BsrpFmlrXS/oBY1BMgZuUnMxpF1/FZbffR90GDSP6bV5uLp+98TKvP/Eg6du2apk0DRikVVnAeBxJpmNMkwbVeOym3lx4UjsSEiL7lOTmFfLG58u554W5bE3P0TCnhD1IaO07mpUq809glN9GIDokxyA+EpY4xE4AhGfwcHs7DM4DPvDbiEpohziTGT8/Hbp25+G3PqbNAWa+Sbt2ZvDITVfx/WcfmZpUwhFIIppYoh4iaFXLtKKjBzTlvUcOp3F9s82grek5XHDndL75aYOpSSVcgJytB5VOwFyC4+8zGREL2u2zHRYfqHiPNX74F7JVGCQOR/KR7/HbkAo4tbgYcdgxJ/DMx+No1KyFsUEpqdUYevIZJCQkMHv6j8b1AQ0QjfhY4iYUlOHOOa4Nnz59BLVrJBsbVL1aEucOa0v6zlx+/XObcX1Iro4vNSpyiQ/xd+u/LG2B3sAniPaHJY6I9wnArcCDivXtBi4BjkbO+ZxSE6gNjNcwygVexvAI4OjTz+GRtz4mtVqakkkQCoXoc/hgGjZpxrRvvjKtrgPwP0QMKBYIAa8jExvHDO3flDHPHEFykl44fUJCiGEDm5OUmMAPvxn7pXUG/o1EcwSN89A5frkc8RXSEjQ6AFFGHIP4wFjihHieAFyNZOLTOgbJRWKNxyBx5MMM6+sLTEByzweJ7sBDJhV06dWXJ94fS3JKipJJ+9efmZHO/Jm/mFSTgHhJx4oz4OEYDj71aqfw3StDqVvLnfs2qE9jlq7J5I+l6SbVpCBhjr/rWKVGXWRnwjRN72jgbiRa5SwUjnOK6YaEiH6hVJ8lCgiaKpZXXICsErQG/wLgfPau2P+NJGExIQFZaScZ1qONUYx83QYNefy9z1RX/uVx44NP0m+wsbZSkJLFmGJ8LS/c0Y8Wjatr2FIuoRC8OmoAfboaBygEUcfhEUT4x4QM4Obi/78MceBT83wFLgaeV6zPEnDicQJwGvAGetdehGzJfVLq3xUgOwymZ2q9gesN69DmeJMfX3bbvTRurhZAUCEJiYnc8ewrphONQ1EMl/MZo7P/I/o25vwT2yqZUjFpqYm8OmoAiRFGFZThKGQnICgcgk7Sr3uA0t6S85H3MUOh7hKuwyWNCEvwiLcJwHGId73mqvoG4M1y/v1M4CWF+u9HMeTOkJrIVrIjWrTrwKkXX6VoThXttW3P6ZdebVJFIuJU5reanUYx0oG/9eJuJj+PiN5d6nH+ie1MqjB6TpVJQnbyTL+1v1H+92QWIlylKapwZ3GxxDjxNAEYhJzPmzjnleUu4MVK/nvZGbsTagHPGdahRQ9ELdERl/7jbtfO/SvivOtuqVRQyFI1XdvX4cRB5pEakXD7pcYTjt4adihwA9DLsI6qdhSnITubmo6PDyO7AZYYJl4mAAcDXyFJfrR4pLhURukzOxNOJxjytI5XkWk1ajL01LM0bQmLRs1a0H/IMZ63G0uMHN6ekMeKId3a16F/d6OAhSBkvmuF7OCZ8iJVOzV+i6iYaiofPo/4BVhilHiYAHRHvOlrK9b5IrL6D4fRwDcKbb6A7gTGCd2d/rDvoCNJq165TKxbDDw+iD5h0cNJg71d/ZcwfLDRyVcQJgDPYe71vx64L8y/HYsM2IWGbZYQAl5Fog0sMUisTwA6IjNjo6VEGd5EtvUi4W+YK221JfwPgVs4/iL3OnSgph0RcdAA/9qOdtq1kOQ+fjCoT2OTn/vtNzMc2ZY35SZgZwR//x5wLXrx/CU5UowFpCzBI5YnAK2QbFvNFOv8GPH4j/TlWo6OZ+0tGKzCFXC8i9K2UxdNOyKiTcfOJCTE8qPuHoMPNhqEjehmNvHwZ9Yi1EB27EwZz77RReHyCkr5HopJKbZjiGKdlgAQq1/FRsi2exvFOr8DLsR5aN/jwEJDG5IRT2C/cjg4Vh6r37ipph0RkVKtGjXraImmxRcHdvCv3xrVSyUp0fGjXhP/NDTuw/zbsxuzEOCn0E0tnob4UdnttBgiFicA9ZGVf1fFOicjQiomXra56GzNDQQuNawjEhKBPogzY0enlaSmuSv8UxV++R9EO93a+7mQllwBBtyPrFq9fPh6oOP4+wBgmuf6n0iiMy1qAJ8jMsSWGCDWJgC1gK/RfUB/AU5GJ1vWZOBthXoeQ3Y53CAJES65FZnxb0NijZ9Gssk5Ime3v8nGdmdn+dp+tNKqqb9+p7tzjLS07gJ+AHYAU5BB9RhkIHODELL63Yz1AAAgAElEQVRDZ5olaQGygtfg70hOCy3qI35VQUpoZHFI0GRmTUhDdKz7K9Y5D9H018yXfSviIGSiMNcAeAKdEJ0UoB8wGEmBezjmnsv7sX2LcZIXx+zO2kVm+g7f2o9mtuzwLyHltvQc8vJVHNpTER2QQcX/nIcIdf2ITAymofOOX4a5AFERcA2yY6hBEaIhUBMYoVRnE2SXdRCSXtoSpXg9AWiIrFxrIOfJ+UA6MkNPx7mkZQrwKbpOKkuAYxHbNNmCpB82nZVfhEgaR5r7thqywh9cXAbgQXjhmqWL4Th/pAyWLfiDoiKb5MwJC1fsZGh/f/w3Fq+KxPk9IpIRmedDgTuQ79BsZDLwIzAV+R5FQiNkZ86UN4vt0KQQGIl8d09WqrPEyfoInIud1UB2FesW/28qstO6u7hOUxE1SxW4OQFohAzIQxAlrM5UHY63A9luLimTkQGzMhKR0BfT7HulWY2k9HVr2foasno3WS2UbDf2ovLVQnXkQ3cEci/6I5MAT5n3y0+cd93fvW4WgOnfBDWrcvD5ae4W/nauP7u902ZX9eqrkYTsgvVDtswLkd2/H9k7Iagq6c6TmOeN2ArcZlhHReQBZyPHekcr1dkRcY4ejBwVVkYa8v05GMl02peqQzX3IEmPZiJHsZOQhZlFCW1v8gbINtOFyMtkWn8+coY3GvgM2F7mv4eQVfBIw3ZKswEZLJcp1lkePZBJjul54T3sm563FjKxOAJ5MfsptGFMzdp1GL94AynVPJ97MGJAd1YuXuB5u7FArRrJbJx0uqkzniOGXPYdP87c7Hm75VCEJN6ZjKzOp7Dv4mAIMjiZfu8uA143rKMqaiARUpq5EmYiCZjKbtlUQ5IVnY0ce2ocLS5CxoI3gKUK9cU1WhOArkjyiHNwLwtXLrI99iiS7xsk1lZTr3obMmjOV6yzMh7DfMa/G8k0dhAy6PchoL4dD73+IUeddranba5cvIARA/yUToh+3n/0cEYMa+tpm6s3ZNH+hM8pLAzs0c1C9k4G7gVMhS6mIt8eLy64DjJh6aNY51RksM8urv96RMRIU4StNEXINTyBjtJqXGI6AWiPDGKn411EQR6iTLUL3VS5GcjW2EzFOquiBjLZ0NQrCCzd+vbn9YkzPG3z4Ruv5Iu3X/W0zVhjYO9GTHnjWE/zAdzw6Exe+GCxdw36Sy4yGHu18ADxx/oR0Ezz+C0wA1FK9VJA4ifEl2Oqh23GBE5f6VRk5Xon3sbYukU2kip4mg9tD0eiF+KCR9/+hCHDT/ekrdVLF3PBwIPIy3XsUF0ANGb/o6do5E8M9PE/eGwg5x7vzTx1+dpddD/jK/aYhQBGE48Qfm4RTZojg2Z7H9rWpgh4B4myCsS5UTTgZALQGfiI2BGDyEE8Y7/10YYx6OiGB57GzVvy9pTfqdugoavtFBUVccPpx/Hb5Ikm1Uxjb+hYtGN03NSqaXUWfDacmtXdPV0qKCzi+GsmMXHGRlfbCRArEXnvbJ/ab4ccY/idO0GLzYhP2AS/DTEghHx3jgFaI5ObZYg0dFVZISMi0m3785At8lgZ/PMRp0U/B/9WwG8+tu8pm/9ax10Xn01+Xp6r7bz/4lOmgz9IdrVY4XOTH6/dmM35d06nwOUz+TuenR1Pgz/AdGQQ9kveeyUy0MTKqrkxMlA+QnQK3fVDxoMfEQfvi5AJzQOI0/hEFEWYInno7gIejPA3QaYkNvZdj9ttx94Y/MHF/xx3nHrxldz+9EuEXDhYnvzlGO665BwKC4y2kPORyVmsjEYhxIPa6ONx3YjOvHDHwToWleHNz1dwyX0/u1J3FLCVvToEPwJ/oJfWNxx6IU51jtU+A8gnyADqrwxp+JwGvE/VYdo7iv82Ug2Y/Qjn6xtC9KRvNG0sQBQhuvwve9BWJ/aG5A1GBhULcOwZI7j7xVdJrabnRvLlu6/z2C3XaOwwfA6cqmBSkLgdiaIx4pqzD+DZ2w4mJVlvgfXY6wu464U5Qfb695odyBHUZGRiMBvnicjCZQAS16+uBOojk4ET8e+IJVx6I7tB4X4MsxDtGyPHx3AmAI+jm1oyCNyKCHe4QTf2yuoORjcdcczRrU8/Hn7rY5q2bG1UT2ZGOs/eeTPjPnhLyTIG4Y9TqJvUBdYgWhFGHNarER8/OYjmjcwmb1m787nqgV94b9wqU5NinZ3I81iySzAT2aXSZigwDh/EwlxkEnASwd4J+BEZMyIhEwm9/Mlpo1VNAP6OewOlX/wLyZKlQQLiWT0EuXlHIGdQlghIq1GTS/5xF2ddcR1pNSJbfOzOzmL0y8/x3gtPaer9TyXylzFa0NCeAEQk6JYLu3DLRV2pXSMyramCwiJGT1jNHc/NZu3GoC/OAkkWsmIsmRD8il7+gJMQx2TfBcQU+RjRqQniFlM3nIeAZiCS9b86+XFlE4BhyEwwVs78QY4ybjH4fSJ7BXeGIKl53RK6CBo5yEM2GfnozCv+Z7XYsLoNGjLs3Is49oxz6XxQHxISyt9iLsjPZ/ZPU5gy/gu+G/MhO7ao+i8VISppsXoYXQ9RUFN7bhvWTWXkye05aXALBvZuTFJixZ+MZWsy+WTiGl7/bDlL12jm2CIXkblOZe/u2yBElCYe2I3E4Jf4EPyC2Yr3bOQ8OtHctMCgufjT5HrgeYPfpyNKjBFHCFT0prZEzpzcjdXyllcRxbxIZoBJiEBHyZa+/aDsi2saBrXr1adTj160aNeB2vVEYj0rI4N1q5azaM4sdu5wLTR/HLICimXuBB52o+J6tVM4+MAGtG9Rk7q1ZQGZtbuAFesy+WNpupur/fJi6e2Efe/7+zOyaxAJlyLfzVhZBBYiq+Xv/TakDI8i/jkmbEeOb+aaGhNC9PeLYqiEO5NNBg5DPpBfI2csftvuVclEJDXvRj6U4Uo6fxYA2zXLHkQUKlZph/gB+N3PmmU54TlPJSA5OK5HtoQ3BcB2r0oucmTwCLK7G64fyA0BsF2zrMM8aZM2o9C5ts2IpkTYlDezG4lo7rtCg+rVaVu3HnWLPb937M5mVXo623e7eg54MVCed1g1ZNtwcHE5FA9S4waEEqeikpzoTp2KWgFzCN5LZcJuZHcjaCsFU1oj97utz3ZoUoA4QjkVfejGXv+dwYg6XjwQbgrkLkhIoisKUMlpqdRp1Zi0+rUIhULkZuewa9N2dm10VXzzv8BVbjYQISOQRaoGm4AjkVwVVVJ2AlAPiRVWc2RLSkjguI6dOOvAHgxt15EWtWuX+3frdmYwacVyPpo/j++WLyW/UDUEdgOiYFiAhLqUDPiHEFverpWxA3nJSwZ8zbCiocjuQSCTEDkkCzgB/dzsftECufcd/DZEmduRSCUtDmDvkd8Q4idstxDZPp6C+PlMRZKjTUB5R6xpzw50PvFQWh3WnQYdW5T7NzmZ2az/dSHLv5/Fsm9/Izdrj6YJhcjCb5ZmpQY0ANYj/isabECe3SpTJ5edADyIbAEbEyLEmQf24MGjjqVj/ciO3Val7+DRqZN5ffZMCvQmAisQ3wa3shUGmblI/m0344ivQ7IzxhK7kI+f4zCbgNAM+airKYgFhHeR1ONu8jLBWi16RRHiLKr2zDTt2YGB/ziXFv0iS5yYk5nN3Pe+Y9Zr48jdpRbJNxFRQAwKz6Ob3G4dMglYXtkflZ4A1AFWo+Dk1rlhI9467Wz6tTCTl57113rO//RDlm7bamqSBS7BxaOdYv4DXONyG16zE/lQOAqzCQCNEZ8ezaxvQeBnZOdJdWlYhgMRz+p4XDSokVqrOkNHXUKnYYdgklIya/MOvrv7f6ye9oeWaYcRnGifWogtjhN2lcMaZDdrVUV/UNox7hZEMcmIYzocwNcXXkqH+uZHws1r1eb8nr2ZtWE9K93z+o4XBgKv464YxnhkO6u/i214TSpwFqKQtsFnWyKlIeLHEJFjUBTwA+6ru4UQKdlYyJTnG3VaN+b0N+6k5SFdjQZ/gJQaaXQ+8VBys/awce4yDfMaAh9qVKRALvL9PA29VMp1gFMQR+2M8v6gZAIQAt7A0JFrZK++fHDWCKon6+lHpCUnM6JHL5Zv386fm2NFlt0RhZiF41RHBme3Uw9/jTxXg11ux0uqAWcifg6bfLYlXOoj25wH+W2IMl8gH0m31YMuxXxLtsQ7O1bC6CKiSfd2nPn2PdRqrhd5GUoI0WZgT9Lq1mTV1Hmm1XVEwhx3mVumQjryfJ8BlO8sFzn1EIfmMUik1z6UTAAGIqp/jjmxUxfeO+NckioQbzEhIRTixE5dmLRyOet2ljuRiUWWIdnongVuRhw6TOPTeyMrwjWG9VTFD4gD0dHEjpBIdeTFHA9s8dmWqqiD7Fj08dsQZV5BInq0FO8qoiHy7plGBL2LCLT8jOwepSJHMtGYpS4i6rRqzBlv3U1aPWPV6XJp2rMDOTuz2Div0iPuqkhAQuem61ilwg7gK+Rbo9V59ZGx41PKTHZKZqZGZ7et69Tl96tvoF6aXlKX8ti4K5P+/32R9Tt3utqOTyxEPHBLvHD/KvPfE5AHdYBhO/ORiYC7+XiFPsB7SChRrLAJca5Z5LMdFVEb2akwfU6CxHZExOtTj9p7HfGZMWEH8tyXlamsgyy4SiIN+hJb0TMkJCVy9gf/pEl3dxOdFhYUMPbyJ1g7w6mKLiACZ0F8V7og40ATxToXIt+u/38mS2aiRt6QL554iuuDP0DTmrV4+KjjXW/HA4qAP4F/I5KbTREnrauReNCygz/IEcDVmCcAORAzOeRI+B35wL2CXHMs0ATZRTnAb0PKoSaiZBjED5pTfkCOMbwa/I9AdhlMuYP9B3+Qs9hxSD6GAcgW7fGIMuN03N/dcJ0+Fw9zffAHSEhMZOioi0lIMtpk7Ecw87csQnaPNHcbu1Im0VMIiXN1vCV8ZLsOTBx5ublpYVJYVES/V15gzsao8scqRLTzS2Q5pyL5v53wJIbHNcj56YFU4h3qAv2Qj9zRHrYJsBJ4GlE00xy01yKz6RWKdZpQHXm5hyjWuQuJsz8f8Zj2kgXAvexVmvSCFEQfwzRi4mdkle8khrk6IkhWokPQnyjSKqlWpyaXTnqG5OremTz5gbeY+75THShAjldVE1Mo0gx9caq3KJ7khpCX+12nNX19wSUc29Hb8OKvFi/klA/e9rTNCClAVr9VqWw5oSbycTQVKPFL834o8ADuDyirgIeQhz0P6a8fESlcLVYjW7mrFet0QhriPKQ5ucpGhJB+LP7n4xDJUrd3F1YgSVvexV3divLQyJGQj+x6GXuoFVOiVjoEmRQEWq20/zWncOgNZ3raZva2DF4fehMFuW5kR45Zjge+ScBgttuydh2O7uD9TuiwAzrTrJY7ziUOyUNm/Y8hH816yEv7D+BL9AZ/kFXZDQr1nIg4mnjNJCTbXnekv9Yp1r0LGThORFb7r7LX12EtMvnQHKzbINdjJnhhRiri4as5+O8GTmbv4A/iV3Ao8lw/S/nHVE7JQM7dhyD37S28H/zbAfco1PMseoM/iM7BFGRSdDQSIjYQSXz0DcHxYIdQiG6nep9Fu3qDOrQb0tvzdqOcf1EcmPkJDgeCqw4+hP+cdKqqVWG3/eUYXp31my9ts2+mrSmIUlykmbZM+Rz5SJuwDpkA+rn9lYCsbI5BVtMHIbsc4ZCNbNnORM5Px1F1eFgHxLlGc9BeggxeXp9LpSDv73DFOnOQ2OFvqvi7BOSaj0SOdw4m/Ex7ecguVonD69e4q08RDuOQybsJa5D3yctvQRKy41CSz8C3jKUNDmjJBV884kfTLPx8Gt/e8YovbUcxA5KQWEhHHNHGfUePytr2cAKgnWtbgxsQJ5EaBnW0RGaCN6tY5IxCZBCYXPzPCchqrB1y9tWAvUpsGYhH+A5EO3sJkTtFLkf6bTJyvqZBJ8Qx8Ei80wlIRkRMNAf/XPbqHVRFIbL7ManUv2uP7IrUQ0KP6iH3sxAJC92EHM0swZsolHA5E/PBH0Q3wOuFQD7yPfoFeIL9UyAPwqNEXS0jlPiNlbajmBOSMFAd6tZYM0IhwrYbudp2FrKqL1mh/IasjILEauB+zBOhXA+8jaykg0AhMkgbBfhWwRL2TgK0PIC7IsI7R+LcwTNcEpGjjtMU68wDzkFikJ2yguA4RYZLbWTb3pTPcV9kKxxK/I9+R64rATluK0mANgiXvN7rV5DYxwtqNWtAcvVq5GW7qQwdcwxJwEBsoEUtLbGiyGlZW3WXKxMReLkDcU6rCxyLJEeaRvAG/xKeRVJ1mpCIJDyJeXGSMixEzlQ1B+vuiACPmyuuROSM/GzFOvMRZ+CxinVGCw8gmRJN0PLLcYOSCKQXkJ2OpkgE0LXIDpLasVXNxvW0qoqcUIiaTXxsPzppmYTBFnKNFP9yZNQ0a7sIWelMRj81rpfkIdoAUzEbwPsX1/MfDaOiiD8Q34Pv0Ru0ewHfIpMLTedPkHv8KjJYa1EAjAQ+VqwzWugD/E2hnlG4r66pRRHif7EAeKn433VCjgwGI/4fjhaFyTX8jVZM8bn9KKRxAgZncXkF/o2ZOWZt70Ac6J5GHMiicfAv4SfgNYV6HkE/3jQamIMcB2hmm+qLTCo0lyQh4EV0RGpKKEIUQN9XrDNaSECEuEylqv9AUrlGM0uQieWF7Bv5ERF+h+H53X4UkpmAgQf49t3++cFt322UCyTWUgtWpDoWCbURkaF4ZA4SOqipMd0HCQENN6KhMkoGf81Uy0WIvO7/FOuMJq7FXNOgELiKYDk0muL427gnw2v/x33ZnR6ciMgoYZPRBGDpNv9yoizdZnR0G2sTgO2I5oApIzCUhY5iZiCe4JpfkcORoyZT4ZankQFLiyJk6/tVxTqjiWaIf48p/yM4+eS1cPxtTF/lX7bWvOw9ZG3RPnGLeeYmIAIpjvh1vaaGS6RtOzYbYm8CAOIV/oNCPf8hiqRHlZmOhNVpppodjHiHO02W8Thwk545gIR9vlTlX8Uuz2AeK78JUQ6MNXY4/eHGP9wM3KmcTX+sgKJYSTfiGeMTgMVOf/3d8qWKtnjatn+Gu0cRsko0jVjoiKiMxSuTEUcozfOtoxC1vtQIf/cgcKuiHRTX95xyndHEcUi4oyn/wGCwDDCOv41/zVpC/h5/chmtnmYaDBV3ZFAsBex4AjBtzSrWZHi/7bIqfQc/rTFyuvVNQtBlFmGuCwCSqayzQj3RykTgdHTDP49HVPvCDV+5D7hbsX2K64tXPw+QXZh/K9QzCUlzHYs4/jbmZe9hxaTfNW0Ji6LCIhaPn+F5u1HOM0BGAgY3vLCoiP/86v0R2Au//ESRWYKwmVq2BJCHgWWGdaQiRwEhc3OilgnAWeimZz0Jib1OruLv7kREnjS5H/NEN9HOXYgUtAk5iDNmrO43L8dgZ2POu98qmhIeKybNIvMvt7W3Yoq1yASAEKIlvR2HsZ+1UlNZeN3fPUvOs25nBl1feIrsPMeOt1mIx7uTVJ3RwrGEJ+daFRcB7yjUE82cBoym6kE7Ej5CYvnLi1v6O/qr9IfR302INroAcwl/B6Yi/gX809ycQDMRObZyxKn/vZU2g3oqmlMxRQWFvH/mvWxdZLQjPIJgHgsnItE//RTr3IOoQc6EvSs8o0QYZx3Ykw/PGmFuWhicOfpdPls437Sab5EP7Z/mFgWWD4BzDevYjHw4Y/GsMxLORmLlTWPGS/MeIsBTWoPiBvTP559E348g2ggh2/ZDDOtZCvREPqKxSBNkgnMZBs963TZNOe+zB0lOi9TlJXJmvz2BKY8YncZsRJQgg7YgTADeQBZhWhQCFyBjA7D3JqdhkFluwZZN1EmtxoBWrc3Mq4KnfprKC7/8pFFVByR+twVyBOJvAKs7/ARcjplHfw1EzMZEHz4WmI9sjZ6CnmRyT6A1ohVQhCgxvoDuscvzwC2K9UUrF6GT8GoEIpoTa6Qhk8SPECl0o2d8T8Yu0ldt5IDj+hcnnHWH9bMW8+3tr1BUaDR2j0byOASJEBJieolinYXIeLDPjm7JBGAFcCMG25zfr1zOIS1a0aF+uBlBI2PC0sVc/sWnFOmFeiQgim1XFf/zTCLPLBdkdiEaD6ZZznoj+vb+xXwGgz8QudeT0RukeyHqi02QfAyaX8uXCK4+vZfUR8IwTbJmgqyanjA3J1CEkEnNWMTpVW3Jvn35egBa9u+qVeU+7Fy/lc8ufZTcLOPNmFuQxGpBIYT4X12pWGeJ4ud+irElE4AcJEFED8ctFBUxdtECujRsTNdGusmmPl3wJxeMGU1Ovivjcypy3nUhEttrfL4QIGYhEwCTZCch5AzqVYK3TeY1c5DkKSehN1j3RXdSAXKvYtlRLRKeR848TUhH7lEsSc0dhuR/uBFzTYRyWT9zMUUFhbTq31V1J2DrkrWMveJxsjYbR6AtJVjHYyHkCFAjP0UJRUjG15fL+4+lz3lWYzjryCso4OP5f5CYEGJQ67aEDG96UVERD/w4ievHfUGu+3kH6gJnIOFaCzAQSAoQRcgk4HLMtvWaILsJKucvUc7vwBZkYhXEKIm3gCuwgz+IEqPGscotiD5ELNAOeAV4CmjpdmPrZy5i29J1tBvSi8TkJOP6ln8/iy+uford21VUu/8F/KJRkRIPoaPoWppbkHegXMq+GBMQoQxjBrdtx3PDTqZHk6aOfj9n4wZuHP8F09as0jAnUoqQ2fEdwEo/DFDmWWSmb0IW0I3oyXrmNjdRHEoTIN5HzrujObmVFsnI5NfxrmYxvyCr5Wjf/aqDhEHeiOJWf9iNt27M4DsvoN2Q3o5+n701g2lPjWbh59O0FP82Au3RFfwy4VRELExzUXEbVRxblW3sMGCalhEJoRCndOnGlX37c1T7jiQmVL4IzS8sZOLypbwy61e+XLTQNNZfgz3IFuLDiHJStFILWIh53vMvEEc4i3ArOsJLGnwMnEds+bGYcBvwmGEd+cjx1xxzc3wjCdkRuh9o5LMtNO3ZgYPOP4YOxxwcVpTA5vkrmf/pFBZ8NkVbZfAmgqOImYjsOndSrPNuwtD9KG+gfxMJT1KlXloaR7RpR6+mzelYvwE1UyQcNzM3h2XbtzFn4wamrFpB+p5ARthsQWJ//0f0fmDPQJToTDmV4HnN+snd6CSWMWEsEqoYS1npTGiD+PKYOv49Q3RHUQxDwkC7+W1IWRJTk2ne+wCadG9P3bZNSa1VncTUZPKy9rDzr61sW7qO9b8uInPjNjean484NwflfTkcWXhrMQoDIbHGiDBQkS37lfnISxWtfIV5H6xGJ8VtLHE//j2TX2EubhNrfIF5v67FoThaAOiOCIH5/b0MYikEjnTeta5wK3rX95CGQSMUDYrF8g3ykkUb7ZCzfNPrj2c9+Yp4BO+fwwn4cJ4bcE5Dp29P99pwBZogDn75+P+NDGp52nHvusdj6Fyb6nHkK0pGxWrJL+6jJk472CfuwPza84CDvDY8CngS756/iThPMRyr1EScVE379kuvDTekGpI/Yif+fxeDXH4nmBPmuzC/NnWH5DTgVwXDYr1kIC+fieKelyQjEsim1/0Teqp4sUIIcRp1+5n7EfPz7VjkKcz7Ngto67HdTikR8lmF/9/BoJcNiPJmEDkRs2t7EZdCkhsh6YL9vnnRUFYhL2MQY8PLMgg5CzO95qvKVmwhhKjwufWcTcf6YJRHL2RnyrR/b/facIccCszA/+9eNJRdwCHOutkTqgFbcXZtr+DymNMWnW01r8oSRGf9CSSMz+v2ZyAvZ9B5DfNr3U70HYF4QQiJuNB+thYhmSwt+5KAzmD4B7pZH92gLZJSWmMCH2n5BPF9Gu9D207LLmCwk472mJuI/Npex6Nd2FaIB7zfN7Oq8ifQrJTd7ZH4aK/tKERe0rYR9bK3NEDCG02vNd7TBZdHT5zP6Csr+cguk2VfSmSPTd/ZgV4bHgF1gEcR4Rqvv2e/sq+ccgoiWuO1HZGWHUTH4A8ykI8l/Gt7C4+PYOsjZ49+39SKyoRiG8tjIP74M+xGXlpXtLYVuATzaywEhnpteIA5EEmj7NYzlQec6dnVBJ8myIfetF//57XhYZKEZIp085mqqKxB0seWt8WchCiMem1TuGUlAdQ/qIIUxJO/gIqvKxvZLfDlqDkJCXfyY/upolKICLFUlb86hDzMfhxnbEZeYnMxbF1C6EzqFhNM71qv6YI4G7n9POUigkwWeA+d99OdNKZmHI8/O6+ZwD1A9TBsHIFss3ttY2XlC6BhGLYHlW7IEW3pSd9qxNPf9fwN4XAcMsPy+0YvIXJRhzREvS3TB3vnIy91kOiGZIM0vbb7vDY8YHQE1uPds5SDeA/HM0ej05cjvTa8CrojO5pef58KkEySpY9Rw+EAYJIP9pYtO5FMetHgiB0utQhvIuY51RHVIY3BI9KSjaz6TULvmrJX2tdr+ycQLCGhhzC/pt3IhyAeaYc/O0u7gWM9uL4gUg1ZAJj24WSCM2A0RtK2+vFNmoiZtkcIuBRJsuO17SU+V6a5TiwOaI0kVcjG/Rudg4Q9NFe0vyswzgPby5YC4G1kIuI3acByzK/pB4LzMfWKVsAKvH9+Sko28emDMQqd70kQzolTkCx96Xj//CwGzlK8lurF1/KXR/Z/hyRssvhMU2RrfRH6N3kBopfsZsjZSUjGPK9fwAxEnc9vIaFh6FzPeV4b7iMtgWV4/8yULbuAI1y+1iDRCZ0QX7+TOIWAc/FHyGcrcB3uhT1WR45WfkTfZ2wbch7exSXbLYb0Q2boU3B2RJCLPDj34u3sLhl5KTTC4yItq5CPgZ8r6I8wv44NQF2vDfeBZgRLJGsnks47HpiIeX8tw18p5UOBn8uxy+2Sg0hWe/mOdgBuQJzznMgVFyAaDc8jfh9B12qIGrwYbKoj2+ydgM7ITkFN9qqZZRaXzcjuweLi/93tgW0VURfZzbgB7zOtzdru3yQAABLqSURBVEBSkP7scbsgRysLMRebeQm41tycwNIYOTvu6rMdZdkJHIOEvMYq5wPvKtQzDPHF8Zq2SGjw2Xg/2f8UUTpc7nG7pUlCJgTdkPGgOeLoVguZkGUhu6KbEUfz5cAs5Nm2WDylNXJO70fY45eIkJHX3OjQ3rIz9mhQQ3RCQ2Ae3j8P4ZZ04GDXrt5f6qBztvyh14YjuRtG4Y+Qz0yiRxDHYgkcfgsJeSn/moh8MExtn03wdA9MqY9cl+Y93gLMUa5zK7GZrVEjx0IGuk7EVVEi5LNJwfZIS2VCPhaLJQJCiLfsSrx/kbciK3OvBtS+6IQi3eyRvV5QB/1J4A6kr+uiM+kqXTYTrFBTU/pRuUJauOU6D20+GpirYHOkZReycLBJoywWZdKQc7QMvH+xF6EbslMZLyjYu5OAKFcZUgNxaNW8l+ns6+DaCHF00mxjE8EIczMlCcnlbtofM6laMVSDLsgRntffh5LQ4kiFfCwWS4Q0RPQP/BDt+A5JOOMmtYF1CrZ+6rKdblMdcfjTvH8ZlJ+etDH60q8bif5wqb+jMzi6nRK2AfJN0EhLHGn5HkmJbLFYPCSWhYTOUbJ1uIs2ukl19CVOs6jcIasJ+noUa/HHoVSDVujIdj/noo2xJORjsVgccDT6W7jhlF2Id7FbMc1fKdi4GtlGjyZS0c97nkV4uStaoqPMWPYetHPUE/7yGebXvgH3MnIOR/9ehVO2IUeRXocpWyyWCkgCrsQfj9+1wEXoe/y2RSfb16PKdrlJCvpnuHuQ2PNwaY2+xPAqoE0kHeEzWuqUbqyQ+wFTleyLpOQicujRnO3OYolp6iIDnh8xv78Cg5Sv5x4Fu/KIjtC0ZOBzdO9JDiI1HSlt0JeJXYK3YXBOqY7OBEhb7Kcl/mqDdFS+HovF4hKxIiSUguRjMLVpKsGOSU5ERGI070MucLKBTQegn2Z4EcH3FH8c8+vMRu8dsEI+FovFEYcA0/H+w5GDOD9pnH8egc5E5jIFW9wgEXgP3f7PRxwpTemEfna1hbibXMuE7sjEyfQa71KwJQE5WtugYE+kZR1ypJigcB0Wi8VHYkFI6E0FW7Yh4W5BIgF4B/3Bf4SijV3Qz7U+BwldCxIJ6EyWFyGOnCb4JeSThRXysVhiEj+FhBZi5hDVAJ1MiW8Y2KBNCHGq0uznAkSCVZuDkMmcpq2zEYnjoHAl5tdUSHjRFhXRBZ3MmE6eGyvkY7HEAdEqJHS5QvuFwFCH7WsSAv6Dbt8WIoOYW/RCdlE0bf4Zb/NNVERDdCaYrzts3wr5WCwWT4k2IaEQ8INC+4sx36I1IQS8WI5dpoP/NR7Y3gfYrmz7dCQlq5+8jfl1bENklSPBCvlYLBZfiSYhoQPRcdK6O4I2tXmsErucDv5/89D+Q5FcC5rXMBX/zp21nEwvjbBdv4V8/JwEWyyWAJGMZCvT2AaNtKwCziX8ML1HFdrMBjoU11cbOBa4A3gfmIaIG21HjklyEYGlRciW9RhEn+A4Indk0x78i4CbIrRBg8GIw5jmdXwHVIvAhurA4cj1v4tMIv5EQhezi+vcgXjRzwBGA/ciIj/1iutIRUf+OJIw0wHATwptRlpygCdLXbvFYrHsQ13kI5GD9x+on5HVZVVURyeiYRaSbMd0R2E+8E8kZK4yHnChz24No7/c4ij2DrRaZTyVr0wbI7sd0zA7L89HBu2xCjbnIjtTVdEG+AB/tDk+Ye+E12KxWCqlA/LR8PpDVYgI4rStwr6TfLAtnPIbcAX766Tf50Jbfh5jlHA8IjWseV1fsH//nQB8jT9OclWVR6roo9rFf+OHkM9v6KtzWiyWOCHIQkJjfLAr3LIace5KBW5xof5RlfSL17gxCRiDHEsNRD8lsvZ9rijZlBXysVgsUU8IiS1fg/cfsk3A1ZQvJNQSfWc07aKtoldE1StOPzgNHedMt/tOu5xYQX8chz+OtZmIn0P1CuyyWCwWRwRRSMiN1XWQyzPl3plgcAbB3KJ3q3xSTh90xgr5WCyWGCZIQkKJwO8+2OFHeb7y2xIIziI+JgE7kR2oEqyQj8ViiSuCIiTUD38mI16WVwl2NsPSjETukd995mYpCb20Qj4WiyWu8VtIqBr6srpBKm8Qfc5clxC7k4C5iE+KFfKxWCwW9goJaSeMCaesxJ0Y+yCUt4m+wb+Ea/En5t3t8hj+Cfk8hRXysVgsAaUuotTnR8xzrJWPMU+j7Dc34H8/xkL5EugYYd9bLBaLL7RGVq+xuAL0onxK9A/+JdyM//0ZrWUmIrtssVgsUYdfQkLRXKqSw41G/oH//RpNpUTIJ9FJZ1ssFktQCCHeyivx/8Ma9DKB2Bv8SxiF//0b9JKFHKH5nR7ZYrFYVKmOZNHLxP8PbRDLT0SWDS8aeQH/+zmIpQB4DSvkY4kToiWm2aJPM8Rr/xIC5OGenJrKoUcdT7/BQ+nSqy8t2nagVt3/a+/Oo6Oq7gCOf2cSJglZSCAQCDkYAgTCEmRHihERUFREIYBKjVKwUNTa48JRFBWXSsW2tqcqtbSIFJUCVmVtq0RFcGOVJSCBEAJhlWyELCQz/ePaSqnAzHt33ss8fp9z5s/7u783k8y9c999v5tAWHg4FaUlHCkqJH/H12z4JJdPVy+joqxUdwrFqBMFK3UHbkBWoo7j1SYqIowbslozuG9LemYk0LZ1DAlx6iyhslNnyD9Qwaa8k6xeV8wHnx+hqqZeZ/c6rAEeBLbYnYgQVpEJgOiOeqzpGjuTiI6N4477H2b0xKnExvv3hFVtdTWrFy9k7qyZHCs+qDOdp1FHCzvRdagT/bRoFh/B9EldmDSqPXHRjfxq821pDa8tzefF+Ts5WVarKxWjdqOOc15mdyJCWE0mAOI/RgAvAJ2s7NTlcpF9971MnDaD+GaJhmJUV53m7VdfYt7s56iprtKRVjnqCYoyHcEamM+A/maDhIe5eCAng0cndiE+9txTg/1zsqyWR363mT8tzTebjhHfAjOBOajSwUJccmQCIM7WCHXq35OouupBFdU4mifnzGfQiFFa4uVt3sC08bdw/PAhHeGm0zBP/DNjEJBrNkh8rIdFswcy7Ao9t8qXfnCAOx//jMqqOi3xLqIW+APwLFBiRYdCNFQyARA/JAF4DLgPVWddu8SWyfzmb8tJ76b3/JQTR4p58Nab2L11k9lQB4C2qBoKTrEYyDYTIC0lhpUvX03H1DhNKSlfbDvB8Km5lJQH9ZbAO6jyvbYsOQjR0MgEQFxIO1TJ1dE6g8bGJzBn5ce0y+iqM+x/nTx2lAmD+3L0UJHZUMNQJx86QTPgECYeb2yZGMW6+cNIS4nRl9VZ1m85ztDJazhdrX0lYANqg98nugMLEcoazO5v0SDtRf1izEJ9iZrmcrl44pV5QRv8AZq2SGL2m+8S1TjabKjbdOTTQIzCxOAf5nbx1q9+FLTBH2DA5c159fE+OkMeBHJQhbBk8BfiHDIBEP5YC/RFfZmeNBNo2OjbuHL4TVqSupD0zB7c9+xss2GG45xVsuvNNJ48pgODeifpyuW8ckakMe7ay8yGqQWeADoCC3DWbRwhtHHKl5uwTgGQaqRhI4+HRV/mkXxZW70ZnYfX62XC4L5m9wPMwRlPA9wDGPr5HtM4nPzlI0lqZk19pOLjVXQauYyKSsOb82tQB2JV68tKCOdxykEnwhrNMTj4A9wyYYplgz+A2+1m4rQZTBt/i5kwU3TlE6oezMmwbPAHSG4exZQxHZj9+k6jISKAXqjzL4QQ5yG3AEQgeptpnD1pqq48/DbwuhG0SE6xvF+nCA9zMXlMB8v7/fntHXG7TS1QXqErFyGcSiYAIhCGJwDp3S6nTft0nbn4xe12c83NYyzv1ykG9mhBq8Qoy/tNSWrMVb1amAnRU1cuQjiVTABEIAz/lO6VNVhnHgHpM8jWKschbXC/4G/8O5/rr2xtprks+whxETIBEIFoarRhh66ZOvMISHpmD9v6DnXd0/07lyEY+mcaKw39HZkACHERMgEQgTA8Gli5+e9ciUmtiIxqbFv/oaxt6+A9938xHdrEmmmerCsPIZxKJgAiEIZXAKJj9ZaODVRMk3hb+w9VcTH+nfAXDC2aRprZCBiUEtZCOIlMAEQgQvfvxeezO4OQZOfb5jJXpaReUxpCOFbofqELO1QYbVhZUa4zj5DrP1SVVgT1cJ4Lqqqpx+s1PAORCYAQFyETABGIU0YbHtq/T2ceATl57ChVpytt6z+UfVNo38SpsNjUZ3ZaVx5COJVMAEQgjhltmL/9a515BOSbbVts6zvUbdxp6ugHUw4eNTWG79eUhhCOJRMAEYjdRhtu+GSNzjwCsnFtrm19h7pVnxbb1rfJ2w/7NaUhhGPJBEAEwvAEYM/2rRTuMdzcMJ/Px4fvLra8X6fYtqeULbtLbOnb5PkDBbryEMKpZAIgAmFqHX/J3Fd05eG3zz5YRXGhjAVm/H6h9RM3gB6dmhIZEWa0+cc6cxHCieQ4YBGoIgxWWWvk8fD2FztpnZqmOaUf5vV6ycnqSf4OU/OWFwD7boTr8xBgqLReeJiLbUtvpFNb62s5jH90HW+u3B9os8NAO6BKe0JCOIhMAESg5gM5RhsPHXUrz/z5TY3pnN+Kt+bzzNQJZkIUoyY7Tigi8Dpwp9HGWb1akDt3iNkT+gK27+ApMrNXUFlVF0iznwDzgpSSEI5heH1NXLIigGyjjfflbSclrR3tuwT3bICD+/KZftdYaqpN/QhcBLyvKSW7uYFxRhsXHq4kwuPmyp6mTugLWEKch85pTXjnwyJ/awK8DPwyyGkJ4QiyAiACFYVaYm1iNIAnIpJXl+fSpXc/fVmd5VR5GZOGDmD/N3lmQw0BPtSQUkMQgVrRMFzO2e12seiFgWQPbaMvKz99vOEYd81Yz/7z1waoBJ4CXrQsKSFCnKwAiEDVoe6vGj5vvb6+jnX/WEHvrKtJbNlKX2ZARWkJj9wxmrzNX5kNVQA8gDOW/0FVxksBDM+6fD54d81BMtKa0Lmd4fmfIanJ0Uwdl05dvW/Fp5uPb0NdTymwFXgNmAT809KkhAhxsgIgjOgBbMTk309kVGNmvDKPa24eoyWpwj27eOi2kRTt3aMj3KPALB2BGpD2wC5MTvzdbhczf5bJ9EldrN4TUER4bWdXl8WGK1IKIb4nKwDCiCNAHyDdTJC6ujPkvr+U8pISMvsNwBMRYSiO1+vl/Tfm8tiEWzlxREvhmhJgPFCjI1gDchLoDHQ1E8Tng9yvjvLRhqP075ZI8wRTz+v7y4vbNdbV9e1dVnQmxKVAJgDCqAJgoo5AOzZ+wbK//gVvfR2p6RlERjX2q92Z2lpy31vCU5NzeO+NudTWaBuvZ+Hc5eStwBQ0/O8XHq7kj0v2UFhcSVpKjNnCPRfm4zlX94Vzg9eBEJceuQUgzFgI3K4zYCOPhz5XDaHv1UPo2L0nbdqnExPXhPDwRpwqL+NIUSH5O7exae1HrF29jPIS7Y/oHwAycPZhMi8B9+sO2qNTAjdmpdAvsxmdUpuQ1CwSr89Hfb3aRhEf6zF6xO977K4d7Rq7WE74E0IjmQAIM1qh7ilbXyEmeMYCTq8dHAtsByzdzh8f62FQnyTuGZfOkP4t/Wvk8/2L6JIRrg6rnHY7RgjbyS0AYcYp1H3lEXYnosliYKbdSVigFshD7XOw7EdAdW09uwrKWbC8gF0F5QwfmIyn0QWqkbv4O3GebFe7JTL4CxEEMgEQZm1ELZmb2ljWABQBNwDVdidikb1AJDDQjs537C1j/ZYT3H59KmFh/zcHqQff02Sm3+tKeOmMHfkJcSmQWwBChzjgK0w+FWCjKiAL2GB3IhYLB1ahCh7Z4onJ3Zg59X+qQu4D992u7gvsOz9aCCFEQNqiKs35QuxVD+gpRBCamqBOebTl/Y+OCveVrhvr820dX+7b+uOnfOvHRFlwzUIIITTrjqrOZveg7u/LC/w0KO9EaGmF2hNgy+fwyKQu7/jycppZcJ1CCCGCqCeqUJDdg/vFXvXA5CC9B6GoJfatBPzagusTQghhgfaoTWZ2D/Lne1UCNwft6kNXLLAM6z+POVZcnBBCCGs0RR2la/dgf+4rH+gVxOsOdW7gedTtEas+k+ctuTIhhBCWcaFO1KvC/oHfByzAWUWLgmkQ1q3ijLTmkoQQQlitHbAS+wb+PcC1Qb9K54kBfos6FClYn00x4LHqgoQQQtjjRuBLrBv4i1E17y05rs7BUoE3UBsndX9Gd1p3GUIIIew2DFgOnCE4A/8m1A5/eaZcr/bAbOAEej6nl61NXwghREORBPwCWIP5fQLbgOeQDX5WiASygXkYe+SzCngYqUQqhK3kH1A0FFHAAFQdgY7fvZJRj6bFou4Tl6Ee4TsMFKB29H8JfA4ctT5lgXpqoCvQA1UIKgNVUyARiOf7VZ5S1Gf2EWricMiGXIUQZ/k3YysKU7kIgToAAAAASUVORK5CYII=;" vertex="1" parent="1">
          <mxGeometry x="697.23" y="310" width="45.55" height="45.55" as="geometry" />
        </mxCell>
        <mxCell id="oLo6uGPAnkkm8A--ENiQ-77" value="" style="shape=image;verticalLabelPosition=bottom;labelBackgroundColor=default;verticalAlign=top;aspect=fixed;imageAspect=0;image=data:image/png,iVBORw0KGgoAAAANSUhEUgAAAgAAAAIACAYAAAD0eNT6AAAABHNCSVQICAgIfAhkiAAAAAlwSFlzAAAOxAAADsQBlSsOGwAAABl0RVh0U29mdHdhcmUAd3d3Lmlua3NjYXBlLm9yZ5vuPBoAACAASURBVHic7N15YFTV2Qbw5zl3JgnIFggJq+wgRFBkTcgyQAg7shh3bV2pba12tf2qLa1dbGs3bbXWutQVCYKAskMCJOybQgANi4iKohRBhSwz9/3+mCUzk5mQhISwvL+W5M6de889d9rMee9ZAaWUUkoppZRSSimllFJKKaWUUkoppZRSSimllFJKKaWUUkoppZRSSimllFJKKaWUUkoppZRSSimllFJKKaWUUkoppZRSSimllFJKKaWUUkoppZRSSimllFJKKaWUUkoppZRSSimllFJKKaWUUkoppZRSSimllFJKKaWUUkoppZRSSimllFJKKaWUUkoppZRSSimllFJKKaWUUkoppZRSSimllFJKKaWUUkoppZRSSimllFJKKaWUUkoppZRSSimllFJKKaWUUkoppZRSSimllFJKKaWUUkoppZRSSimllFJKKaWUUkopdZ44dOhQo08//fSeL774Ir6h86KUqszR0BlQSl1YPv744wSPyB0WeZ9tS9vS0tKvALzY0PlSSoXSAEApVSfef//9LqR1v8fjuZM0jQUAKRDhFGgAoNQ5hw2dAaXU+a24uPgqy3LebwxuIOkgDWgIQ4I0MIanALRu06bN1w2dV6VUBa0BUErVmIiwuLh4JMn7SDNBYEPEAPA+9UMIIUAIRNjIGI4GMKdhc62UCqYBgFKq2oqKimJIXv/ee+/9BGAy6KtGFEAoIAiRiEHAFGgAoNQ5RZsAlFKnVVxc3KykpOQ2GvMjQ9OBpK+aP7S6P9q2MTx+9GhSYnIyyxr6XpRSXloDoJSKauvWrZ0sy7r/5KlTdxqaJsFP+oFtIfwd/oKf+sNqAJq3bv1ZFoCFDX1PSikvDQCUUpVs2LC9p8Ph+RnAm2yB0wAQCECCkYIAX9U/KIDNTWJkISm/gJD+IMC25WZoAKDUOUObAJRSARs3bkwW4QPG8AYaOgwNQqr7w7aNCVT37zJkLoBXunXr9h4AHDp0qJBkKiuOPWlZVpvWrVt/2cC3qZSC1gAopQCsX7++n23jR7YtN5KwBBVP+kC0p37ssm3mGmPP7Nm9154Iyc4UQSq8x0KEjW3bngLghbN7d0qpSLQGQKmLWH5+YYpx4EFDjjUkaYyv4x4RcdvwS8uYl0XkX5dffvnbVaV94MCBNg6H40PSWEEdApe2aZM0+mzdn1IqOg0AlLoIrVq1qq8IH6JhToRC3ttzP6i63xjugTHPG+Df/fr1O1bd6xw6dGg5yZFBowJsh8NxaUJCwkf1eX9KqdPTJgClLiIrV65MFsGvPbZMIf0d9+kbyy/ebQEAgZAlBsgl8a8rr7xybS0v+aoIRnovBAhoPB7PdQD+Ulf3pJSqHa0BUOoisHDhim6WQ2YY8kYaGuN74id9VfOh20cMzd8B+6khQ4YcPZPr7vnss6aXlJR8RJqmQc0AO9u0SepbV/emlKodDQCUuoAtXLiwg9D6sUVMpzGxwQV+hKr/9w2tv8XEOJ4eOHDgybrKwwcfHPqHMfxO6ORAHJaUlFTbWgWlVB3QJgClLkALFy5s5rbxf7bgPgOJ81bte8fxe4fre6v7AcBADgL4dXlZ+QvDhw9313VeROwnRKxvk96ZgbyTBmE6AA0AlGpAWgOg1AVk1qxZVmxso7tA/MrQJHo79EWdsvcwLfPbxISEp5OTk+t1it5Dhw6tJM3woDyciouLbd+iRYtqdyhUStUt09AZUErVjdmz3xjtcMS8bYv9JASJAoF3ej7fLH4iEO/2KYj9cHl5WY/hmZn/rO/C3+efvl6A8OWoUVlZ2S1n4bpKqSi0BkCp89zs2bOTRfgoDcf4n/SjPPULwZmWxZ+OGjXqg7OZRxGxPvzww3eMMX2CaiCKkpKSLj+b+VBKVdAAQKnz1HPPzW3RqFHZb2nM3aRxmLCCP2z7PcvwW2PGjMlrqPweOnRoKmle9+fTt0pgemJiYkFD5Umpi5k2ASh1HnrllVduiI0r3S3AtyFwAAIRfxV7SNV/GQQPN24Ud0VDFv4A0KFDh7mAbJKKZgCI4P6GzJNSFzOtAVDqPPLsyy93ddryTxozxvcEXdVTv3/7sGVYIMYUOsiC7OzsraR3up+z7YMPPs62LFkS1AzgAdArKSlpX0PkR6mLmQYASp0HnnrqKWdcXOMfg3iQNI2iTdlbRRAQvH3EMtwo5CaHMZvLy8s3jx49+sjZupePPvpoMcnRQasEPpaYmHjf2bq+UspLAwClznHPPPNMGo31L5LJp3/qNzDkcRo2P11AEDwk0DL8AOTbNKbIIneQ3HX8+PHd48aNK63r+zl48GBXh8O5g4aNfXn4KibG2TE+Pv6Lur6WUio6DQCUOkf95S+zGjVt+uUjNLyXNAx56q/6Sf9tiOMm45R0IxxtLDOSZNPTTP8bPkcAaIybNAcNsRfG2mdR9hpj9oo4PgLKD+/fv//Itdde66nNvX388cffA/h3/7UA64GkpIQ/1vFHqJSqggYASp2DnnzyP/2NZb9EWn181eQh1f1B22WkiakcEOCFaVOnfgMAnnpqs7Nt2yOplsXRJEbTmP4kGT0IiDpVsDf9im2b5BEafkqYj4zBEdL6iDSfGiNHHA7HlyJyCsAJkl+KxJ1yOt1fXXrppScA2IcPH55Lmqt9QcCHrVu37kqyvGE/eaUuHhoAKHUOmTVrlnX06LEfg/gVaWIqP/UHCuPFhviNMSYWNEtJY4Ufa2junzLl6r+HX2PJkiWJts1sY5nRhhhOY9pXXStQ9VLBrGLbn+cIsxCWkqbcGDbxDwm0LPPNhISE/zbE567UxUgDAKXOEX/965OdY2LkBdCkV/HU/xksfuu2W2+d4z/v1Vdf+yWIGRGaBDykdc2UKRPfqOq6eXl5nT0epFmWGUYijcb0IStWDDxdrUAdBQQgTXHr1gm96R0ZoJSqZxoAKHUO+NvfHrvVWNbjJJsFCslKQYDZTNhTb7/99kPB586YMcP06NVnqWUwMkIQcBIww6dMmbixunlZs2ZNvIik0pg0Q6bRmIGkiatcyFermSB6EBAhIDDG3JKQkPBS3X/CSqlwGgAo1YBmzHgurnnzE/+iMd/wFogROul5C/PCRnGx426++eYTkdJ55ZVXkmg5NhuyQ4Qg4KjDYVwTJkzYWZs8Lly4MDY+Pn6gMY5UEgNo2J803Y23Z2LVBX7kJ/2qagX2JCQkXK61AErVPw0AlGogf/7znzsC1us0HBTxqbhie1eM0xp22223VTlMbubMmYNAs9rQxEUYLfCJw2Eyx48f/15d5L2goKBpXFyTK4xBf2PxCkOTTPIyGraoRdU/gqcHJnFj69atX62LfCqlotMAQKkG8Oijj2bYMLMMmRT9qd+A5JeG0n/69OnVminvtddeuxk0L0YZ93/I4bCGjxs3rt5m3duzZ087j8fT2xjTm2QPkp2MsS4lzaU0aFXNgGBXQkKrviTt+sqnUkoDAKXOukce+eN3aMxfjTFO+trQ/UFApWYAmjvuuefuZ2uS/mu5uX8i+KMocwR87LDMqHHjxu2qr/uL5uOPP25cXl7eGUBLAPGWZcWLmHhjcJsxvCKsL8D1rVq1eu1s51Gpi4kGAEqdJY899ljsVydP/ZPgHabyk36k7fXfvmd6ak3n7Z8xY4bp3bvvy8bC9VGCgGOGGDt+/PgN9XWv1bF37yeJsXHuJww5LbwZwLLM/pYtW/YmWdaQeVTqQqarASp1FghAZ/G7NzU+/sVYAN6V++BdtC94O7BOngA25Ue1WbRnxowZNun5BkQWSeRVAuMFXLJo0aKRdXJztXDw4MGcmJiynRBMC1oZMLBKoG1L16NHj97dUPlT6mKgNQBKnUVLXcMGfhV3ycPHOnfud6xTl3bijI1c9W9M4b3f/XbamVxr4cKFsSdPnsqlMROjTBtcboh7xo4d+0xd3d/pFBcXd7Acjj8bmmsj9AWwSWMq+gLwM5LdW7VqFXHkg1LqzGgAoNRZNisnx2r+0YGfgvj5V4lt5ItLuzb+sl172DFxFQUi+LllWQVCbjIwKxMSmm+qzbz7Tz31lDMhIfEZGt4Sde0A8JENG9b9fMaMGfXW6a64uLgZyAcMeT9pGkcYEviuiH29w+H4L2n6BfUF+G3Lli0frK98KXUx0wBAqQayNPXKKw2sl0QkWUiUtGqNL9u2x9dt26O0VSJgTHBA8Jmx8JzT4Xjq9ttv31/Ta70+d97PDPEb7wx/EUcILLQsc2tWVtbRurzHzZs3O5s2bXo3yF8amtYRnvqFtP7TuHHcj1q1anXi8OHDg40xa0lavn4BJ0WkZ0JCwkd1mS+llAYASjWohWO7xzpPNP8NBT9AUJ8ccTpxqlUCShKSUNI6EaWt28DTqDGMoU2a1x0Wf3Lbbbe9X5Nrvf7GG1kWzPM0bB9l3v+DlmWuHTlyZLVnDYwmLy/PkZiYeB2N+YWh6RlpoiDC7DAG3+/UqdOK4HM/+eTI32hwn6noEPhsfHz8HWeaJ6VUKA0AlDoHLE/tnyIwL5DoHvpHycAfqbtxY5S2ao3SpLYoTWxbWp6Y+Gipbf9u+vTpJ8PTmzVrViMALW2HI94p0lLEtDQOxlPYwxjzAxrGhtUA+AOCMkP8X0FBwV9r0yRQVFTUxO227zCG36dhp4r0QyYHOkjiF126dHkp0lj/I0eONBHBFhr29AUBHssyg1u0aLG1pvlRSkWnAYBS54hlAwY0Z5w8Q3AaEFT0B/2VBv/BitOBsviEUnfz+EOlbdq5y9t2MO6WLZvQWC0NWTEbYNjUvNH6AoRNyFPocFi3ZWZmFlcn7+t37EiKddv3kriHhi2jTA/8maH1O8B+skePHqVVpXfkyJErAawjTZxveOCG+Pj4VJ0cSKm6owGAUueYlWmD7obI4yBi/Psq/aEyuG6ggsQ4Ud4qEe7WiShPbAtPYht4WiWAxopc4AeaASIFBOYkgIeaNWvy+MCBA8srXUuEmzZtyqBl3WHAHJJxURYFescy5vHGjRu/3LFjx1PV/RyOHDnyHZL/CCxvbMxdLVq0+E/1P0mlVFU0AFDqHLQybcAQgK8B6BTyR0ocJWgBaBGyO8JfMn0/JS4O5YlJ8LRuA7fvN1olAA4HIvUFCOsXAJJ7LMv8OD09/U0AKCgoaGeM4xvG4m2k6RFllUAPyXmA9Xjfvr3za/s5HPn881wDXOMLAj63LOuyZs2a1WlHRaUuVhoAKHWOWpyS0jLWKn8ZwBjvXypB4GMSORmrN61fm5qa4HaUd6ewj1B6ARgMYAiBWF8VQUD4H7pYFuyE1vAktoGd2BZ2YltImzZgo8ZRAwJjzDLSlJAYS2MckZcCtjaT8iqA16688soz7rl/9OjRZrbIRkP2Ig1g+O+WLVpMP9N0lVIaACh1TpuVk2MlfHLgTwb8ftDuMgi+7yrY9ET48WtTUhqVOz0pMBhBwTUEeoUcENKtILy7IWC3aAFpnQS7dRLQOgmS2AZIbAPGxFRVQ3DYGD5pWdbM/v37V6vPQE0cPXq0jwg2GMMmJG1jzNDmzZtvquvrKHWx0QBAqfNAftqg20A8CSDWX90vxH+afGV/e+CWLZXa5/1Wpw+9CvTcQMNbACRFLPijfAv4dwstIL4FkNQWSEwCEtsBSW1hktqATqdvBj/ON4bPiMiSSP0FztTRo0dzAL5mDElya/PmzYeQdNf1dZS6mGgAoNR5YnX6wGFCzgGQ6N9HcGlMKXOGbthQ5XS5hZmDU4QsRNDffPR+A76tKpoQAACGQKvWMEltgaS2YJt2sNq0PWYlJs6CM/alK6+8sqDaN1cNR48efZQ0PzSGAPDzFi1a/K4u01fqYqMBgFLnkTVpg7rahksIdAfg+wuWHR6accPzN3xY1bkFrqHPA/KNKgt+Vm4WiHRw5f1BoYNlga0TYeJbHbPf3/cUSk5us0X2tIpp+W6PRYuqHP5XFRFxHDt2bBlJF40ptYwZ0LRp06LapqfUxU4DAKXOM4WpqYlup/stAgOBwB/xQVs4KnP1hqht8AWjhrWj270XQCP/PgIg5AGbPAwiETbbkWwNIImQtvDWNiSCkSoMGLpVxbeJ7y0PnDGfOrr1aGHatCl3tO0oVtv24mzb4YQjvsWXpCk1hscBuC3LOg5jygzwtX+hJN9iSYkkJ/s6H25q1rRpqjYFKFU7GgAodR5akt3vksaljXIBGRvYSXwKYnR63sa3o51XOHzwnwH+IPSJn4+mrlz342jnFOUkx5w81riDG1ZXwnQl7K4CdoWNdjRoC6Br+DmR5i0Ifyf4GDa+BFbrRDjadYSzfUc4k5LgaH8pnO07wLKs4AmK4J8XwLeK4s+aNWv2SLS8K6Wi0wBAqfNUUXJyzP8SGv8X5PWBzn2C/xH2mGGrNkXsJV+YnZrIcvsgiDj/PgIfDc1YfylnoFaz7BVmpyY6RfrCZjJoXw5wAIi+AJzRCvyIIvQ5YEwsnO3aw9m2vTcwaN8Rse07IqZdR1ixMSBZSvKqpk2b7qpN3pW6mGkAoNR5bFZOjtXus4P/BXiTfx+JL2wgKz1vw5ZI56wdPvR5EN8IeQKnjBi6YkNeXeVrbUpKI0dT9KeNwaTJEIgLQHzFBUN+VUOlI8XRrPkXjpatjjKu0e6S3TvnENxpx5XsGrhgS6W1EZRSlWkAoNR5blZOjtX+8w+eg+CWoL/o/9FjslJXr9sWfnzhyNRBRuyKFf8IUPD00JXr766vPMoMmK1r0/oDMkIgEwGkArBCj4pSW1CzbykbwAEBdhrBLhjugGBXbLNju5Nzi8pqmX2lLkgaACh1AZAZMOtWDX1WIN8AAn/YR41BxtAVGypVj68bMXQDiMFBfQGONY0/0eZsFZJbx6a39njsSQQeJtAWQZmuiRqc4gZYDKKItr1TgCIbsvPLsti9w/PztROhuihpAKDUBUJmwKxdNeQlAjcEjdX7wLaslLRlhR8HH7shK+VWEflvaMM7Jw9dvnbe2cjrltEp3UHzTwiyox1T7S+n2nyLSWCrDMBuQHaR3CFAEeF5p//i9e/XIlWlzisaACh1ASnKSY45frTZAkCyAd8wP8p2xCBz6KKKyYLyXK64RlbpYQAtgobwvThk+bpb6zN/eS5XXLM4908h8gAQ0hERAMoFfJ6QuwL7iVkCfkLYcQI0BYwTkBYg4iFoJWArAzStaT6kilc+/wNkm4DbjHCb7XFv2xff8b1rc3M9Nb2WUucqDQCUusDkuVxN4kzJCngXB/JWBpBLHcfKJgRPG7xhZOpLoNwUdOrRg/EdkuqrkNsyJmU0xPwjMIlRMHKtZdvT/1cWs7d5XLlvyWCC4G39F695vqp0Nw8Y4ERC4wRj2e1hox3BDgK0NUAnAbqB6AZBUk3zK5W3vgbwjtiyDcRmC9x4RUrh7tqOnlCqoWkAoNQFaLNrQEK5ca4BcVlgTn/wv0NXrLuNvhJtfVbqNEJmA0Hz/lsmY8iSwjV1mZeN41xtnJ7yvwtwbWBnRaa+APCz/imF//YXpNvGpB0H0Mz3/m/7Lyl48EzzUORyNSmNdXcj0RMGyRAkA0gG0AMCR03SkqCfAE4AskmEG0hscJa7N/RdseHTM82vUmeDBgBKXaDWulK6G0s2AGwZ2Gnw8NBl634BAG9n97uk1L7kM/hnBiRB4I+Dlq19oK7ysHV06jSA/wKRULGXIAARvua2rPsHL8z/JPicbWPSiwHp7p3WgK9dtWjN9XWVn3BFOckx7hMtL7cNBpAygIIBAvQDEBMo4iO2EFSQ8IMEBwGsF2C9wKze36zN29p0oM5FGgAodQFblzU0i8JFBByBsfeU2wYvW/88AGzMSp0HyiR/oQxg96Bla/uc6XU3Zw1obqy4x0D4+hQw6KEfh0CZftWiwkWRzt0+Jq0QRKrv5ZYrFxUMPNP81ERRTnJM+ZfxgwG4aJApglQAjYGgYr6KoCAkIPD+OgFBAcjVFM8az9GyTVWt4KjU2aIBgFIXuI0jU78nlL/7XxMosY2dNnTphi0bRg27k5Cng78IjJEeA5as21vb620bk+YSyPMEO4W9JQSedbvjfjhw+fLj0c7fPjZtLoDJvpfHr1xU0KK2eakLRTnJMWVftRwEiItAJrxzGFwCnD4giBAMAMBJIdbDltUE8o6XxazVoYiqIWgAoNRFYENWyjMEbgfgmzGYB63ymIF0lLS2aQLzBPhW/PnewKVrH6/pNfJcrrjmjdy/oeD7AEzIm8RhCm+7cvGaJadLZ/vYjKdICUxK5BEkXrVozWc1zU992TxggNPRutEPQTwMhPYfkMCPyiS0mSB48wQgK0EudtjW0iuWrj5Q55lWKoIadX5RSp2frEZl99olMUMAJAOEATrZzrKX3m/RcXyXLz46BiI+6GlgBIAaBQBbRqd0N3TPhuCKwE7/VATEW7bwtv6Lq1mI0z4S/GzisEx3AOdEALBtQprL8vCXArjCinQAoasihgcD/kYQAQBW1AoQaAZwsggmu+nB5tHD3jPCxR6RJYwrydepjVV90RoApS4Sm7JTLxfBRgYtByyUH1vACAErVhUEv9jfvF1CdTuubRubPhkizwNo7j098MVSRuIn/RYWPMbTdqWrsGNc2vcEDGqykFv7Lix4sbrn14cdE9Jcts1fAciIeIC3tN8skIMAp0V+O9JplZoHwg8roWClB5hjWWb+uVQTos5/5vSHKKUuBIOWrt1pwB/4X5OAAX8L0tchjd7/EC26nPhwwOnSkxkw28ek/R4ic0A0J71p+gr/TyEYecXCgr/XpPAHAJs84p3ByPvPNqZbTc6vSzsnpF3xzvj0RWIzj0BGULYCBLIMgqwrFhUMAs0J/5M+wZ8L8SsIFhM4xvATEfjEQxINOyxOiHGG+I/tsQ9vHjUsb3N26r0bszM61ttNq4uGNgEodREZuKzwX5tGp46lYJJvV4wIJwRXXQMAxRoBYGPlFLzezs6+ZPv6ky+CmBKhGnGL5TFT+i5dfahWmbR5hEYCGaJEmDionm0b4+rssORhEftGAkbCb1IgBOaB8psr3ioIrLpogCFCb8FuyLlXvLVmt/dw8J0xw3rCcDCBdAEyRNDLf16geSC0acC/6T2GsAC4BHQZuP++OTt1EyBzScw+k06b6uKlAYBSFxnL5j02JRNAc3if+ENqAn3TB48E8Eik87dPSGnv8Zycb4Crwt8z5FtfXeLOSc0tOFXrDBpzBEGT60mkmQPrSfHYIc1KrLgHIfZ9AGICQUhQbgRYTNgP9V1YuDn43M1ZWc2B0sv8r8tt+dy/TUCwuPBdAO8CeBEAisa52pSjPENsZkAwAkTvaIGABCVE7wEU70yPg0Xw+03ZqetIvhDj4Gv93io4VpefibpwaR8ApS5CW7LT7gbkqcpV0oGNr+3PSuLDx6tvH5fWk4JlAlwaeh5ByqyyT0/dfKZj3N+ekppolTuCZ9M7evmbqxOinlAHZAbMzk0Z3yTxOyB02uCK9nvJN8Z6KHlBfkGkNN4Zn5YF4TLfS0/fwWtiajJN8NZxqZ2MzTEiHANipHftg9A+AiFtKVJ5EiIBSiBcYGi/cKIsdrEOL1RV0QBAqYuQANyanZoHMhMIKfh9vwhjMPSKhQUb/G9tH5vRH7AXA0isOJy+x1s8994lbe6qixnvZuXkWH1OfVqGoD5Kttgt6+vJdsf4jFRDPiaQaP0e9gjtH/ddUPBmlelMyJghIr/0vpJP+71V0Ka2eSrKSY5xf9UqzRbPGAHHANI3YhAAQMJ6GAa9/BQir3jEfn7oig3v1DYv6sKlAYBSF6lNY4b1MoIdBJwAAmPYKoIB+XH/RYWPAsC28RmptO2F8PX0D3RcA0Dh3D1NknLqcrrbogkZRwC09r8WcvDlC1Ztqqv0AeCd8WnxDsv6gwjuREgtf6AwPQrIjFOHTz5VnVqNHePT8wC6AICw11z+VkHkEQO18PZYVwcbZWNFOAaCLADNTlsbEBoprBXyMXO0ZI7OQqj8dBSAUhepQYsL3yXxL3+3cwYX/gAAkw4AW8cNG+gv/L1V/RWFvwBrv2pSflOdz3VPHkFgWAGBOu4HsHtixo0OY+2G4C6GPwiRbiH+VuYw3ZPfXPOP6hSYB1yuOJBDK/aY3XWZ3ysW5X/Yf9Hap69aXDitqWmWKMJJRvASAO8Sz4GbqLiVsFEHqRSZabeMfX9jduqDhdmpiVAXPe0EqNRFzHY6f23Kym8hGTLdrrfMlbSto9OusISLBdI8+KkfAAxQ7IiNmXRl7prad/iL7giAZP/lyLoJAHZPdnUWkadEkA0g8MAcdFvrxcN7Ll+4antN0j3V2B5MIC4oMNpV9Rm112PRolIACwAsyHO54lrElo0W8FohJhJoKlLRbZDwzr8cdJ/tRPCwE/LgpqyU12yax4csC+3MqC4eWgOg1EVs4IL8z2nw28COwAM3AKClMVgNoFXwU7/vwbJMKDf0nrviaH3ki+CRsH4JZxQACMA9k1zfgi3vUJAdGM9fMbD/mJD39B6waljywvwaFf4A4DEYEbLDsN4CgGDD8/NL+i9ZO++qJYU3lTazk0BOJTgT4Nf+YyoN8fT+jBXiVoq9aUNWytp1o4ZOkvCaEHXB0xoApS5yTdDs8a/w5f0k2oe/R7JZyOvAhvyiX9D497pGI0ck9Om81gHArnEjOu1x2P8BkBWpjCNkthuO7/adv+JTzK/dNQwxJrSTnuOsd7pLzV13CsBcAHPX5qQ0ch7neANcL8BEAjFhNQEQEKCAghQjnLcxK2XbBsGvB69YN6+mkzep85NGfEopbB+T/n1Q/uJ/HV7dH/JFQazuO2jN8JoMcaupPZNcDwrk4Yqry5He81clVXlSxHSG3w7afwVCAxmfz0F+57I38madSV7fnehKcEM+RaBGVfYmL1jd40zSrEubXa4EiSm/hWLfKWSfytMOS1AnQgAib5P49aDl6+dqIHBh0wBAKYW3s7MvEevk+wASohb+sp74SQAAIABJREFUFU0ANsB1AiywLPN68vz8Op+FbvfVrukQ/AuoaJKwyho177Fo0YnqnL8vJ6u5u9TzpFBuiPQ+BW8KnNMvm7/s4zPNa9Ek180UeREIlJbPJS9YdfuZplsftmSnDbBh3w3BjQCaAP5hg+FjCAARFJH448H4Di/XeSdPdU7QPgBKKVyxdOnXAB8/feFPADQAhhF4RGz7vZ0TMjbsHJ/xwK4JGXX21GsgRyoGAHiVO0qr1Qzw7tWZ6eVl5e+AckPw3P3ef3ICgpt7zc+fWBeFvzevGBPaP4Jr6yLd+jBgacGWQUvXTi9txHYgpsM/3TPDxxAAJJJF8N+ORz/cvnZkypizn1tV37QGQCkFACgandLSbTk+AhAXVuUfeYhZGG9nM+4AOceGZ07f+Wtq3Q6+Z9LwYaAEZtzz9mbndVVV10tOjvVe+dGHAHkQgBXhkI0GvLHHGyv31TZf4YpykmOs0oRPBWjhf3q2hL17LcjfU1fXqG9bRg7p5zGOuwGZDhEHUKkmwIuy0Db8YerSdefNvamqaQCglArYPj79JSO4CUBIr/+qCn+G/gg+ei8Ec8Qyc/rMy9tYk/bkXRMyeliWeS/k0sKf95qX97tIxxfnpLeWcutlgKMivC0A/nQi8cSDA/9dt5Pg7Jo0fDwhb1ZcBh9fNn9Vh/Oh7bzI5WrytaM8m5QJACYI0LpSfwAgfJKhcht8wlNq/Sq9QNccON/pKAClVICx8TSImyIW/pVmzAk89Ye+rnjRHcRPjNg/2TMp88PdNHMp9txesYmreZo25dhGMUfc5e6QFGkijwQonjIyRcrtWQA6RMjI5xTe1OONlUurul5tWZRrBP6nZIKChedy4b8xO6OjgXuCgJNOocxFIC7KyICQBYgggQ2ngdzHGPfN60cO+eUpT6OndL2B85fWACilAgTgjgnpuyHoFTIvYFjhX9E3IELhz7DX4QGE4DMA80nOMWVxK3wT21Ty3uThJQBig3K3pucb+SHT6743dcS9EHmUQEyEJLZY5LSuc1YejHy3Z6YoJyfGKvvsEwDx/n02ZGqfeavm1sf1amtTVlpXY9nXgMyBYGD4tMHBSwkEjQQIfY2gpgDvioj+N3cZ2PcOWblxZb3dgKo3WgOglAogIDuA/wIMVLVHrvKP+tRfueAPT4NoDeAOQO6wY08d3zM58y0DM6eJp8midgsWnAw68jMAHYIii0ANQFFOTkyM5/MnIHJHlFt5ztFcvt3l+byS6Hd7ZqzSz8eQiA8qJEuNuJfX1/VqYsvolO6kdQ0o18CWAQCD2vIR8oQfND1A2MM+dgE4CiA94nHeHX1smOXrRgz9D2PlR0MXbajWKA11btAaAKVUiLfHDOtlLGsPEFZwC58npRXIEQAuAU7/1B+9s2DYcd4Xp0BZTMEcB/BmObmCwFXBOTj5tbNp4+anGtPtfF18BVNYmmUU3Ndt7sp/1eima+HdycPfAORqf6loA8t7z8uP1AfhrNiRndHRY9k3CuQ6CPv790tQo37lJ/qQxYPKQK4mZIHY5s3SxvJZzEn7bQG6hJ4TSDUkQVtwiIZ3p65Yt7iu703VDw0AlFKV7BifsYtE7+B9BG9PfnPVc0U5yTE4lZhOY4+GYAyIvt73K34CVXUWjHQ0woOIMgBuAI1D9gpvoZGHAXSulGnimNBM7TF7eX41b7PWdk1Nb+uwHR9IoBZVQBv39JyfX++BR7DNWVnNHc6SaRTcLEQmfEO7g1cCDJ7sp+J1YNdnABYJZIHH8iwNfoLfNCrlSRF8K+icVQAGiaBxVc0HAnm+zC79/vD87V/U7d2quqZNAEqpSoyRuSIMBAAEAIM2AJCcW1QGFK0AsALAT4qnujqUl9ujQTOGQBaI0IWFQjZOW/D7xQCMAcKbD+SFyocCAPYZI+O75i5/t/p3WXtOj3WrEI6KanGWi8jss3HtzQMGOJ2JjcaQuFlQOgmgdxGioFKfrHgZVq0PADtJvEmxFxQ377Ah0iQ/m7KHjRKR6UFtBe+edMeOcTrLWzpFfiXAbYBYkZoPCH4zlrHZa0YM/Vb6yvUL6udTUHVBawCUUpUUjUsbIsasB4La/IV/T34z//6qzstzuRzt4jFUbIwBMIaQ/iB9E46xOgW/97gqvpkqvUUUumPsyb1ezf+8qrzVFZkxwxS/vXoPID2CHnvf6jkvb0J9XvftMcN6GYfjDoH9DQgSIz/RB1XpV7xZBjDfFnuBoefN/ovXv1/VddaPHdLMcls7AFzqmyVQYOgavHTtav8xG4cPS7aN/QdAxkfrROgLOl6KNe7vDly+5Xjt71zVF60BUEpVcuSkY0vrJvZXBJoESmN6awCq4hsSVuD79+DeKdmJbinLBjjWAKMAtPalVaOCP1Lg4OMWyDxnqbkEwFkJAPZuWz2eRnoAvo5wAEh5tT6utTYnpVHTkphrALkTNtIhwghP9L5MABT6g4CThCwS4RyPJ+6tgcuXV7sAttzmLwAuDdr1dHDhDwCD8wqLAExYP3LIcAgfA3B5aJYIQiCCm0s9jtS1I1JuSF25bmONPwBVr7QGQCkVUdGE9GWgyfK/JmRVnwWrXbVNT2bMMO+9s2YAYY8hMAaCIQCsaAV/eAfD4HcifXEJsNVQZrlt++Uec/I/rG0+T6d4yoh8AJlBS+t9XWZJm+Tc/K/q6hq7r87oKx5Mt4GbAG+TSminu9BOeL5fx4V4Ex57jttZsnjggi0nUUObR6eOF8EC74QAAICPHeUxyf3z86O2528eMMBZ3tz5AwC/ANC4Ui2AV7kI/m9Y/oY/n8vzJFxsNABQSkVUNDHzFwB+BQSe7PYkL1jVu+qzqu/g+LT4sjjnKNhmNCHXgGjmvxZCNrwvon5ZVe5saAskj4JnTppWryfn5pbVVZ73TR05SCAbgaBe9MQzPebk3Xmmaee5XI7EZjIFIt8BmAnfRSKPxQ+EACcofENsvGY1Pbrc2z+jdraOTW9tezw7ACT5ryPCaYOXF86pzvkbsgd3sd3mHwKMC85sWKfDt8TtvEVnETw3aACglIqoaGLGCIArggrko33mr0qo6+vsnTrimwCepr9JMmT+oehVA9X88vqEwNOwHU92nrPk8BllFMDeqcNnArzO/1oEMOTgbnNWbKptmkXjXG3okLsATIegPRA+FW+lIOAkgDdBzmzyFRd1yc+vk7kOtoweNk9EJvmvT+HcgcsKp9Y0nbUjUnIAeRxAUuQARvbZFqdmrNhQ67UiVN3QAEApFVHx2PTW5Q5zBID/m6K8z/xVkWbcq7V900b8VAS/Y1hZX6ngr1mhH3KcrwAqEeBZ2PLH2s4MWDxteLIRvg3ACirUtnafs3JAbdJ7d2LmIBu4H8Q18M1kWEWHujIAS0jMRJyZX5fNDQCwJTvtbkCeCiqujxthn6uWFdZqxcTV6emtHTHup2HbV0epwfhaRO5KX7WxXvpOqOrRAEApFdXuiZmfCpDo77QXd4KN6uKJU2bMMPveWf03AvcCCKn3J+ARQS6J6yN3FqzAqoYLRFYO4D+2Q37V9dUVn9bkxH3TRswFMNl7A4HC+u7uc1c+Xd00BGDxpOHjbMiP4R23X3lyHd+Bvl+bQL7gEMzstaB+RjlsG5XRwzaebQAuqWjW4D0DlxSe8ZwG61xD7xTKXwVoAl/SweMUbMrv0/M2/Vz7BTQMDQCUUlHtmpiZB8Ll/6JwWrFJ3ecuPXImaRaPHRtrGpe+CEEOgKCnewJAOcCbxcgNRnyFbYVyAM5aFPqRfAnBH6WJ+9Euz58+oDkwbfgQgVknAINK5/+VWHan6jyNF48dG+uJK7mJYv8Qwj7hpV3wrHwCHBIbL9kiL/Z9a/Xumt5YTeS5XI5mseUFAIYE8kEpGJCyNpMzYNfFNda6UroL7RcBDA1cA4A/4KEtr8d9bd86cEvNOy2qM2MaOgNKqXParopNQsTd9EwS25eT1ZxxJYshyAERmBzIV/iXkswxYq2xBCFj6gm6LUt6O8h+BO8HsBBAqT+JSv8Y9q/yMU1BPIyvHe+8n5M94rQZp/mdL9mK5gnKP05X+BePHdvs3cnDfyaxJQeM4BnA9IlSq1EC8GWKjOx91arOyW+u+r/6LvwBoEWsewZ9hT8AECiFyF11VfgDQGr+ur1l0ihdBI8i5Enf+ykIOe1UE2tVwbBh7erqmqp6tAZAKRXVrokZD5B8xPuKsAz693wjf3tt0tozaVQ7h8OziEC/sCp/ACgxlKmdZ69cdOCakT8DELQYEQHglc65y28KTq/4prHNYt1l40RwI8CxqOm8JsHT4BPPlzud9/d4eVGlxWz25wyfRDHzwua+P1ke4+kUbfKhopzRLWPcZfcB+J4ALSrPxe+tC7chu0g+7XHGvpCcu+R/Ncr/Gdo6Oi0LkCUATGA2P/KhqxYX/Ka+rrl2xOAc2+az8DUJhK1TcNBDz5jh+Vv21Nf1VSgNAJRSUe2e6PomKM/5vyosmMye81euPs1plRyY5rrMI2YxgU4RCv+vhebqbrOXrRCA708bWQyiW1BVv9i2XNn19RVRe40fyHG1cdB5qwDfQegkNhFI5QZn7479Arm5c+6Kdf7dH0+c2Lg09uQuAJ0Ch3mryR/vOnvl98KTKc5Jbw238wcEviOQQG1JWOe+U6CdC/DpXnPzC6rOa/3YMXJIUrnTuR2QNv4ymODG46WOYb7JnOrN6pFD+hgP5gDoFWE+g6M0Znx63voN9ZkH5aVNAEqpqAwk0FGOBDwGcTVNo3jKyBSPmAL6ClFfav7C/0uIjOs2e9kKAPjgmlEjwgp/AFhYVeEPAF1y8z/pOGvZHzseKe8G8gYQOyvV+4dc2/+fwC6A6Epw9fvXZv3Iv7s87tRDCMq3r8WiFDb+HJzi+1PT2+6bMvzPxuM8QOKnIJpGeL7aR8EPYiDtes1d9Y2GKvxlBozbGfMCUTGzI4GTHsqt9V34A0DGig27HI0wGIL5Ed5uJba9oiBz4Nj6zofSAEApVQU35ZPggszAY9Xk/OJpIyaSshxAKwDhw/m+oDC765yKGgUb9p3hnfwIPFLd6zE/333pa0tndrRbXAnhHRR8GN4vIDQgqBQIOCj40/vXZL1yMCd7gAA/qJQfwb/8Qwk/nDKy1f5pI//ooXMvyB/At0wyfNcDKBQsp81JPa7M7NljXt5fu7wRfVa9s2Hb+rSfAJIdslPkp4MWF56VhZQAYOiiDSeGDd8whZC/R3j7ElvMvPzMwTlnKz8XK20CUEpFtWdiRheh2Q94CzQxmNh7bv6b1Tl337Tht4vwKcC7al5Yb/+jtrFHd8/N2+I//sMpI1u5HfwIQKx/H4GCTrnL02ub/48nTmxsNyq9TygPAGge/n7E6XUr9rklqF+BeLuvn3Azprun9ERJbGzc98XGDwA0l6A6bG91Or4WyEtCPN7j9byi2ua/rm0bn5EKj70KvvsS70yGy/ovKhzdUEPxVmcO/j6BRxHUF8G3sJEbwDczV296uSHydTHQGgClVFQURxmAivWAPKzWd8Z7k0c8KML/oFLHPALAEQAjggt/ACg3vBWhhT+kBk//kbRbsOBkh1lLf++wHT0oqLRcb3BgguC6AO8vR/ATEkkI8A8nym6Ji4nbL4JfIRBUBI78lJD/c5SWdew+J+9b51Lh/874tHhj26+CQf+bCL+w4L69IcfhZ6za+FcA1wMIH47pAPDf/MxBt539XF0cNABQSkVlOR3lwa9Ju8omAMnJsYqnjnjCGDyM4PK1olw9bGy6IrXp0yAwn76v8H+nU+7yhWd6DwDQNnfRZx1mLcsBzU0kQnrb+5sHKl5Hn3bQgPeI4M8CJITd1wFQvhNjnerSbU7e7zu9dW7NdS8AbRvPSlgHSRr57hWLNtTbwknVlb5qYy7JUQDCm0csCv6Tlz74jNdaUJVpAKCUiupk2cmQAMCmifqdUTx2bOxe9+evQHBP5CPkkMBkdp67vNL49oPXjhoGoA9QUe4a8pG6fjLtOHPJK07afUgzv1L5zgib4WP2ifjQc2QnyG8cPOrp2W123hMdc9edqsv81pW3x6Z/F75ZDIPuZ27/RYXnTPV6Wv6GAhF7BICjYZ+7MZSn8tIH3dxgmbtAaQCglIoqxpKQXuG07YjfGQfHp8Uz7tQyANdGTkkOWMaZ2e31ZcWR37ZDn/AM9neUFrNqkeXTEof1FQVHwNAVB8KbA6KpGJwoj3TJXdmv6+zlL5yN3vO1tX1sRn8CfwrbfbisvOyuBslQFTJXb95mUbIAhM+vYAg8tzJ94LSGyNeFSgMApVRUtsM0CSkLxVRabrZ4qqtDaYxzjYDROusVi9uZ2Tl36YFIb+7LyWouYEjgQOGfmJvrqX3OIzt04+jBnnJsE4o34IgUBJxmu6JDBH988JoRv9589wBnXeezruyZNKwpKTMR1LcC3i52dw5ZsfFoQ+WrKsPyN20XsUbA21ckmMOAr6xMHzy+IfJ1IdIAQCkVFSWmaWjhJ6XBL4snDk8W4VoCyYFDQh+ed1soz+w+b+mhaNcwwI0AGgOBgvYTT+Py588w6yEkJ8f6+PrsBy2RAgA9wqr1Q4XXAkSvDLAEfLDl/1oU7Js2qkedZbYOlXjMkwB6huwk/t1/cWGd9K2oL5mr1+0wHkQKAmIMJHdFxqDUhsjXhUYDAKVUdGKHzP0vpqKn9rtTXGliYQ2AjlHOfgficHWes+ZwVZcgEFr9T/6tOgv0VNcnt2R3OWx9uQrEwwI4qyjQ99fyEoMJe+u+a7Km1vL8evHOuIzpFNwUtvs950nHjyKecI5JK9xURLHHAgifnrmRJbJgVcZVvRsiXxcSDQCUUlWQkADA4asBeHeyazKFS4GwTnF+xJZy4YjTrRx4MGf4AABXBe06XuZ0PHlmea5w+MbRt9oebgdlWFXZAHgzwDPpcNiEIrP3Tx35a5kxo8G/V3eMGzYQlSfZKRHa1yXnn371wnNFxpotW4VmMoCQmicBWoptFq9ISWnfQFm7IDT4/1GVUucwj7QNe13y3hTXtwDOBtAo8klcb3nsrN5zV5y2jdkW686Qfv7kE5EW5KmpgzeOj//ohtGvieC/EDQLGUxQsekG+ZcYT/nlEJkMSLczvCyF8tC+navnFt80ttkZplVrRaNTWgpMLkLb/SGCH/ZfuLZWCzk1JNeqDXkUuQlASJ8QAS61rPKFBcOGndEKlRczDQCUUtEZdgoun21YPxbBkwCs0FnbAla73SXZ1Znu9pNbsi8B5Mag+fdOeSw70tSwNXL4xtHDnVL+NiHXenMmvp8VBLKJsAd3eHXJD0uN4zYQ1wS9GdggZC6k0tj0KlEwyTpVmr9/0sikM72XmpIZMB6H4wUAnUMzxdz+iwueONv5qSsZaza/TsG3w/cL0K+Mpa/Oysmp0RTVyksDAKVUVCLoFPLwTLmhipH5q8ocMv6y+YVfViftkpP2dQAqnpRFnu366opPo59Rtc13D3B+dGP2DFtkuQAd/YV+yPS+gq9t8KftPS1S2s9cvu2D60cNBPin4EMC28SLl85aMfVU6alLQf4UwDFfPkMvHOHzEKC/OOx1e3Nc3Wt7P7Wxc1PazwCE95LfX14Wc84N+aupzIJN/xbiDxHeGt/q8PuR9qvT0ABAKRWVEYmytG5oqUfIIkdzGZOcW/32ZaHcEfTSDVp/jnrwaRzOGdunzfFWG2HjlxAYBJf+FVHAXNvj7tVx5pI/MDfXc2CyqwUFs+CrKg9dFwAb7UbuuwHgsvmFX3aatewPHqCLCP4gQGAoZGitQsWG95LsAo9ZtXeK6/La3ldNFI3NGAHwV2G7Sw3s6wYuX378bOShvrlWb/o/AJXWoiDkh3nDBt4R4RRVBQ0AlFJRCXnadnGCb5Q5Wk+uSc/94mnDkwWoGMolMjPaPAFV5g/gR9dlfddjeTaDuDJSuS/AB4Bc3X7m0qkdc1d+5D/PEet4DkCX4MR8d/QJxTM1/H665S4/3mX28p/aYi4X4K2IuamsncDkFU8bnhzpzbqyfcKI9raFVwUIVIX7gpD7+i4s3Fyf1z6bCNgny8xNFNkFhH7iNvDEyrQBQxooa+clDQCUUhG9nZ19CSBVVmELMOt44vFrk3NzK00QVBVDK3jon7g9Vo2rcA/kuNp8eN2ot2zwcRFp5K2aD6n09wD4a4ynLLn9zGUha89/dF3WfQAnw39GRUlSZhv3NH+gEEm315cVd529YoLQvhqCw/40ELIRIgE2lu+bMrJnxHfP0OYBA5yWuF+DIDF4vwDPXblw9VP1cc2GNG7DhhMeG5NAVHQy9X7uMSJ4ZeGQIQ3WAfN8owGAUiqimJjSfvA9UQY3ewdVlb/Y05lw48B/bymvfHZ0B77piqPILYHOg8Sb3ecu3VmTND7IGTXJMs53AIwNzpeI/59sNsLBHWYu/UFiWLPEoeuzhwj4h7B7ASCwie90nrlybXXy0DU3b36Mjb4imBlc8oc0C1RcoI0H9oo9EzO6oI7FJTV+BMCwwJW9v7Y0P2lV6jR3PisYNqzp6vQhfVZkDMg2lkknsCHCYV3jHO7ztrPj2RZ9Sgyl1EVt16TMewg84f+aCF0xD//p2d81nTNm2DVNd9+0ETcQfMWfkIEM6zy7eoXuJ7dkX1JeZv9FhHcHZ6Yia/IlwIc62C3+EWkq4UM5o1vC2FsFoZ0bAYENPNF51vLv1PR+AGD/NSNyxMbTAJpHCQD8wcZe8UhKrwX54XPd18rOienTxGYuAPpHO8DGUQc9A/osXHuwLq5xthSmpiZKjKerx7a7UdDVNuhKQXsA7UXQEUBTwHeXIbEOgkaieH/akJRRhVvXn907OP84Tn+IUuoi1d/7SxBSxAL/7DUv/17Oy6/txDl3BVIUrO78evUK/w+uGzmopNR+iUBP7xA9BjLk+/J/wzid93Z4eVHE5W0F4CHaz0PQKXivr9Fg1ectjt1fy/tB19krc/fmuLaJx8wmcAUQsfAHgO60OLd47NisHosWlUZOrXp2j0vr6RY+i8BHCQDwkOaGPgvXnJOFf55rQEKMMX1sMZdR0AOCrkLpBkFXG+6mIgB9kSbDR1vUAIWpADQAOA0NAJRSkQnSJOjpWgSAkb9c9saqH9V2md69Oa7usOHyFryERXnktNnIybEO8osHbFtmEPAuvFPxvAsCh0Dce+lry+dVlc6ha7N+CGBixZk+xMFY25lT06aMcN1z8/ceyklJKfE0+icFt0X7iARIQ8ypZwS4pbaf4+aJAxp7xOR6JznypQqANh/ou2jVstrdQd1Z5xraWSxeRkgf2LhMRC4Toje8/SGClluIdvs1/lj+B8qnFPkIMBvtUnmmtnm/mGgTgFKqkqJxrja05GMwuOafAsoaA7MCBvN6zc17u6bpFk8Z8XtD/NS39u72rq+vuKqqQvDA9a7O9DheBJAWvN+XJw+M/OPUqZKHTjf3wAfXj0wXmysR/NDjvepJsZHW+fXl22p6L1UpnjL8+wAeBWCC+xkE9xSg4MGe8/J/W5v0d07MeB6Cb1Q8JAsEfLbfW6vP6lC4tSkpjawmJtn2eK40QD+hXAFBPwFbVGQtNOAK7U8SuTo/LEj7VAT7QNlLG/ttykcU86kN+4hlzMdfX3LsyLhFe8+oNuVipQGAUqqSnRMzbzBAoJ2e/g1U9AUQyC4L5qnyGHm2OuP/N989wNni8+YfAGhDAGJ4Q/fZK2ZGO37/tJE3k/gHgOYMbegHgK2EubtT7tItp7vu/htGJllubgXQLni/t7+g3NAld8Vrp0ujNvZOdk22DV+C4JLQQk78//VAZNRl81fl1STdnRMy7wLk3yEFqcgq65L/ZSfnFtVoNEZNrB87pBlsxwDLYw8UylUivAJATxH/0ENBxGCnegHAJwLsEshegvtg2/soZq/b8fW+4flF583aBecbDQCUUpXsmpT5bwi8s8eFlL2VOwQa4JhNPhLbQh6rai6AvVNHTAEwx/+ym9Xqskgd9Q5MdrWwHdaTBrg+/D0CXwn4UGfGPx7p3HCSk2MdxLFlAIZXepP4TedZyx86XRpnYs8010Dj4VsAEsMKf79PPOXon7ww/5PqpLdrYvpVtrAQQFzQ0/8+R0zMkOqsvVBdmycOaCwlzv4CDiQ4EIJBQvSAiPHdBYJuByE/qw4A/ic2dsJIkUB2ClAUa7hzyIqNdZZ3VX3aB0ApVYkIRgEVvcsq+gKEdggEABuIp8gfyr7A3e9OcX2z19z8gihp3lUROPDRSAV48TVZLhF5geKdyjcs+Jjvdpjvdp+59FB17+MDHPsNIhX+kLmd+qT/Elhe3aRq5bLX8zfvmTQ8gwbLEHnZ5DbGIS/LjBmjTjei4p3xafEinI2Qwh/HAU4808J/+7i0nm63pBBIESAFpZLs7aLhfV+CuhmGPM2Hb1fsKAewQ4CtJIqMzZ3lnvKijDVbqlwaWp1dWgOglAqxa2L6VQKzBQjurBX8q3ItQGAvxRaYGb3eyPtNcNv+vpysS223Zz8AizCHpSSmS3Av+KKcnJg4+fxhCH8EwDDoq0mAjywj93bOXTm3JvdxcNqIiULOk8rfc++cpGdYTaYtPlO7J7s6G2AZBN0jV4fLD3vPX/WXaOcLwKIJGfMATAwqaMshHN93Yc06/W2eOKCx8cQOhNukguIt8IHW3qf5oF4K4XM/VK69gHg/3FIBdgD2FtjYCmBL04SvdtRnc4SqGxoAKKVCFI3P+A2In/tL+OoGAaHHmZc+/sK+bXh+vhsA3p06YoYR+SUACPCTnnPzAgvwvDclq7eh/TL9ww4r0vQQ/GdZecmD1V1gyO/gtKyuNrEZkPjQd+QzOOzBXWbmv1+T9OrCrqnpbY3HWgngMiD4iVkA4JTYckWfN1cXRzq3aGLGT0XweyBQMAsgt/Z9a81Lp7vu5qys5pZVmgYjGRRk2JABEO9oitPMWYCQY7wHlNjEOxRugW1v9RhuiTlWtnNZthT1AAAgAElEQVTgljMbQaEahgYASqkQOydk7ALQ21u48xSALwnfNLOn6Q8QHAQI+EovZ8KtAFBc/vl+EJcS+MLjKbv0svmFXwrAvVOH30PwUQCNgtMgsE3A6d3mrNhU0/wf+KYrDl9bhRBc5d/nK8TKAGR1nb1iTU3TrCt7Jo1qR5avEqB7hAK3oPeAVZmcgZCmgJ3jM4eTskwAy/9UTvKBy99c9cdI19g80ZVguT1pBsgU2JkC9oOvo17wk3zFa/+uiE//e21gHYn1tGXdV+7YHf6gTp3/NABQSgUUXZ3eRzwsAvxV+lzYZ8CqiTu3uq6yYF8N4T0gWlUVBFScC0DwCGhWE7LQd+Bve85d+eD+SSOT3MZ+lsQ4hI41/ErIX3541PNYbQua/dNG/Btg5eVvBXd2nbOiwceHF03MutTQvQqQzkCltvPv9FmwKjCV7Z5Jw9q5bWsrgKTAccRjfd9cfZ//mOKxQ5qdNLEuCEYC9ggRJCPou/20w+4Cx9hfE9wskLUiZr3lMOuuWrTms7q6b3Xu0QBAKRWwc0LG74H/Z++846sssv//+cxz00MggAhIETEIhE7oLQlNAoiKZHVd2ypiQf26NnR/62arZXft4OJaUdc1iCggRXqvIi0UQVBQaVIEQtp95vz+uCXPvUmAJDcJhHn7ekFm7jwz57lqzpkzZ87BOH+HYFybL5b4C/Vsv6ZXDVtcD5B4gvAloTmjESAAdwNoTuC0Ylgz0e5uouRNv1fB/wCnK0uNbT553t6yyr/n+tTbhXwnuF+Al5tPmV/mTH+h5puhva+wLWuJAJcBcCrlo8rlatFq6vwjC5OTXZfE6gUA+gD+8/bJJ6ILbos7Hd5dIP1F0F8gSfAFdJfuHP9bCFZCuEqLvcLs7i8+jAFgMBgAAAuTk111Y/ReEg18fRrs2W7G4pXBY7el9W4hLusTAm09PWfxBAAg+DZE8kGO8TT9Y34UwUMtPls4pTzy7x7Zv51AVgKIDvroy71H9NDzTbltG9G3rQiXQFALKNyRU2R86xlLxm4e3vefFDwC+BW5DWC5QLoAiDqrGz/gQ2gR2SSQxUqsRQr2ivZfrjhUcW9nuBAwBoDBYAAAbBnWb7iITAP8ijw7d392fEkBXuuGd46OYey7AEZ5es5gBAAA5QSg4hx9mpAJyIv6fcKsWSfKI/u3owbUhK3XAkgI+ugbV15+96ZfLDtWnvkriqyh/fpQYY74YiA8d+bdAP4E4M8ISokvQVo/0I3vbMEGsEELFlvEIiosa3eefgeGqsMYAAaDAQCwaWifzwiO8LWVwheJ05cMO9Mz6+7uHBZzIHaaAFcH3Rk4ozcA4AaAY676bMGa8sotAL8dmfoJBNcHfXRcWdL9iskLd5R3jYok65p+oyDIDM6YBwS68EvMtOcZ6BZiPSGLta0W56n8pd1nrS6XUWWo/phEQAaDAeuv6dUQNoZ6SvR4tLQt+OhszyW98VXBxkGDbgiLyFsgRFcWOrI9Z9YOI8CrvLIVkPHjL/JSyqKFIXHJf3t9/99By/VB2xlbKDeer8p/36geUSdzIwYL5HoIhpdB+RdAsI6UxQIsjgiT5aW9KmkwGAPAYDDAVWA9CIrLV2WPYLYVpc5YXc9HWGRBMgSNissYWHhtzTdafjlx6amXUz7/KiTKf+d1/XuI6Gf8S/ogH02YsnBOKNYIFeuGd46Okdj+Qow6kYtrAakBoEiufG+Xs+VT/rshnAel5xXkRX6ZNG/eL5UjuaG6YgwAg+EiZ+OgQTHCnNH+bK8eI+Czs2XK+/ra5Frhtjwnou8GAtMGe9qB3gBPDgE2jD0Qey2AyeWVe/c1/S91Q0/2lwj2IsB7LT5d8FJ55w8Fm4b2jne51HBqDhMgTYiYINf9mZT/zwQWasg8l+g5rWeu+L4yZDZcPBgDwGC42HHl3gWgtldHe4wA0R+e6ZHNQ/sMpa3/A0ED3/Y+4HkAQtgU3gXK7wC0hXhMApIPoJwGwMLkZFeBZX9E4WVBCnRZQVjdu8szd3nJSkuub7lwrYaMBJAMDZegyJm956/AR3MhWC7AXFEyt13npRuCkwIZDKHEBAEaDBcxC5OTXbWj3d8AbObrI/BN265LWxWnfNYNGFAzIjLvRYJ3OMYHR/iBgAjlrsRpS97OGtGntRK1Fv7reYTS7HDVjIUbyyr3jhHJz4Ac5/wFJsD3FsO6Xjn1y0q/3rY1LbUpLH0dKCMB9ASgnNq9pF0/ic0iMpfamptjnVySNP2r05UmtOGix3gADIaLmPhI+0YRNAME9O3kBS8Vp/w3D+87CHb+mxA2RtHgPm/OH7834P8Spy15GwASP1+6Neuafi8TeBLwjLOVjAFwX1lk3n5NyjWgPBF4652nQIyoTOW/7br+LaDt6yEyErA7izP8wUsxu/5jAs4BZJYqkLmt5yw11fEMVYYxAAyGi5TMUaMsnNr//3xtEQHJo7CjJjnHrRveOTpMYp4RLQ/QayUUDe7zHgGIAMLfJ36x+BXnHMpy/Uvc7rEAanhjBK4V4H4W8YKfma3XpzaFrd8WCfA5iBB3tpxado/CuZI1PCWRkGGkHg7b3QsITMRTzI8AZDcEMyhqukQfXtLGVMkznCeYIwCD4SJl/dW97iT5ZsAvAeKvHWYu+4OvuWFovxQl+m0AlxdXDdD3o68l4DNtZyx+qrj1tl7T93UI7/E/ZqmkVp8t/Opc5d2TnByZWxMr/FUDfQj+0HLaor+e6zylQQB+c21qFxF9vYiMBHClt98/IGg8AORDsIRKZtgFrhltZy34tiJkMxjKi/EAGAwXIVmjEsPzT/IPvrzw3p38Sbflehnw3gwIy3mWou/3O/YLg/sAR74Af255Ja+2nb6kWOUPALZWHyvKPYDXYHDbwwCcswGQVwOvQtBRvBN4V//4qmmL/nauc5wLMmqUtS3vSC+KPXIHcZ1ouzEQ7M4PegY4BOALgfrCxfwvW043d/IN5z/GADAYLkJyT8SPVkRTX1sEoMLLSdMX/bzh6t69NU+/S43mzgh/wBHl788X4O0VeafN9KUP4Qy0SVq0ZOtX/Q4BqCcARHE4PClvz8q24cm3C+Uuf4fHCtlwSmr8trTHCMWx7u7OYTH7Y1JAjtyed2gEgUuFJe/0vV1fC+UL0prRuuPCtSZi33ChYY4ADIaLjHUDOtdUVuQ3IOr5a/IIjouWRFh8RBH/B0D5xtPp40fQLw3Pw5nboxv8On3yZPtsa28Z1m8yITd4nqWEu/WlCWcpObv9mj7tNNQq+PLle5Y9DMWurT5b9N3Z37h49iQnR+bF6UEaHAlgOIB4/4fFKHy6XLbr0gY78n/c+4rbrb5oP2vRD2Vd22A4HzAeAIPhIoOuyD9CUM8btec9AlAraGEBgKuKpvD1+PhZjDdABDMKDub8Jv2rsyt/z8N6uZAeA0CEeQqdAJSYsW/7Nb1qaFGZcCh/AAUQpreaVnrlnzUqORa5Oo3kyBxIGoSxZxrPqGip0bUna/Toi9hOXS0VGXkpyYmlXddgOB8xBoDBcBGxblCPlhCMDUjaQ0Cg0+jY2xdm7oOjTwK8AULMj8u2RjUroVpgcSjheu30JvDMBoAW10QBrgrqfqT1jEWLznXNTUN7x7uohhMcKbkyCGBkCcF7AAArJlZqdOvNGj37IrZjFzIsINFgbRGJJJl7rusbDOcrxgAwGC4iBOpFX+rcwvrz3s/o0fqFafsDAgS9XV5vANQq12l1bbNFi0qlCJXL3mXblt+4ELJjSWOzhvcdIyI3eYT0eh+ISW2mLX71bOtsu65/HSkoGApylACDBAg/U6CAVSMOsUndEdcrGbGdupCusJKGEsClAExaXsMFjzEADIaLhLUDe11DyNUidF6iLxAgrNAb4D0SOKM3QL7WEWpI4qwz1woojqumLd+/ZWjfbIg3J75Ip+LGZaUldxDRhfn8PdnzVkW6Y0pM87t5RN/GSvM6ACO1290LpFV0VGE5PVeteNTo0RdxPfshum0H0CpmePE0gDEADNUAYwAYDBcBy67pVYO58pqn5a33J4CAT5NyswBtgGBvgMMQ8F31I7YK1OBOny06XhY5CMgmyC4C7T0mBa/YOaRbXIKjdv3OId3i8pTOBBDpeHB/GO2RCTNm5Tnny7om+Uqx9UgQ18NGF/GXIioeV+06HqXfqx9iEtuDSp1peEk0LMtDBsP5hjEADIaLgIgc/XeBJ4WvL5RPgFW7azb8x5UnforyGQBFC/oE+AO+FbcM7DR32Rmj9s8GBbuEaO8zKXLDwi8HsMn3ea6KmABBguORAi38VZsvlv8EAFnDeyWKtoYBGC5a9zrbXSZXnUtQo3tv1OiVjOhWiaCy/AGNZaRBeR42GM4XjAFgMFRz1gzq0RNCT959b7leAjmieHv65Mn2moE9p1rk047NPgBnkKBAgH1E2IBOcxf9VF55BPg2IG1ugb4MXgNg49De9wnk5qBsg/cqYc6WYX2fgeB6rdHCOVlxuC6phxq9klGjRx9EJbQESI/S99c7kHM1AvIBhAf1GQPAUC0wBoDBUI3ZOWRIxDH38f8IoAKC+0Se6vLlih0A0HXuig3rBvXYA1HNAhLse4dTcNAiBrafXfY7904E8mNg5UDVCAA2Du/TiTZeAAqzDQI4KcAfSLtpoLIvqrxVjTjE9uiD2N6p3p2+AklnzkLP+mdW/ocArAGwDMA8ABEAlgeNMQaAoVpgDACDoRpzrODY/wPY2rOL9+6rBQuTeq98BfMcA8mpEPmdJzCP/sh/AkeFalD72Ut3hE4q/hjU0WjdgAE1YedlChDhPIIAUINADX+X04oBwIhIxHTtidheyYhu1wl0hXlkL6xsCNJ/sFF4xFHIjwAWAVgCYAnJ7c4PRSQKgBuBvytNDIChWmAMAIOhmrImtUdP8ZXgLazZe9ii+k2RtLW2mgqlf+dpCLw3BU7a1EO6zF6+CaFE9I+FSYQJgI3CIvLehKC5V8oiOPU+XWGIat8J0b36ISapO1REpMO9H6zsg1S+yH6QywDMI7mcZNaZRCWZIyLb4Y2R8FKn1O9sMJyHGAPAYKiGLOvVq4ZQvw/AAgrz/Yjwjk7zlhc5x+/ce9mKdSt6HSCkvqdHTtsiw7t+uXJNqGVTtvWjbXnsD/H8kw6NWMARbhi0TRcA4Vdehdg+KYjp0ReqRhwIBuQoKLK992z/d8Pjwl/mdrvnRkVF7SmDyOsRaADUKsMcBsN5hzEADIZqiCtSXhHgCjjS+grwUrd5K74o9oEMCAbqrwUcAiJfUUZ2/XLl4oqQza3c9QHl1NX+dLziuKcPAK669RDdOxkxvVMR1qAh6Avm8wYn+nf7ha5+AZApIlNFZElMTMz+EIi8AcCtjrYxAAzVAmMAGAzVjBWpPa4D9O2eFr3KkV/Fxv8yrrjxq/p3u3Stst4gMASALZq3dJ63YnYoZdo4qG8zsXQ6BLcL0NKfV8CHI9EQw8IR2TEJ0b2SEdkhyXttr3BokXP9wDZFcAOJBiQb5+TkTCnjrt/JzqC2MQAM1QJTDdBgqEYsT+3ZVEGvB1HbEWd/XNvo0nPRyl3B49cM6J4OcAKAOiA1gNu6zl3xQShk2TiobzOt7BtF8CsQ7Qs/YdFfPFSISGyLqF4piOrSHSo83BupT++u31eMiELyOxLNCj9HoWeA3qiCwrYQWKqUeicsLOwTkqXOXigirQBsDeqOJZld2rkMhvMJYwAYDNWEmUOGRMTnHVsKoIu/k3ATktZ9/uq5zrFLh/aOD8+zxwO4yTMMIpT7us1d9e/yyLB+YK+GopAO4EYA3QrFCMLboeLrILpPKqJ7p8Cqd6n/XL9QmRdpf1u7dvyVx48f7yzkrQq8kUS9EpR/QJvkSQDvhIWF/ZPkvnN9JxGJBJANR4lkAI3IIrcZDIYLCmMAGAzVhBUpPV4D5X7A4U4Xub/7wtUTnONW9e82EFBvE2jkHyjyRLf5q54vy7qSAbVuZfdUwrobgmvhqy1Qwm8XpRTCWiYiqt9ARHTqCuWySlL2RdpKcXJ8fHy6f22RsJMnTw6BUndTMISE8hsAwd4B+H/OJ/mhZVl/PFdDQET2Amjs6GpzthsEBsP5jjEADIZqwLKU7ukK8jEAZ/m+13ouWPWAr7GiR48oK0b+KILHACjf//4Uyei2YNWfSrvm+oG9GmrILSDuAXB50RGOfH4ErEvrI7Jbb0T0ToGrdl2/a79Q2Qe3izUGxtWuXfu54uTJyclp6na771JK3QmwQaDyL9YYyCH5olLqOZInipvTh4isBNDd0dWbZHCCIIPhgsIEARoMFzhL+3dtQS3/KczcJxDh3HxEPuwbszKlezdQJmmNFs56AABfLo3ylwyodcu6p4LW3TbkOgCuwNzBAVUDwbAwhLXrjMi+qYho1QZQyhEBUFiUyJd3WARfE+wYeJ2vcFIRWV+SbFFRUd8D+IOI/Dk7O/smpazHASQWHzToeQTAU1rrW0VkNMkzBT4eC2qbQEDDBY/xABgMFzDrBnSumeN2rVREK0f39nzJ65GyaMPxrFGJ4b8cjc2A8HF6cwL4IGVit/mr72WJGfWd6/RuomnfBcFvQVzmncHxZyBW42aI6NMPkV16QcXEFLvTdwT5HVWKH9q2/XajRo02HDhw8DiJmsUEAWrLsurWqlUrWBkXi4jwdF7eUCUyjmSvs8QJCMk3ATxcXHCfiHwI4NeOrhtJfnwuchgM5yvGA2AwXKBkjhpl5R7e+xGBViJ+V/t+bemhKfM2HF/Rt0fbX37WkwB0gEPLexX2B936rL6P88+s/Nf079lFE4/YsEdCPL8v6H/Cs6g/q190NCKSeiCidzKsJpd7lGzJewytgZUKnETigwYNGpwu/Eh+BFizmJx+W89V+QMepQ5gBoAZubm5AwD8AyIdirlT6PtaRgPoJiIjSH4XNF3wusEFggyGCw5jABgMFygNDn3/vBBDfPtwERxVWg3eX7fJ98tT+LjA/jPACMBzLOAZRggwNU9H3lEkHbAXyYBatbj7MCo+oiF9i2TTdYylAFbjpghPGYDwTt2hIiIK9avTte919VNhr4h+17b1O82aNfuuhFf7SYDWhXl9PAl9FbCiLN8TAERGRs4Tkc4FBQW3APgLgMbBRYG87XYAVonItSRXOaY4HjRlRFllMRjOF4wBYDBcgCzr2/U2AX7nL+8rchrkCFJOXnb4+/kC9mNxSlvL3F+iat+UNmuWO3jOmUOGRNTKPf6rVUtlHBVaOX0GfvvB94flQli7jgjvlQxXq0S/a7/Yc30wXwFfkpjUuHHjqSSLrB3EyYBzf3jsAIGUK+iOnjwH74nI5Pz8/KeVUo/Clyo50Bi4FMA8EUkjuaSE6YwHwHDBYwwAg+ECY1lyt95a5A1HgZwcoYwA2doWPQtgLAA4Nv0+lkTUcF+bNn1WnnO+Vf27Xaqh7mfesXtB1PVn6fMH9RXu+VkzHmG9+iG8VzJUzVqeMcUoa297s5BvRYSFfdCoUaMjpXhF52z+v7TWZfYABExOngYwLj8//zOl1JsiSCymOnAMgOkiMojkahT9XWkMAMMFjzEADIYLiKW9u7bQWqaCCPeq5RyCY0TwMEXSxLvrdobniQAiWEO3a1jS9NX+s/alA7pcoTSf1FpuASUiKEbA7wAQAFbzBIT1TUVYu86gywWSnr290KGuBRSeoMJHSvHtK664okyFhLQGlfK6/v1H9PJDvXr1imQyLA/h4eGrRKSzbdsvAbynmCFxAKaJSBKAsODHQymLwVAVGAPAYLhAWNKn4yWaMgNAXXo0fR7IjwXyAoC6AAqVdqAhsDncJWndFi8/CQDLBnRuQtv1CGwZAzDCs2sPiBHw/OhywerQBWHJA2E1buKIlfM7+n2iiUCWUfBmbI3YTxo2bOgI6Cs9pCif38ERBLioPHOWvBbzANzrdrtXkXxdRKIY6A6oB+ATeAoCOTExAIYLHmMAGAwXAAuTE2NFu2YCSAD8VfNOUHC702EO+I/ePX3EjjALA7vNX3NkeWrPplrs38ON2wUICwiA8z0rAtapC1evZLi69YKKifVuwX3BBgGxffupMElEv92qZatvQvi68YVHCT5PgCwK4fxFcLlc74nIRhGZBaB+0MddAWctAwDGA2CoBhgDwGA4z8kcNcrige8+FCAJCDjTv0S8B/YEg0/OAWCfUq7BeQUF4Uv7dXtZa/fdBCKdRwPO+Xh5c4T1TYXVrqO3Ap9vF16o/AFogSyg4I3TOac/S0pKKgj1+wpQzxFH4DFORBaGep1gSG4QkX4A5gNoFPRx8I4/+EjAYLjgMAaAwXAeIwAXH9zzBsBr/H1Fg/u85+8A4Nuly09QuEXb9uOKvBOQCJ8ed8YIMDwCKqk7XL2ToS6t7wjzd0jgPOcXPbZtm7avV9wbAxDULXRjEAT21bv00t0VuqYXkt94jYAFAJqeYaj53Wm44DH/ERsM5zELeyU9R43f+lzhAapZgo0Az58UaIDboTFHIJ48AIGDgJo1YfVMhtWjNxgdU7jbLzmi33fu/3RWVtbHiYmJRyvifbOyssIBxDuS/wBSMef/JUFyt4gMAbAKnkDA4rArUSSDoUIwBoDBcJ6yoE+XpyHyGACfH9y7GXcmr/H8HWQIKEBSAz0C3nH1G8DqmQyV1A0Mc6FIrr2gNsl1AJIcdkB9rfFPAL8N/RsDcXFxTX0uB58BQlXx7v9gSG4TkVsBTEXx2Y7PlsvAYDjvUWcfYjAYKpv5PTs/AJE/AUGJ+sWTtEaCMvh6r/ohaKhnnAjY9ApYt46G66FxYLeegMsKuOYH/+X/gPbanJyc/gIccH4O4vasrKz+IXxdP5ZlXeGXwfuH1npRRax1Nkh+DuCdEj42HgDDBY8xAAyG84z5vTrfBeJl8WhwAD5l7sCTGe/MhoBlgR27QD34BNSYB8FWbSB0RtYBAmSXoPw1ibHdu3c/IZC/BC1OEUxct25ddMhe2ovW+opC5Q8A+L5+/fp7Qr3O2RCR1iIyBcAdJQwxHgDDBY85AjAYziPm9066CSL/hi+Uz5dWFwh05QOOq37i7fMq9/BwoHNXoHcKWLuOf+7C63sCEMsBNZ5gS4g8XbT8Lt/p0KHDGgCwCwr+o8Ii/g9AgiP5T/PIyOjXAdwW0i9AqSud9wxJVanufxG5XGudISK/IWmdYajxABgueIwHwGA4T5jfo/Mo0TJJxFm217HPF2evo+ltSGQE0KMP+PCTwLDrwfjafneAd+xp0fKm1qpj9+7de8fGRk8R0aOd03jHHwP0k75+z1U//ZQ4PAUAAMqtWVnb7g7V+3uWlzYOaSrN/S8il7rd7le01jvgMWrOpPwB4wEwVAOMB8BgOA/4skfnUUL8F97/J4sG9/mMAAbc1BMAiIkFu/YEevUFIqMgLFKEdxfB17XtfqdPnz7+srYnT578Faka+OYpDAKUJzt16nzYOUH79u0/2bhp0+cARhSOBwB5eevWretat269PgRfAyho76wAiApOACQitfLz8x9zu90PkYwJrhDoGwagAIHJf4wHwHDBYwwAg6GK+bJHx5sIeV/gcTkHX/UDSjAE4mtD+qQAnZIAV1iw0tcQzKLC+F69es7xVsILgOTDnhkDkv0s7NSp0xvFyemyrHtsW/cWoI5jfKQIJ2/atCmpXbt2x4p77lzZvfvgpYD7Ur9Mgt0NGzb8vjxzloSIRObl5T2Qn58/jmRtb19weWAhOR1ABoB/w5MR0IfxABgueIwBYDBUIXO7d0oXYBIAy++up7OUj4cAQ6BWPKRPCqRTV0+gH+lMCnCUwNuKeL1Pn94lJs9ZsWJNfxHp6E8g6LECTgMymqQU90xiYuKBjRu3jCXlI2dyIFCucLnCP9+3b9/gxo0b55T1u7Asdztn3AMVFpV1rpIQEZWbm/ub3Ny8v5BoUtgfeJUSwAySGSS/8j4XnPEwDwbDBY4xAAyGKmJO9043C/EeACswuK8EQ+CSerD7pgBtOoKKgM/V7wnaWy/C8RERYR/17NnzHJSw/qO/nI9f+/H3SUmdvz3TU+3bt/nf5s2bRwC40bO0LyhQ+pw8mf2RiIwkWSb3OGm3Fyh/8iEJcfrfU6dODcrJyXkeYHs6Mhx5Xt/fnmnbKiM8nGuDHs8Pap8IpWwGQ1VgDACDoQqY3b1TOoB3RWAVOdNHoCGg612qpWc/Je07glRgYUGePAg+Edjj+/cfsPJc116+fHUqKX3gW8NjaKxMSur0yrk8r7W+SymrpUA6MNATMGL79u2vAyhTYCDJdoUtgdahOf/Pzs7uKCLPkRxYUsIjEcwBkBEWFraqhGmCDYCToZDNYKhKjAFgMFQys7p6zvwBWIXBboFp+AWA1K2Xp5MHREirREWlvOfTAgH3KXAiIW8OGND/YGnXJ+WPQYrwtFL8bXFxAsXRvn377K1bt15ri6yF4BLA77gHwNHbtu042bJli0dLOkooCQHaOzbmOxs1avRDaZ4P5tixY00ty/qL1vpmksoTVxDk6xeZoyzrz2FhYStKOb3xABgueIwBYDBUInO6dbxBAM9VP3/CW8BpCKBmzZM6eUAN3bZjBBR9gWkiWhYK1PjISNe0lJSUMgWhLVu2LEUgfemo6yvEY0lJSdtLM0/r1q2/37Rp6w1UMleAcEccAUj87ptvvokVkXvP1ajIysoKh6Cl40xjUenerJDjx4/HA3iKVGMBRPo/cHr9RWaIWH+Njg5fc47TBv+uNAaA4YLHGAAGQyUxu1vHkRr4iL7/73zX6n2GQGTUcXfKgBjdqWsNUvnS+J8kMMl2q/HDhg3cVp71RYTLVqx81nnuL8DM7l26lKm6X7t2rZds3rz5JlJ9DKHLWTQIwrt37NgZu3DhwtvOxViJiYlJBBDu8yWI5pLSyrNnz57I+Pj4sQCeAhgfqPEBUjTAz0TkrzExMV+Xcvrg35XmCMBwwWMMAIOhEpjVpf31Io9+PvsAACAASURBVPIRSFfAOT8AcbkOu5MH0U7qWpeW5XWlyzYC490FBZNGjBgREmWzdMWKXymwq0P5H1KQ35bWVe+kbdu2n27ZsuVWkO8DsByZAkHi1w0vu+ySrKysG89ePVB1DLgBQH2uO3OIiDp27NivAfxVRJoCRFCQnyYlUwR/i42N3VLGVzUeAEO1o7gqVwaDIYTM6tL+eiH/ByDMH9dPAFRH3F26/Wz3G3AVwlwgCYIgOX3YsLQR5VHMwcycOTOiRlytbYQ0Iz3HCiSu6dGjx/RQzL9ly7bbqOQtkpb3HbxGAEFwF4kRCQkJW0t6fu/eva8BuN9zs4FHGzW6rO65vP+RI0cGAngeQAfPmr7vECDpBvkRgb/HxcWV6ogjGBHZAKC9oyuaZJmvPBoM5wMmFbDBUIFM79r+OoFH+QP+BLe5iI79R84jT8a6UwdfJa7grLP67VAqfwCIqVFjLCDN/CuAE0Ol/AGgTZtW7xG4AYLTgD9dke+FrwSwcteuXb8q6XkR6ViY7phrz/b+hw4d6nDo0KE5WsuXItLB/6jnjwIAb4lIy5pxcbeWV/l7iXf8XGCUv6E6YAwAg6GC+KJr+2FK+D8BwgoL92Cem2yX88DDH8JyRQRU8/NU+MvPycmZF0o5lixZcgnB3zvqAuzIjol6JJRrAEDr1q0/A6Q/gMO+heD9QYA4Efxv165dk3bu3BnnfE5ELAHa+8aTUqL7/8CBA80OHjz4vgBfARzkqF8I0cgD5HUACbVq1bqrVq1aZ8xpUEqcBkC5Mh4aDOcLxgAwGCqAmZ3apUIwGZBwABDgqBaMSVu9YdDw1Rt2ilg1i1H+AGRTenr6qdBKw+cgEu9dpoCQWwa3b58d2jU8tG7depXWdk8INvv6ggoZ3UKlNu3evfsaX8f333/fAoIY32g3sDp43kOHDtXfv//AqwC2C/AbSMDvrhwIXgF089q1a98XHx8f0vTBIhImIrGOrgOhnN9gqCqMAWAwhJgvOrfrphU/E0GkAALK+1pbVw1bu+ENX0VfEanpf8CpIcldoZRl8eLFPUXkdv8KxJ969eoVnOUupCQmJu7Kzj7VncS7wRUEva/aVASf7969Z9r333/fGkAn36cCIMKy/B6APXv21Prhh5/+5nbbuwAZCyDc4Vk4BeCftm03q1u3zkN169b9sYJeKR6B8VKlzr1gMJyPmFsABkMI+aJz27aanEmgBgQ7lZZ70tZvWhA8TpQOC7iLD6+G0QiZAZCZmWmJYDzpz667bP+PPz4bqvnPRFJS0mkAd2z/5pslELwMoEZhsiAPAhluaz2U4D5Hbp49DRo0OPzTTz9F27b9AJV6goD/Sp/3PU6J6FdtW7/QsGHDnyvhdeKD2sYDYKgWGA+AwRAipnfokKChvoQgSsA/qV+y2xan/L348+U7jwJEEDL3dd169e4H0MHbPCHavjU9Pb1Sy9i2bNHiHa3tdiLak9ffERfg/UsBaFpY5VDW7927917btneBfBZSqHwFyIbwea3tZvXr13+qkpQ/YAwAQzXFeAAMhhDwWZc2jUXruYBsJ3Dv8HWbzxZ5bnvy5Th2xQKIkpCUmZ0/f35TCv7q9y4QD/Tr229PKOYuLa1atfpORPrv2rXrHgB/B6SW776/L/NfYZvXARjpLQfs+/w0wH8r8rn69S89VNny27ZdWynlLBdsjgAM1QLjATAYysmn7drVU7b6gMTTw7/anDr8q7Mqf1iAu/ggQATfCSw1njL2aiKAGp4VmNmvT59J5Z23PJCUhISE1y1LtRRgkvOeYGCQoChHOweQl/LDwpo3bNjwkfr161e68vfSUEScbeMBMFQLjAfAYCgHmZ0711SSfzMZPnL4uq/O2SXtdvOosvw60L/dVcJyG+ULFiy6jcRg7wb6B0vhnvLOGSq01kLPNboCAOFBO32fJyBfgImAfrZx4yY/VaW8ACBko6CMacYAMFQLjAFgMJSDmgUF7sGbNr9Y2ucsSx+UYoIAReSS8sizcOHC+lrLC+LJhqe1jdv6JPep8nvrWVlZsVZ4+P1a5CmCcZ6SxoFBgQ7ClIKcOHGyss74zwhFGgdUEDQGgKGaYI4ADIZyMHjTpjLdp7dt2+/ODjgKgFxVHnlsW78h3qA1Cl/o379fSUGIlcK6deuit2/f/oTL5fqeIs9C4E0C5Pd+nPT94HD9U0QerBEXt3Tv3r3NK13oojTy/eA9CihXmWKD4XzBGAAGQxWQnp6eQ+Dn4DgAAC3KOufcuXNHAxjubW7Mycn+f+UQsVxs3769xrZt28bFxMTuAfisALUd5/wiwGyIpJF41qH8C7yf+9pdSa7/4YcfbqmKd/AhIo28fwPAEZK/VKU8BkOoMAaAwVBFaEFhZTpvEKAArRcuXFjqo7n58+c3B/iCV8fmEnJzWlpaXsiEPUc2bdoUn5WV9bRt6+9E8AyAeo5kQCdJvGbbdquEK68ccuWVV84SkU6+nb8IniIxToA8h10UJ8CkH3748ct9+/YlVPb7AADJRo4YwCq5SWEwVATGADAYqghCPAZAYNmbuGPHTvYqzTyZmZmWbev3BIj1zvdEampqVojEPCc2btxYb/PmrL9Rqe9E8CcAtT2iCCD4EZAnXC6rcUJCwgMtW7bcAXhuKwjQ038aIGpR06ZNn1NkEsCvHccEADBQKbVp//79f9y5c2dEZb2XiMQJEOevOSCyu7LWNhgqGmMAGAxnQEQoIhVSNlsEW4IuwwECWBbTSjNPzZrx4wTo5Z10Tv/+Ka+GVNAzsGnTppYbNmyaSKrvBfIUAH+hH4FsIXCH1vYVLVu2fL558+YBrvM9e/a0BdDA2zy+d++3GwCgSZMmWw4fPthNRP4sKDwWABCpRTJiYmK37t+//1YRKfeVybORn5/fGIFXAI0BYKg2GAPAYCiBSZMmxQCeO+wVMb+IvRQIDgIERPQ152p0zJkzp69AMrzNn23bfUdFyetkw4YNKV9v2DBda9lK4m4BIuF39XMRiaGtW7Vq16pVq3cTExPzi5vDrfXgwt2/np2SkuJPgpSUlFTQtGnTPxJIArAKCCiZcAWA9w4cPLhl//5D6SJSYb/HLMtqEtRljgAM1QZjABgMxTBhwltXARWn/AEgPT19q4gU3nMvjANoOW3atMFne37OnDn1tOAjeK/zEnLP1Vdfvb+i5N25c2fE+vXrb/nqq6/Xa5EFEAyD9xo/IDaEkwHp0qZN65TWrVvPPOt3pzHK84MAwPTihjRu3HhTo0aX9dLkWIgv+M4fJNiSlI8PHTq04cChQ3fu27cvKiQv6hRRa78BICLQWhsPgKHaYPIAGAwOMjMzraNHj6aS7uW33nrn6QpfkFwAT3nbgLTAIupxALNLeiwjI0Nprd8HVUPvA58MHDRoSkWIuHr16mZKWWN++eXEb0FeQgog9NXHOw3R75DqhXbt2pyzcty1a9eVIugCAALkEPiipLEkNYDxe/funepyuV4W4AZn8iCAbSl4MyIi4rnDhw+/5XK5JoSqJLCINCEJEYAEXC6XMQAM1QbjATAYvLzzzjuRh48evaF27doLxowZU/HKHwChpwdVzPU2dMrnn39eYjBg165dnxRwkHf8EctSY0Mpl4io1atXD1u9eu0XpNoF4AkAlxTKh8MAM9zugqYdOnQY265du1IpRtuWWzxTCUTj0+D4gOJo0qTJTw0bNhwlmqmAbPQH5hUOqQPgcbdtf/vzz0fmHzlyZPSJEyfqlEauYEg2caziBrCvPPMZDOcTFRLcZDBcaLz44ou1wsMj73C51GtjxowpqKx1MzMzo5Ry7QdRkyQIegrOECC5Iz8vt2N6enqO85mZM2f2E3A+ScvjMeAtQ4YM+iAU8qxevbqZbcstSvEOkJd7RPHJRJD4FqJeAOx3vSV/S83ChQtdl13W6DsQl5GEIgc0b958fmnmEBFr//79d1GpvxC8xCOeV0ZPFkRfu4BQ85TCpyIyLz4+/rvSrJOfn78YQF9vEaAdYWFhLUvzvMFwPmMMAMNFz6uvvtpQKddDtl3w9IMPPljpd+c/+WTKmyDv9BkAXuUPr3J85Zprhj/kGztnzpx6Bbb9NcGG9OTTnZGWdvXwM81/NlatWhVXoPUNCuo2QvrQszgClb9aqyj/2L1796flLSm8Y8eO60h+Cs/7fde8efPmXjd/qdmz51it6Oj8JwGMBRkdpPyDjQEQ3EVinlJqvsvlWhMVFbX3TPPn5eXtIXm599/HFJfLdUOZXtpgOA8xMQCGi5rXXnuthUD9C9A3VYXyBwCt+a6ycGdx5YE15IHPP5+xdsSIYR9kZGSoggL3ByAbegoH4BSg7y3LmuvWrQvLzc0dIMJbCtz2tSSjAA2QcByvayrMsIkXe3TpvChErwsAj/qKAAn4blmVPwA0axZ/HMAThw8ffklr+b0Ao0lnkSH/2/iKLl0J8EoRuaegwI2TJ0/+THK9UuprrblJKdkjIt/FxMTsFxErPz//Mt9aIrKlGBEMhgsW4wEwXLS88NpriS7hVEUZNnbs2G+qUpZPPpmyHGRP384/wBOgWKCAMYC6DMRfCo8KZFxaWtpz57rG9OnromPisq9WwutIDCUZD/96jl0yeQyCtyyLE7p16xbSa2/bt29PBTnf61nQtu1q3qpVs+9CNf/+/fsvtywrg1Q3k3T5d/8OT8A5tnNJ7CXZwve5Ukx3uVyTQyWrwVDVGA+A4aLkX6+91sLSMpeUe8aOfaBKlb8H61lATwNQWBrQh0aYEG+DoukvHSjfnDp16qxVCBcuXFhXaw5RSq4TnhpMYbTvs8Kdvvh2/psV+Fp4mOuDsp7vnw0Bfu/blJOYFkrlDwANGjT4DsDt+/cfywgLs38H8E4Bop1fp2f5wi+5hHYkwBbOz21bGw+AoVphPACGi44XX3zxcirXUpLTH3pw7H1VLQ/gyTg45dOpGwi2cwQBBgcF+s+0lWJaWlrarOB55s2bV0dr3RdQyVRMIdmG3u0tHbt9RztHEVO0Vm/27dtzcUW+47Zt23qCXO57J6XYMyEhYWVFrnnixIm6BQUFY0neT7JuCXEBQe1CT4A3+A8k88LCwmJJus+8osFw4WA8AIaLimcmTIiXfPcXBMK0XfBUVcvjg6R8+umnD4tgvsARBwDPVbmANjE9LS1t1vTp06OVimhN6o602IFAb9vWbUgq/3DfBXYEtgl8JZC3tNv9Ud+UlOOV8Y5C+nf/Ilhc0cofAOLi4n4GkCEizxw7dux6gneD0s//pRQbJ+CQufDr22GUv6G6YTwAhouGjIyM8LiateeQSIbCbx5+8MEPq1qmYD759NOPCaYXdyPA0f6GZA2CDTzH0wzwDpTcxs8APwKst1JT+2yszPfaunVrd4Ar6AEk0q666qoiHozK4MSJE1dprX9LqhtIXHGOcQH/DQ8Pv7kq5DUYKgqTCMhw0RAbV+tlQJIFsuL/Hnjgv1UtT3G4lHoUYG5QeYCARPgAWkDQIKCKgPfzom3ZD8EEiO7/88+H66emJj9Y2crfU1AJL8J/uUA2tmjRosQshxVNXFzcjlq1aj1Rs2Zcc6VUBwB/EmA9IP4dfnCKISHN+b+h2mGOAAwXBf944YU7CNwDAND4Z2UUzDlXMjMzrwSsVCr2d9s6hWCkJyjP6/r3uc3hzH7rOBgo0uZ3AvmMxJTly5avyMjIKPM1u1CwdevWXwPs7hFVQMHz58v3HxsbuxHARniOCWJyc3OTNDCOIlc7j07EttdXmZAGQwVhDABDteef//xna4ia4PGgy7eXNWo4rSrlef/9KQ2scHd/BaSCKhVgU/j1oe9o+ixxAHCe38kPArVSQRYocv6gQQN2VsZ7nAvr1q2LFsGzLDRgtrZs2fLjqpYrmGPHjtXKzs6+XSl1DwRXBcYBiERERKytOukMhorBGACGas3EiRPDTpzKft9zrQuwoV4ubya70vLhhx/Gi6hkWkilsD/obuWJO6MnGU5Q8p9StL8npHdaWtoPlfk+pSEiIuJxAI08LYFo9RTJSv3+z8Tx48eTlFL3krwRQLTW4t34+4oyASR2kTxalXIaDBWBMQAM1ZpfTmY/SaATKBChDV3wUUWvOXHixOiIiJjeSqE/yFQt6EiKBU1vEb1Cn35hUT2U0D6jMdBUCwcDeKui36ksbN68uTHAxwC/6395YmLLz6taLhEJO3HixEgRPEyia2E/QMeNAF9bBGuqSlaDoSIxBoCh2vL88883h8iT8JVzBdY8+uijP4d6nYkTJ4a5XFHdaCGVkP4kuxMS7lHVwcq+xPZRIVYC0ohg+yLJgIpPawsQz8+ZM2f64MGDD4X6vULAeADRHuVPgBhXlcIcO3aslojcffz48bEgGxc9Uik+ORBJ4/43VEuMAWCotgjUSwQiRcR7lQshuXaWkZGhGjVq1F6EqVTsT6g+oI71b99L3Nn7lb0IZQeAlSCXK8jKUaNu2LZo0SLryJGjux3DziUIsHZBgX4BwG9C8W6hYtOmTb8WwXAUfg/TEhMTl1WFLIcOHbpSKddDWuvbScYG1wkIsq02CfCTMwhQa208AIZqiTEADNWSvz//fC8Aw5yZXEgpswEwYcJbV1mWO5VUqUKmaGEd+jfjPrd8ifvI0xSsJblcNFe67fCVt912/ZHgNT7+5JNhCmzMgDkBABsFyCMc7moUGhgkbp45c+aXaWlpk8r6fqFk48aN9UT4MnxGjyibCpWedOngwYM9lVKPAbwG0CpQ2Qco/3yB/hTg+Bo1aizLzs4e75imICoqakNly24wVAbGADBUSxT45yA1ap84cWLTuT7/yiv/aWRZdiqI/opMBe1GAv9RQqEC8dsXAdv0fRBZLsRKiqxo3LjxhpSUlLNmkaPIfQCLVgQU/B6wtlhh9noIahcXFwDw9S+++OLroUOHbj73b6liEMEroNT1XkmEQP6dmNgmq3LWFh48eHAYycdB9nae6xdTIfAHAhMtS70ZGxt7wDFNu8L5uJlkTmXIbjBUNiYToKHa8cwz/+pIpdcDATnd9zz26O+uKOmZ1157rY7WTAGYqhRSQVzlPf/1HR8guO3JzMcCkl8rYqUIV2jtWjF69G9KHZX/v//9r4VSru3wJMpzZv5bNvL66/oAwOeffz5UwOn+bHpFM/99A+guaWlpJ8r41ZWbr7/++lpSTYX3+yF50LbdLTt27Fih6YazsrLCa9eufRPAx0gkFmbyc+T597QFkAVKqQm1atWaFpzeV0SYnZ19jGRNgFCKr0dFRZ0X9SIMhlBjPACGagfpvl+ksJALAIiWXc4x48ePj83P130ApFJJf7ct7Uko/331ksPzf4bISoArbSXLabvXjRkzJgSV81wP+GvyOYIERdHvOh8xYsQXn02b9v8A/K2EZEAtQE7OzMwcnp6enl9+mUrH+vXrLwE4wbnJJvFYRSr/w4cP18jLyxtNqodF0Chgtw/AcQzzC8FJInpC3bp1t5c03/Hjx5uGhYXV9D0lgqUVJbvBUNUYD4ChWvHCCy9E5eYVHCIZ66zmBvIti9YkQPcHmUqyG8mwYqrjOdua5DZCVgqt5RRr5X333bkj1DJ/9NFHDZVyfQsiMrACIGfeMPK6ocHjP/98+lskfwuHpyDQE6AyV69ecVNlZgAUEa5fv2E6FYeycPe/uF27tikVkfVv9+7dl7pc4Q8qhXtBxp+hwt9mISdQ5IN69eqdOtu8J0+eHAnyE8/XSZBsFB0d/WOo5TcYzgeMB8BQrcjNLRgMItbfUVj97k6BvrOIxSsC8Sl94BQgazS4XAlWFhTkrnz44YcrvFIeaT0pkMigzH82RT9Z3PgDBxrcU7/h/iYEBxSOd1rzOr1r955HAdxbcVIH8tVXGx6kwlCHt6RARN8fauW/b9++K7WWR0jeTkqkgMXdjswHZSqpJtSrV29JaeYXke6+oksisjMmJsYof0O1xRgAhuqFQpqzkE5QytzghLrfCblCASsVZfnRo0c2Z2RkVGrJ1w8+mNJIYN8VnPxHgW/ccMMNxQYtjhmTVDBnzpxr8woK5kDQq2hQIEDIPbPnzJFVK1eOrWhPwNq1azuC8pxnffquML7YsUOHkAX+ffvtt0mWZT1u2/p6kpb/36XjbqSAPypgostlvXnJJZfsL9tK7O77r4bk4lDJbzCcjxgDwFC9EPbx13Lz3v/3ki8a66GwUoHL3QXWyieeeOCnKpPTCy33OACRgcmBeCw/P/zpMz03ePDg7JkzZ6bZtswD0AVAMcmCeG/Pnj3rZGZm3lJRMQFZWVmxp3Ny/gcgAoXn/ttPnz6dEYr5d+/ePQjA4yD7O29cOJS/ALJQU01o1KDB58FBfaVBRMJOnjzZuTAToBgDwFCtMTEAhmrDs88+W1MLj8F3U89xrg/hgCeeeGR+FYsYwPvvZ15pufQWkhHeGwUgAUX14KhRI189lzlmzJgRL+Bsgl2DbgQ44gIwNzcneuSIEb1Phvod1q5d9x7IWx1n5m5tqd5J7duvLuucCxcudF12WZNRloXHAXZw3CjwnvEDBE+QnKS1PeHyyy/fFop3+eWXX7qSXO2LI7CUahIdHb0vFHMbDOcjqqoFMBhChZtMQDFGrYhAKR1XBSKdEVr2S/DtnAF4PRdbjx79+d/nOsewYcOOhYe5Ukn5MvCwXRwnIRwYFZWzbt68ea3LLbSDtWvXjhXgVjhWEsHzZVX+O3fujNixY8etjRo1yiLlvyLo4Jzbu8IOAuO0tps2adL4gVApfwAQkYGAd0WR3Ub5G6o7xgAwVBuUjSZFOsV3HKBqVrY8Z+K///3vcAL+CH+vuhZN3D9mzJiC0sw1ePDg7Ojo6BEEPvNOFqg2RSBACy1Y+eWCBdeEQHysWbOmnxa84FxMgM1xcbF/Lu1cO3bsqLtjx44/aq1/APmeCFr4ZvR8KygAkAlI8uWXX96yadOmzzVr1qwigjMHepc15/+GiwJjABiqE0WUvE8RCnWtSpalRN55551ILXgJQKCyFrx906hRi8oyZ0pKSm529qkbCLzq3PsHbaDjaOvP5s+f/0xmZmZ4WdYBgOXLlzcVwWQAYQ7lXyDavi0hISHvXOfZtm3b5du2bXtFa/lOBBkC1A0S/ScCGZalml5xRbNfNWvWrMKU8qFDh2JJ9hCvxQFgUUWtZTCcLxgDwFBtIBHlbIs4XdOMr3SBSsAVHv4EgCsKlb8AwEGl8Hh55k1PT7fT0oY8COFYAG7f9jnwhAHUgnG169RZtWDBgsTSrrFu3bpo5XJNFeASv3fFs8pTXbp0+fpc5tiyZUv7LVlZH2otO0XwAIAYCXRbLAIk/Zfjxy9v3rz5ny6//PIyRvSfOxEREf1EEO47ACA5t6LXNBiqGmMAGKoNGiwxIx9FJ1SmLCUxadKkNtB4Mkj5g5D/S09PPxqKNYYOvXq8aAwn5Xig8ncaA+wognXzFiz4XWZmpnUu84oICwrcb0PQEU7jCvi8S+fO/zrb81u2bEnZtGnLLAG+huDX8N5C8ir/kwBfV4ptWrRISElISJiclJRUqqOQ8qC1HuT7WUQ2xMTEVLjRYTBUNcYAMFQbFPhLcf0iAg2WercbajIzM8NBTgIQ4VT+EMy88cYb/xfKtYYOvXq21joJwEbfIsUECUYS/FfdS+qtWrBgQeezzbly5crnBfhVQNAfsCc/IvyOkhL+ZGZmWl9v2jRq06ZNa7SWBSCuRkCSZdkGkbEul9WoZcsW9yUkJFRK0aBgSA70G2Pk7KqQwWCobIwBYKg2aC3fF+317bBxVUZGRpXmvTidm/s0wI6BvTxOyj0VsV5aWtq3kRHh3Ql5KzgoEIHtJKXUmgWLlkyaN29eneLmWr58+X0CPuoZ7+/OE22P6tOu3bHg8du3b6/x1YYNdye0aLGVWjJF0MVv9Ag0wBkkBrZu1SqxdevW4xMSEqqsgNGRI0caiUgrR1eZy0YbDBcSJhGQodrgcslOW0PDYdgWJo9BRHhs7JUASiwEU5FMmjSpm4BPODL1wZv8Z+xNv76pwq6bpaSk5AK4a/aXX64C8CIEsYVVi+H/grRAkXKLyxU2eNGiJRki9n98JYyXL19+o4CvOsd7c+U91L1796+c661evbGZy6UfyD6dcyeJOO+lfS9yAKL+Y2v3xA4dOpxPKXYd7n/8EhdXY1VVCmMwVBYmEZChWvH3Z57bCEc9dwCOZEC4e9y4x/5T2TKNz8yMjcnJ/YpgC1+yH2/Rnsm/+c1N6ZUlx+zZs69UynofZPfiiwg5iukobqfIOACnqKyZJMODPn+hR7duj/jmXrt2bS9APUziWpIWHPORXEZivMvl+jQxMbHSqxSejWPHjn0CYKQn/S+m1KpV64aqlslgqAyMB8BQvRBZDLJd0W4BiGEAKtUAEBG+O2nS2xC2CNz5ywFlSaXWmb/66qt3LVy4sE9Bgf0UgD+A4gosJ+zwDGi0BPkZSBuA5XSlgJjcvWvXxzZu3BiTk5N/MxXuFUGHgFK8ItlU/FBra3znzm2LrWlwPnDgwIEYERniM1gAmPN/w0WD8QAYqhV/+9tzKVRYENzv3Ylm5+Zk183IyMitLHneevfdR5Twn4XlhuHNYs9ht95688zKkiOY+fPnd9WC90m2KKkksn+372yDy0h5kLTuIHEryJqO8r8AuYOQ1wG8m5SUVGxQ5vnEkSNHbgA52ecN0Vo3rlOnzg9VLZfBUBmYIEBDtSIhodkSQEo6X46JjI1NqSxZ3n777X4Eng2Imff8/VJVKn8A6N+//xptuzsJ+O+AhAkAnPf7g9viOdf/CpAHBKjpDeqzSXwGyKCkzp1aJSUlvXwhKH8A0MANviuSADYb5W+4mDAGgKFakZ6ebhOcWOIAW26tDDnee++9ywT8GNp3zOa/jbA2MjJiXGXIcDYGDx6cPbB/yr0k/lGcsi+uTZF28NYcBGBD5FnLUld06dLlui5duswt6Trg+ci+ffuiLGft9QAAIABJREFUKBjqeNvPqlIeg6GyMQaAodrhcqmJAE4F93s3utc///zz9Sty/UmTJsW43fZUCC4Nuu9/HJBfVVRp3tIwd+7cmnPnzh87b978LVq8GQgL0/p6fzizMQARC1CdAVRawp5QEhUVNRhArKNralXJYjBUBcYAMFQ7HnvssUMQvubsc3i5wwXq0YpaOzMz08rLd39UeO/dJwCgKaNvvfXWPRW19rkwe/bsTnPmzH1DhD8C8qoAiT75gtIG/+zvBorLHeD7YaDb1htWr179axG5oGKKRHCDIx/jd/Hx8eeUythgqC4YA8BQLcnPD3sOwIHiPhORe1944YXLKmLdY7+cfBkiwwPO/QUQ4Su/ve22TypizbMxY8aM+FmzZt03a9actaD6CsRoQGKKyQz4PcFnFdFORMYXN1eQD8DXrgfww7Vr1y1YvXp9+4p6j1Cyc+fOCECGAf7s/2b3b7joMNcADdWSjIyHjz/zzHOPCvBB4CcCgNEFBfoFAL8K5ZpvvPHmo4Dc779a571Up4GldkFOhXkdiiMzM9OKjq4xQCncDvBaASJ9t/iCrvQdhujJVOq/KSnJK3xn+IsWLX4jOFlQ0RxGCL5CmExlf7127dqpSqk/de7c+by9/lerVq2BAGp6riwCVGIMAMNFxwXlsjMYSsvfn3nuvwBuAnzX2ByJgRSue+LRR0MS+PX6G2/cqMAPASr/dT9Psp0ftXZ3Hj169MFQrHM2pk2blkhaN4O4hWSjosl+CBKnQPUZLP43XKm5vox/PpYuXRrvtvVhklbAdUCoMUqJAHwaZKMzXhckBcQCinpt9+6d09PT0+3KeP9z5eDBgx8qpX7tSf7Dg3Xq1L6MnpwHBsNFgzEADNWajIyM2PCI6LWAtAQKlb/XGDjistjxkUceKVcq3gkTJ16rwEyCYUH3/fNEmDx69B0Vmlp26tSpl5OuG0ncRKJdkLL3Ked8ArMBfuR2508bPnx4iZUTFyxYnE6Fj4OU+/fRUZEJSUlJBQsXLowMD4+6H5BxSrFusPIvNBj87f0ApwBqcseObZeR1BX5fZyNQ4cOxQI4ADCGJJTif+rUqXN3VcpkMFQFxgAwVHv+9rd/tKHSqwFEO5Q/SEKRG7V293niiSdOlmXuCRPeGEIlnxEMD1L+EKXuvvvOOyok8+CUKVMaKOUaqSE3KbIHQXoUL5zKPw/EPMKaYln4/Oqrrz6ncsMLFi6eTWBwoOdA7uvbt+/rznGrVq2KE5EHQeteQhoGKP/A5ECOttoPYIpS+OTIkSPLg70PlcHBgwdvBvmBz0CyLCutdu3apgCQ4aLDGACGi4Jnnnn+JoF8QFIBQZ4AwfzTp2OvycgYU+KuuDhee+3f/ZWFGQQjg5U/yVdGj77zoVC+Q2ZmZhNa1vUKHAmwJwhVmLnPr/xzQM5WUFMiI8NmDBw4sFQJeb5cvDjBpWWHZyrfTp4/ZmefbJ6WlpZX3DPr1q0LKyjQ1yslY0HVu2TlX6R9iuRyKC6G1ovz8vLWJiUlVfiVwoMHD84EOMR7TPNL3bp165Gs8quZBkNlYwwAw0XD/2fvzOPjqsr///mcO0laSumWZu69MwmhtGwBBAoIyL5TpOwFQdkUEFkU0J+7IuIXFAQUkF3cEKiAILRWQMsuCgURu9BSCO3MvXe6l7a0Teae5/fHJOkkTTJ3kpks5bxfr8CcO88955npzDzPOec5z3P99T+7CMRdaDFurQa7xRy9EIZNJ37rW9+KZDB/+atfHWRB/ZXEsJZ95Px9/+kjR24zuRT73lOnTt1RhCeBciqp9s7N8/Nm+rnx1oKcpiiPDRkyZPoxxxyzrqfj/f0f/7iZ4JXt9/V58SGHHHRPlPtff/31PQFcBPB0kGOKcAZAch2If0L4hmXxTcuy3hw/fvz7pUwuFARBDcA0yRgJQKnf1FRXn1+q/g2GwYRxAAyfKH5y/c+uVMTNHbcCWszqu6RMvvrqq+d318ftt991FKj/TDLP+Lc5E+80bRx64BVXfL5H9e0feOCBIVVVVYdCqUkEJxHcHu2di1bjv4qKT1Gsx1avHv63888/rNf1DWbOnLm11rKI5Ki8ff05IvpTxS7Vv/HGGxUi6khSn0mqk0Bu08HYt1QKLtherRTfAvgfIWYrYHYsFpu73XbbrerJa/R9/zJS3db6fopYx8TjY57pSV8Gw2DHOACGTxzX//TG7xK4DtgsKBAk10Lhyq9feeV9nd17222/OgnEwySqcsa43dJ/JhtTn77sS1/6sBh9HnzwwW1DkeMUrONBHE62xCogb5aca6eEnEaLTyCb/UepMwo+++zfr1GKP8wP6gOsEw477KCne9PvzJkzh2yzzeijSH0cyWNJbhfR+HfXThOcS3IOiTkA5mWzQ+ZMmOAs7U4X3w9eJbF/S2GjTE3NWBP9b/jEYhwAwyeS66//2UVUvCO3FNxhJYCEgM8hxq9+/Yor5rTec+ttt31eQT1AItaJ8f9YKRx+8cUX/6vQ2NfMnBkbt3jxZ7RWk6gwicSunRh7gAwJ/BsKT1vk9ClTpvynXO/HzJkz7TDUC0Bu3Tq+UvjHoYceekSpx3r77bd31MBxCjya5Gc6rg60D2Qs3G4LVsy1l5OYQ3IuyblKqTkA3nVd98NMJrO91noBW28S/tK2a0oap2EwDCaMA2D4xHLDDTcdA4WpCtgGecY/t5JPkGym4u8ltK63LH0kyDtIqrznW41/llQnX3LJRV3OlO+7777xtKzDCHUUiaMAjsyPG8iLI8gwF7k/AwhnnHXWWcv64r145pnn7qLixXlxBU1aqz2PPPLgOYXv7jlTp061GhoadtMaBymFAwF+BkQiorEvpr2W5EoSta3PA7KfbdsFHTaDYUvFOACGTzQ33HDzblR6GsnadkGB7ff1Q5KKLSftOj4vUBde9pWL220Z3HvvvUlAHQ7ycACHkazrMLtvNf4fE3wJCs+KUs+e87nPvVPKoLcoPPfcc7uI4G20rIa0rIf85IgjDvteX+rRyrvvvpvIZmVvEvtQYR+Ce5Mc3Qvj31l7YTxeM6Gv32uDYSBhHADDJ54bb7yxRqB+S/JYAB2Nf7dtgtdceuklP7rzzjtrSB4mVIcR6nASE1qXtTss7a8D+S8CL4nFF9euWvXKFVdc0enxur5g6tSp1ogRo16i4v6bZtpYOHTokN0OOOCA9f2lV0fmzp1br5TaA1B7KMU9Se4Boq6nzgAgP3Yc5wf9+6oMhv7FOAAGAwAR4c9+fstVCvg/kpWbxwUAnRj/+SBnkDycRANbLH3e8wC5TJGvCuVFaPWK1k2zLr744gFTPveZZ565SsCf5xl/AdTRRx552HP9rVshFi9ePLqpqWlP0toDCntQsBfJXToz/h22WSAiu7iuO7e/X4PB0J8YB8BgyOOmm26aCGU9BMGE/KDATvb9O2t/RPIdkLMomKWUzLrwwgvnDNRl5ueee25cNtT/JTmsxfiDVHcceeThl/W3bsWwYMGCbWKx2JkAv0Zy5+5n/wDJNx3HmdjfehsM/Y1xAAyGDvz0pz8dHotVXAeqS9lSEKeLIMG2tpC3XXrJxV8dqMa+IzNnzoxt2LhxJqkO3PSa8J5ovUdvEgn1JQsWLGhQSl0G8gtsyesfaSsAuMp13Vv6VXmDYQBgHACDoQtuvvnmfUF1N8A9osQFgOpZhfD8Sy65JN2/mhdm+owZNxD8Zt7SfyiWOviYI454tb916w4RsebPXzhZKVxG4vBuZvprlFIzBDi9w/NNikw6Tvf5AgyGTwKqvxUwGAYqV1111b8/Wr1qH5D/D8DHgEDaze/btwl9lED9984775nSx6oWxbRpM06E4P8BACT3HxFcN5CN/7x583ac++6718+fv+BDUh4HcHiL6i0IBAgh/Bsgn6+oqLC11n/q8DxE42lj/A2GHGYFwGCIwE23376tFeqfEPxc7khgl3EALW15KmZZl3+pyKyA5WbGjBnjQ43XSYxs3RMX8h9rVq86uhS1C0rJwoULRzQ1NZ0B8FwQBzBv5aVDZsD/CfG7yljswbq6Oq/1/sbGRQ8pxTPzgwAB9dlk0pnWf6/KYBg4GAfAYCiCX/ziFxOF1s8UWpafuw8KXEelfgSdvXUgRP4/+eSTw2OxipdB7t5q/EEGFTFrjyOPPDLT3/oBuWOJO++88xFQ6hwFnkJyaBeZAJco8iER+d2ECRPe7NjPBx98MEQptYRUw/O2BrxEwt2WZJ+XIDYYBiLGATAYesAvf/mr40H5KcmG9nEBmx85Izkbor510UUX9Cqnfm944403KvxgyVMkjtmUjAhZRRx97LHHzuwvvYBcQOKYMWMOBdTpJE4BUb3J2G9yqEhuVIpPkfzd6tWrZ3RXOnjRokWTRfBkflyAUvxpIpH4Vt+9MoNhYGMcAIOhh1xzzTVqzJixpwv5HUXuXjB5EPCCZfGbF1xwQZ+nn33qqafvB3lBnvGHorrquOOO6Zdo+JkzZ8ZGjhx5GJQ6nYKTSVZ3srQPECGELyqFR5qbm6fuvvvuK6P0/8EHH/5WKZyTFyQoSnHnRCLxbrlfm8EwWDAOgMHQS0SEd9xx92RSvgdy7w7JgjpuDYgQT8BSP7nwvPNm9YV+f/nLX34Aqh/lRfwDVL87ftKx5/bF+K28/PLLw6uqtjpaKR5P4oT8mX57469Cki9B4U8Sho/ttttuRW1PzJ49u3LYsGEByFFtKwmQV+rq6g4s00szGAYlxgEwGErIHXfcdSyV+iYph3YfJAgQ+BtgXX/BBee8UC59nnjiqUupcFuujEGr8ce/h2211SGHHXbYhnKN28qrr84aX1GhPytQxxNycFuWxZbcA5uMP0NFvCSi/hSL8fGGhoagp2M2NjYeL8DTHc7+f7Guru7XpXpdBsOWgHEADIYycNddd31KQ12uyLNJDOnWGQD+BfCONWtWTS1lXYAnnvjLxSDu3GT8CSgshtb7n3DCCWXJVfD2228PW7du3UG0rKMoOJ7kjh328fP39TWpXgL4p8pK67HeGP18GhsbfyfAF/Jm/2uGDh3q1tTUrC1F/wbDloJxAAyGMnL33XdXQ6mLIPgKqRJdBAm2tpcS+DUpd59zzjkf9Gbcxx9/8gIq3Js7sti2778KEjtw8uRjZ5fm1eWCCzds2LCfCI9QioeD3I9kRevsvhPjrxXxEoA/hWH42L777lsSo9/K4sWLhzZnswHBbdry/pN31tfVfaWU4xgMWwLGATAY+oC77767gox9FgpfJHgsSavV+G9aDWhrC8mXAP4+m9346Pnnn7+qmLEef/yJ80Hc18H4byTkmMmTJ/dqu2Hq7NmVNUuXTlRKHQjwcJAHERi2ydhvWtrPa68h+QyJ6WEYTttvv/3KduRw4cKFp5DqsfzMgJZSu9fW1r5TrjENhsGKcQAMhj7mzt/+NhEL5TxCzlfg9h2Mf0dnYAOpppH6sVgsNn3KlCmru+v78cefuFIgPyfbFv4BQivic5MnT55arK7PPvvsCKXUAYD6DC0eRME+ubP5XRr71vYCRTVNhNO22WarFxsaGpp6+n4Vw8KF708leXre8b+X6+u3PagvxjYYBhvGATAY+gkR4a9//btDqXAuyZMIjCjgDDRBcSYgf5aKihlnn3rqh/l9Pf74n68D+J2OiXNE4cqTJ0++tZA+11xzjdp33wN3isX0vqTaB+CBJHZF3kpCm2Hd3Pg3K+JFETVNKtS0gz796fnlfO86Y968ecMrKioDkltteg/w+fr6+gf7WheDYTBgHACDYQDwwAMPDFFKHQdYnwPls0TeLLtd0GA74/6ukM9S4RklPJ7kxZtlzQNuPvnkE6/ubMynnnqqTqmKfUjsS6X2JWQiyOHMM/CbdOiszQyJ6YCaXllpPbPffvt91Hfv2OYsXLjwEoC/ypv9L8lmm+smTJhQssBKg2FLwjgABsMA4/777x8ei1WdSMUpJI4iOaQzB6DN2HfRJvHI22//56wf/vCH8vTTT48XkT1B7klae0KwJxVqur4fmxl/kutBvkLw76T8/ZBDDplFUvfz29XGe+8tfKdlxaI1n8AN22237bf7Wy+DYaBiHACDYQAzderUrTduzB5D8iQqHM+W5DYFtgoA4mOCv6fiLgT3ADG8g3OQt5TfZTsk+AaZM/hKqVf7IndAT5g/f/7BSlkv5GUS1EpxfH19fa9OUxgMWzLGATAYBgkzZ86MBUFwiFCdSMjxpBoXxRmIaOxBsiln8OVFki9ls9mXJ02a1K/L+lFZsOC9R0BMad36IDFt3Lhxn+1vvQyGgYxxAAyGQcqDDz46oaJCHyO5Y4WHEhzWllI3Pw6g2zaWArxfLD7z8UfbvDZlygHr+/t1FcucOXOcWEXFh7n8A62xD3LC9ttv32/FlwyGwYBxAAyGLYDp06dXrVu37kDSOobE4SD3IGgVihNoaWep+D8K3iAxSyn1xqpVq/47ZcqUPjm611vmz59/Lcjv583+F44bN26HgRSfYDAMRIwDYDBsgUydOnVry6rcj8SRSvFAQO0LSkUEZ6C1nSUxH8QskLMoMqu5ufn1SZMmDaiI+g8++GBkU3PzBwRH5uX9/+r48eN/2c+qGQwDHuMAGAyfAJ5++ulRYRgeJOQBCmp/EHuT3KrIOIENBOcCeNeyOAfAPJLz1q1bN7+/HIN58+ZdR6rvtjouIFaH2WztTjvttKZVZvTo0dsMraw8puO9ITDbsqxKZLPJdCbTtl0wfvz4qvVr104OgeeDIFjaV6/FYOhrjANgMHwCmTlzZuzjjz/eQ4T7k9gPuRz+44oMGmw9HhiC+ABUcxVkLmC9S+o5zUOGvHfY3nsvK9drmDdvngvwXZJbt8U2QN0yYcL2V+XLxePxGou8Cjm1zwfkzyJcRUueFa0mE3JpKBgfBEEjALhufDKFTyjw0MW+/2K59DcY+hvjABgMBgDA9OnTtyG5O2lNhMJEBU4EsFOXmQC7zheQXwRoI8A0FXySHoQ+qTxYeN8CfBHx9t5778ae7NfPnTfvDwTPzgtsDCGyww477PB+V/cknPhblsapizKZ9wHAdZxfELK7CKZ5QXATACQd548C2V6B3zAOgGFLJtbfChgMhoFBy5G/l1v+AORqAQCyJ8hdIXo3gdqVQAOAERBB66Y7ALS2BS0zi9yDKhDjAIxDqzgFFEByyXow6823Nsx6880UwaUklwNcoRRWiHAFqZYrJWtIfqyUWk1yndZ6vVKqFoKz8geCyF+6M/5dIYJHSZ4F4CbXdbcS0SNBfAjp8VtpMAwKjANgMBi65KijjloN4PmWvzaeffbZuoqKigaAu4KYAJEdQO4ogJ2zyZ06A120ZQiE40GMFwCkQIRtzoK0yGstbSsQ+b6H5MQAomC9g05RsgzCdbU1NduHCPeB8CkQh/WoL4NhEGEcAEOvSCaTQ1U2O07IpAAUrVexomJ+KpVa0d+6GcrHUUcdtQjAIgB/zb/+2muvbdPc3DxBYO0AYAIV6gmpF+G2IGoJVHTlHOQQQNhlWyBgJ20B3txxxx16vFxP6qmhUqcQ2CcrclkMNA6AYYsnlnTsNzpeFIGXDoLJvek4YdsPkxjf/ipvSfn+ZpW5XCf+uALrciKYmfKCb/RmbEP5mQhUBI59g4TZL4fEVmhdL1WEhFk4jlPv+/6H+fc0NDRUzp49e1CcLTf0jJaCQLNa/toxdepUq76+3hWRegDbgoxDdBJkHGBCBHECSRDDgK6NfWdtUn7RK8VVxeNKss9AZHEmk1mScO1edWcwDAZiAkzc7CoxsTYe33VxJvO/nnRaF4+PC4kpsnmQYbwzeYINAuwAACKyqCdjGvoUBq79OARdpVpd4/t+279jMpkcCp395qqVy2sAfKVvVDQMNKZMmRICWNzy91JXcq+++urQYcOGjQkta4wVhmNIVmvIGEU1EsIRIhgO6K0U1TCAIwGRbDZ8OIoOhJqrK6xNRxZFllO4NuWlViQce44Q03NyWCIiA7LugcFQKrrcAtAWpwDokQMQKpwBc8JgiyVh26d2ZvwJfCTA1hD8Dy1LAol4/LMSZn+BXBDYA32tq2HwccABB6wHkGr5Kykp3z8rv+0FwbWtj9N+cE6bnBdcVuqxDYaBRtcxAILTAfygR70KzzTmf8tFyJPZLkRabq2oGvqjxsbGVQCscaNGbd32lMJdABLFjpG07X01eTKgd6TQErIRDJ/2vCXPASY+22AwGHpLRwdgDYDhLY93Ssbju6UymXeK6dC27V1A7N7SbBfe0xVCfT7ArQBAKVlSzHiGvoeQCXnNRWk/83UAYUs7fH/lytU97bu+vn5k88YN92sIQfmNiLqLlgqJ7I6irTNdx/6egOd0jC8wGAwGQ3G0dwAEz5M4RIBtAEAsng6gKAcgpnCGtM7PBK+B2L/QPZ635NVixjD0O61OIgSYi03Gv1eMHj16m+aNG/5G8GdQ2qO2dgMQl2zWr9D6jcalmQsT8fh+JP7iOM5k4wQYDAZDz1EdWhsEeLKtndsGKAoRnNn6mEoiBeYYBhlERdtDwcpSdTu0qvJ2grelfP8xaHWaUK7R0MdB8fvNMeuDhG2fm85kXhOlL7Egv4eJMzEYDIYes3kMgJapUPxCS2unZLJm91RqyX+jdOa67l4QvUOuxQUa+g2W9zfaSsbju0CpHUBdpYF1KsT7qUxmDno4K43H49tVKLWnpv6osln/r3Hp0qDQPbZtj7VEdhMLY6kZKnKJVmp2Op1e3hMdgNaTFNxZlGwDWOtFZLlSak5v+gQQS9r2XlqJDWCY0lwVko2+789DD/fVSZZkP762pmZ7AepTvv+HvMuzPD9zCgAkXftnAvwYwG89b8mrCdt+r9Zxjl7s+38rxfgGg8HwSWMzB2BkdfUzq1YsXwlgFABIyNMBRHIAFPSZbdaA0Wf/Cdt+DsR2Lc1n0n5wSXfyjuNsa1G+IYIzBKhuTRZCAKKAhGOvBOQ3Quv/PM/rtBhJwnFeAcTO6c3zF/v+y0nb/oUQlwjEohDNMUsnHPtxS8s3W3OHtzIRqAhs+2wQlwPYE2wxhQQ0BNBhmHDt1wXyC8/LPIIIBnbcqFEjNg6tuhqC80KgFkDunDN0zo3SoU469lta8OtRY8bcF/VMfTJZs7uE/AbAEwUYnuszl19FQZBwbR8ijzSHcsOSJUsynb9f9jygbeZf23pdICckHHtha5uC5zXwJonWgiybjn4SpyUc+5C2phUem0otXQAAYUwdpyB/6vpVyAqAza0tRT4SihwPwDgABoPB0ANUxwuzZ89uouDPm64w6jYARTCltaGFD0XWgqgFcvnCBdJproBWXNe+TEHmiuBSANVdiI0CeCVFz3Ec56DORaRu05jYyrXtW4W4DICVJ6QAnJa1rIr8O13X3TFw7NdAPABgL3S+FG1BsB+FDyUc5+Vtq6ud7l5XnW03bBxS9Q4E30eege2AEmAiiTtWrVj+juM423bXJ4BYwolfJ6F6E+Dnkbd33w6BA/BrFZZ6z3Xjn+uir+2Atpzu+e/H1m3XgXFC2CRH5V3LdzKH58uqrFXZ9sKAbSFqQYcxd3Zt+4aEE79LwCsguKL1iSat5xOoL/D6DQaDwdAFmzkAAEByal5zx2SyZvfO5PJx3Zr9AbQYJL7t+/7cUiiYT8KJf4eC2wAMbbtI+AJ5EJBbATwKIH8GO1ZB/pqMx3frrl8BDmbO+G8O8Zrnee+26ZBI7EDRLyNn+FvJAngekLsFci8grwDIq24mB2QrYv/qymCPGzVqRJhLQJJn+LkAwGMiuC3XL/4GYH3ebTso4NmGhoZKdA4TTvwBgN9Fe6emEZA/UHA7cu9XfsrerSl8MOE4X+ukvw8AvA/gfRDNedfXtl0H3qcgEJGVedeyebJr8mV1LGxbwdDCrGi92YqUAoYR/Bw0vpYOgmmt1ysqdEwo2Y7yBoPBYIhGp3kAFvv+3xOOvQwtM2wJOQWFtgG0ajv7T0r02X9EkrZ9aMsecCsbILgq7Qf3IG+/Px6PD4tZ/BEEV7dcGiaKvwGwN7pahqd8HQICWEHiNg15S4mKA/pUEdW2GjJ69OhtqMMZkr/yQDwtUJd6ntcug2EikdgBOrwHQOuSd62C/Gn8+PEHvffeexvzZTdUVX2VQF1LUxP8csr37+2oZjwer4kp9WdADshdkQmrV6w4D8A9HWVd2/4+gM/nXVoKwVfSQfBovlxDQ0Pl6pXLrxTgxy0zewJyUyIRfyedzvy9VS7tBzu1vTbXfg/A9rmXz6c6Jldp4Q4ASDjxFMBcHgDBo+kguKATWYAyHwq7AXg67+rcVBBcnnCc/5FybzKZfCWVSqUBAGFsdwDvdtaVwWAwGArT6QoAgCwgj21qFtwGsMC2EwOS1XikBLq1QxM3YpO+muDJ6SC4Ex2C/TKZzLq0F3wdkLvzLu9V6zhHd9m5oEKAQIV635QXXON5mSdTvn9Pys8ck/b9u1rFhlZWflXQFqsAgg+lveCkjsYfANLp9PyRo8ccjfbFUvbZsG7NlzvKkjxlkyp8uDPj3/LaloQiJwGbIu815OSOcttWVzskvpV3aaVQHdzR+AO5LZ+UF/xUoKZg06qFBa3uRPuVg7KSzerpAKagE6c07fv3CrEUOvvt1mtCOd8Sebyv9DMYDIYtja4cAEAjfxtgh0Si5lNdiSbi8UMItFTP4D+DIGgskX4AgFrb3oe5GXwLcm/K92d0e5OKXYe8ZXgNvZmhbIfgusVLlizs6un6+vohoFyVd2nxhubmi9HNaYPZs2c3hYJzkbfMLuDV2MzISdvSP6G7rWceBMFSEA8B8h8Aj0Hwz44yYWXsSuRvk4Bf9TxvXnf9ep73BIk783SakLDt7t+zEpILPlTTk679vU6e1hS5TQRf3La62mmJU/h4cRC83lf6GQwGw5ZGlw5AOpN5QYBNR+B016sAovLO/lOX/Oy/ppyY36bOLS/tnpjuAAAgAElEQVR3RzqdTgG4lYLbRXApdfd56CvD8LHunm9ev/6AXOGRVuTOZcuWrSmkRxAES0n8Ou9SbSIe37uD2NJND3lubW21212faS+4NO1n9kz7wWn5uczbNBMcl9dMpX3/j4X0BICsxk3Ic5qE7DMHAADSvv9D0dgz6do/Wr+x6UdNzWFbQGLKz9xOK5bIxmInUfPy9RuavtSXuhkMBsOWRtcrAECoiILbABOBCoKntt4Ta9bdHOXqIcL92h4CQdT0xGk/uDoVBJd7QfCrVCbzr25E3y943t/ioflNpfFUFB0AIBT+Jb8tFg9uJ0D8I69Vq7Oxd1zbvqHlBEPX9Ro6IR6P1wBoyBttOiLmRGhZuXl7k1r6kK6ly0I2HQSnAMDQqqoXKyzrKteNn+i68RNc275SdHYaiN2zIketWLHioz7WzWAwGLYounMAEArz9/J3SCQSe3SUCWz7aACjcy3OjJI4p2gId9NDFpWaOBKCDwqKiIzLa65fnMlEPuWQzWbfym9TZPv8tsrqnxPIN2ijSXxTQV5MOPaShGs/krDt8+rHji1YpLwiF6OQdyxRvdWlcCdQkCfPRH19/ZBi7i8BYcoLfgiljlDkQgXuSXAfKFlJFTst7QeXZDKZdX2sk8FgMGxxdDu79H3/lYQTT7dFcWt9OoD/tBMizmh9KNQlj/5voabtkUhvMuF1DqOks+WYTY9lBYrINLh06dK1CcdeB2DY5n0Bi5csWei6NadR1MNoc6baGAXBFBBTmmOWuI49i+BDKtb88OLFy7zN1WzfN4Giiitpckl+pb8wXDsawObjlJmWjIcP9vW4BoPB8Emh2xUA5PaD85f0220DJJPJoQRa9+c3xmJVf0bpUWhvFNd3JdgLCvZJwYi8Vk9moB/nPd6q45Oet+TZimzYAMgt6NpoMxcMKT/X2dj7Ccf5CTo4cVrJNu1uAIrSlSL5ekKEm+lqMBgMhsFPIQcAaHekTya02wYIw0mtlQMJzli0aFHJCsO00wDYkNce2pVgWSHX5rV6YhTzs/B93JlA49KlQdrPXGX7QVKojgFwswCzu+ivCpDvJBz7/nZqhsjXE9K26hAN5jL7bWpTOtXVYDAYDIObgg5AOhc819h2IbcNAAAQStvyvy5D9H8bxKq2h5SOS+R9AyXfuRmDIs7Ijxs1agSAvL106bQ+QSuzgGbP855J+8HVnh/sKlR1pFwI4DG0d4YA4Jxax2kLKhTLaueECTA2qp4AIER+nIG2rK1XdClsMBgMhkFL4RUAQMj8bQA5FQBc190KgkktF9eFYfSo+KIRtJ3PF+GuUW9LOs6xCce+07XtbyRs+7Tx48dX9UKL/KxzQ+tse6cuJTvQVFW1Z35byG7P+nfE87zFKS9zX9oPThOqWrBdtjxoStsxzDAMF6BdxkPdbuyCEPnyXmNjY0eHw2AwGAxbAFEcgI6nAXass+0Gaj0JLcvLBP9SzshsCl7d1ICbSCR2iHjraQC+TOJnULjvvffeay54Rxco4Sv5ba3w2aj3CnFCftsSvtb6uM62G1zb/nrSce5LOvaLyWSy2y0Oz/OWVa3f+Hnk59iXTUVxMpnMEgDzN93BSYi4WhGPx7eD5B8hRHdHJw0Gg8EwiInkAPi+PwuC91rbIXAK1KaAQF2+6H8AAMlp7S5IeFGhe5LJ5FDBpgRCFJmJdgV6iiMkX0J+Rj/BJfF4vOD+eiKRGAPg3LxLy7YZPbrNAcgq2Y3EjQL5ogAHSXPzEYX6fH/lytXISwdMcFX+8yTy8w7Uum58CiJgkVci/zMh7VcaegY31T1Q7eMLDAaDwdB/RHIAAAB5FQJJnAnB8S3NlaNGVZe1Jvti338RyD+fjiuStr1vd/dIGH4feUV7RHhfb3TwPO9jgHflXdo2ZvF2dF4KuJWY6Oy9yMUMtGpy9+zZs5s2ta3nkLevL4o/7KbCHwDAdeNHIm9vX1PaHc3UULflV+yj8Je1NTXtcg90pNZxjiFxad6ljCg1tcsbotMWRCiCbks9GwwGg6HviOwA0ArbtgEE2AUty/8CPtbeoJUHCq5E69l7QYUoPJOw7dM6yjU0NFS6tv0DQPKL4TyfDoLpvdWhoqrqRnBTPAIE5yUce2pnCXpc161zHfspol063febsvqGfDnP85YJ+IfWNoG9V61Y/sS21dVOZzok4/FPU5if2ncdabU7CeB53mLR+EnepWodUy8lbXsSNsdybftSDXkSeZ8HoXwt5/T0DrZbqcABCds+13XdujrbbnBd1xwxNBgMhn4icprZVGrJfxOOPQ9Au+A3qjJG/+ePHwQvJF37uyLIGVDBCBB/yukkL4hwFRXiq5YvP5p5mQMh8ELgfHRVCrgIGhsbV7muezoR/iOvLsBpzTHrswnXfg6C+YBQwJ0p+nAA+TP5ZUrLiUuXLl3bsV8q9S2E4aS8jIfHZStija5jzyTxPwJaBDaBXQSYmHerELwylUua0w4vCH6cdJw927ZBBI4Q05KOPUeAF0Wwmgo2RI4EkOig0f95XlCSf1cNvkXIQS3NGIjfUDRCAioXR/LX7u43GAwGQ3koKs88iUdE8MNNF+Cn05nnS61UV6S84KcJ2/4IxK3YZFx3ArgTiZyJb78gP1eTpwa+31gqHTzPe8t13f0p+gkAO7ZcHgJpDQpkZ3sCr9MKz1rsL31v86dyWe9c1z2comcAbQF9lQSOgeCYVs+lgweznpRvpryg09LBAHTK909NOM7PAbkCLe9My+rNLm3vV3tt1wH8en4J5N4iwF0ELkK7Y5Btz+0C4wAYDAZDv6CQW6Jt/es2kr/lNECbPIE/oJuUuEqrbL68iHR6pExyefBb++xWh3QQ3Glp2RnEb0Gs7lRI4AHyHaHa2/f9TnP2C9AaSLcSKC7Zjed580aOHrO7CC4D8L8uxATEvyA4N+0HB6RSnRv/vD7fzWrZtcXBauxGdBkED1hadk15mdsKqBqmff9rQrW3QP6MLhIQAVgCyK1CtXMk4y+b3jtd4N/L9/25FBwCyCvo6MOQtZ3fZTAYDIZy010A24BnIlARxOMTxbJshbAaopYrkfmLgmAOSrDkH5VEIpFUWjcIMFYAKmDJxjD8T67Gfc9wXbeOWu9GJSM0MIQhlohlpT3P+y+KqEOQT319/ZCmpo/3UmLFQT0GolZA6wWpTGZOT/sscvyRGzZscJVSYWVl5Ycmx4DBYDAYDAaDwWAwGAwGg8FgMBgMBoPBYDAYDAaDwWAwGAwGg8FgMBgMBoPBYDAYDAaDwWAwGAwGg8FgMBgMBoPBYDAYDAaDwWD4ZFDyVMATgYpMMlnDbNYFOVqLbJM3lijyo5A6ZIi1IflRGIaLOquQN4ixHMdJWlrb2sJwAEOpOQQASGY19RpS1mlteb7vLwag+1ddw0CmoaGhcuXKlXGGYYJKjRSR4Wj5LgGAKLUaCLXS/Egr9RGARaUo42wwGLZ8eusAqEQisTu0PhSUA0SwC4kdIKgorhtZBTBFcKEAr1PklWaR1zOZTLeFZvob13WrgXB/itoPwL6AjANRW8TrbwLwgUDmEOplJfLS4iB4C0C2fFoXTzKZHKqam51CcmMzmcWzgOa+0GkLJZa07b00cAiJ/QDsCmAciqzaCWA5wBQgC0XwGpT6Z2Vl5Rum9oLBYMinRw5AIh7fT8izCJyaV8O+1GQBzoTIPXYQPDlQDEsyOXa8hGoKoKYA8qmSD0CshsbjAH6fDoIXMABWCJK2fagQMwvJCdVOnue92xc6bUEwaduHaMpZBE8GUF2mcZogmAHgnnQQzEAfFH8yGAwDm2IcAOW68SkUXgVgn3Ip1CmEn/aCcjkaUYi5bvx0Cr8GYN8+HHcRITdrWvf257KucQDKQsx14+e2fKZ27duh+Xba9/fo2zENBsNAI9LSouvGj6TgRgj750dDEO+PYScCFb5rX0zB1RDU94MKdQLeStHfTtj2jXYQ/HKgrIQYeo7ruidR9A0Q7NgvClBq+mVcg8EwoOjWARg9evQ2Q6qqfk6RL6IMAYMDmaRtH5IhfkXBLv2tC4A4iJsCxz4voeXCdCbzWn8rZCge27bHWgp3QPTp/a2LwWAwqK6esG17l6FVVW8Q8iV8goz/2LFjt0649gNCzBQMCOOfz65QfCXh2jeh+MAwQz+SjMc/bVHegsAYf4PBMCDo1AFI2PZhFvEaIBP6WqH+xHXdnSpj1r8hOA8D1+lREFydcO1nbNse29/KGAqTdJxTRPEFgIn+1sVgMBha2cwBqHWcg0E8BWB4icYQAAP+nL/rxk+k6H8D2Lm/dYmE4DCLeN113Z36WxVD17hu/EShPAygqkRdagAD+niswWAYHLRbRnYcZ1sNeRzAsKJ7EnhCTofIW1Dqv5XNze+tA9bmJflRdXV1I7Bx46isZY2wRGo0sLMADQpygOQMb7/Mul03fgaFf0DvltU3AHhNBP+CkgWWqAVihatUM9dKZbiBTdaQMCbDGapRWsn2FLU9RPYFsT+ArXo45rYQPdNxnMN935/bC90NZSAZj+8mwj8CxebFAAA0gvgrhf+B1m83iTTGYrE1eadBYolEYoSVzY7IWtZIau0IsDMVdoXGZ0CML+FLMRgMWyD5Bk8pyiMQjCnifi3gw0rk3lQQvIjuz6zrRYsWrQSwMu/a31ofxOPxGsvCCRSeCuBoAFYRevSYpOOcLSK/7eF4GyF4guRvYlVVzxeRaOX51gcTgYogET8Yws9DcCqKXHkhYBMy07btw4MgmFPMvYbyUV9fP6R544ZHUZxzlxXIA9T4dTqT+Rdasv11JZtOp5cDWJ53bVrrg0QikZQwnEyF0yA4FAN3S8tgMPQTbT8KSce5SCB3F3Hv80J1led5b5VaKdd166D1V0hcCmBrADrtByV3CJK2fZzktjuK7ftjCm7XSt3oed6yUukzevTobYZWVV0OyFUARhd5+4ehYJ8gCJaWSp9WTB6A4knY9vdBXBv5BsFTotQ3yvH+JRKJHSQMLyNxIYAhAyCvhsFgGAAQAMaPH1/18bq1jQTsiHf9PO0F30SZs4m5rlsNrX9AhS+nvaCylH07jrOzovwTghFF3vpYrDl7+YfLlvml1Cef+vr6kU0bN95IFHf8ksBLI0aPOXL27NlNpdTHOADFUVdXNypsblqEnPNaCA3I99J+5gZ0P+PvNYlEIgkJr4PGUekgMAGJBsMnHAUA69etmxLZ+EO+m/aCr6MPUol6nrfMC4IrtHD/UvZbV1c3Son8pUjjv4aUs9N+cFo5jT8ANDY2rvJ8/0KhOhbtl3i7RYCDVq9cfnMZVTNEINvU9EVEM/4QykVpP3M9ymz8ASCdTqfSXnCeJieXeyyDwTDwaT0F8IUowoQ80zJT6VN8359Vyv7CbNMtRQZJLaalD0x5mT+WUo9CeJ73DK1wPwCRZ9Ui+Irrxo8so1qGAjDi9wmQP3he5v7yarM5pf4+GQyGwYmKx+PDADk4gqxoWldgABSn6Q1J2z4OgnOLuGV+rDn76VRqyX/LplQ3pFJL38tqORjAvIi3kMJ7q6urS3WM01AEiUQiCWK3CKJNYa6uhsFgMPQLqlKpiYh0RlleHez7u2PHjt1aiHuKuGWRUB1V7iX/QmQymSVQ1lEAPox4S31VhfWjcupk6IIw3B/R4jaeLkfApsFgMERF6ciJb9Rfy6tK+amMxb4GIBlRfG0oOM7zvEXl1Ckq6XQ6pcDTAGyMdge/4rpuXVmVMmyGRPw+kTLov08Gg2FwowBEMxIii8urSnmpq6sbBeiro8oL5UsD7Vz9Yt9/Q4ivRxSvUlr/sKwKGTZDkZG+TxQ1qL9PBoNh8KNEJNJesSIz5VamnITNzV8HODKKrEDu9bzMI+XWqSd4XnAHBP+MIivEOfF4fLty62TYhDDa90krNai/TwaDYfCjyGhpSrVIseflBwz19fVDAPlyRPFMrKLqm2VVqHeIKHUZoh3DjMWUurDcChk2ISKRvk8Mw0H7fTIYDFsGMQFXMcIRZFKcPtCnLGSb1p8CMFpmPcH/a0lZPGDxPO/NhG0/CuKMwtJyQUNDwzWlTg5k6BwKV0UJAdRq8H6fektDQ0PlmuXLJ2hyRwHqAD1UhCNIaSa5FsKVmuEHYcj3MpnMB/2tb28ZO3bs1kqpsUqp0SKyvqIiu8qytl5RROpwQyfU1NTEK5XaWSsZp8CxAgwTjUpSPgLUBogsVuQHTVrPzWQyg72AVqx+7NhqbVljmskhFVqvRFXVyt7aqhhElkfMNXcogF/0ZrD+QsAvRhR9Nx0ED5ZVmRKhyRsVJIIDgPiq5csnA3i03DoZACoslwgpfZjLz/9wufUZKNTWVrthc+wskkevWrH8MyC22pT7iCBz/8+9dwKKQkwBCcfOAHiF4OMbs9kn84qLlQXXdeuo9ae7kyGwNhUE3QZxuq67l4K+AILDBNgld1UAAjobg85uyCZs+3WI/F86k3l68/vjJ1KzYPbTrMj0vjZu8Xi8JkYeUkhOaf3m4iVLFpZwaCtp20cL5SSQR0CwvQCgbJrCtn6O2t5rCGKK2YRjvwXwOWr9UCqTeaeEOnVK0rYnSYGieqLUa57ndRkLNHbs2K0rLOtcEpMAHNTcUidGQRAqAs1NSNi2B8o/0n6my9wjyeTY8dBqkghqhHifjD3ZUkcEMQKRotwFPLK6unr4smXL1kSRHygkEokkdHhYNGn+BH2Q4bAU+L4/y3XsFwkUzuFAORHGAegjZFG0U4A8fiJQMQtoLrtK/UgiUbM/QvVtncUkElYPEh7GAZwikFMqY9Y613HuB3lTdz+cvUGJHCTEH7qTEXABgE4dANd1d6TWd0D0EQVeaQzE/iA+DWAzB4DCL4A4tZC+FVSfB9CnkxaLvATENQXERFdUlKRUeXV19fCqioorAPmyAEmAxX6MYgD2AWQfUfy269hvKPD6lO8/gXLltSFuB9Bt/BW1PgNAZ59jK+naXxfBNwGMKjCOC/BsdJF8LOE435MQYmn9UKypafmGoUPHQcJrXTf+jOdlnlSMxV6J9oqw9ZDKWNQI9AEDtZ6EaL/IS23fH1QzMgVG/OLzOPRRdcVPOhpW1O9TMrDtL5VVmX6kLh4fl3Dtp6DVqyBOQGk+f8MIuYKi5yds+/sNDQ0lrQ/SW1w3fgFFvwniiF53puU3UcSEcmavxyoSkmdHEHshnU7P7+VQynXty6oqYu8Dch2iH+HuFgJ7C+SxhGP/M5ms2b0UfZaKbaurnYRjPy+CG1DI+Bcg6cavoMgsoQ5CxYc2Dq2aAZGvDN1q66sUuFfStvdVqVQqDeD9KB2K4OqB9oYVRh8XTU4eHHSzMct6FECUvf0xruuWtJ6CoXM8z3ubwEeRhIkf2bZdX16N+hy6tn1pqPhfCD5bpjGGgLh21Ypl/xoo71/SiX+VwvtQXPnnLklnMjMECAoKCo7OHXHuG5K2vS8gEwrJkXJvb8api8fHJR37eQpuA1Ddm766YV/R6o2E43ytTP0XRW1ttZutiD0P4MDe9tXQ0FApwp1TQfBXao4U4vdpL9ifIsPXr117wohRY34ilC8qACDxWMR+h0monnJdt7a3CvYFDQ0NlQJGyosvtH5fbn1KTSqVWgEi0oyTIgX37AwlIRTgiYiyYxXxdCKRGFNWjfqI+vr6Ia7j/IG55c9u9z9LA/ewiNcT8fh+5R+raxKO8wUBb0ERlTsjkFUFtiJaqMxmN55cwnG7RUeb/S+PVQ59vKdjJBLxI0LF1wU4qKd9REZQAcgtSdu+H/24ShqPx4dJNvYsgB1K0d/KlSsbhPJ6a1tp1CZt+1CQtbCs/86ePbuJwiYFAM2h3InoeyF1EP1vx3HK/4/TSz5asWJ3RKnKRvie571Vfo1Kj2g8H0kOemKZVTG0QMEdkWWBBurw9USi5lPl1KncjBs1akTzhg3/IOSsPh66GhZn1DrO3n08LgAgmRw7AZBfobTGHwDAUH4bRU5JlNNAJSHGSIHH8vuennBI2PY50JwBINqprRIhxAUJ174Pmwrk9SkV5C83BYv2HkvrGEW1rWgLuadQbhHqX7ZuzWhAFABkMpkPBPJk1M4J2Iry94TjfG8iouUR6A8E2DOi6N/QB+VYy4FFPh9FjmC//EB+EkkFwb8BvhpVXoDtoNWrSTd+OfrpB6g3VFdXD99YVfVXED3dZtoAIAWgZxH+ghEaMi2RSJRkj7iooUPr14hY+rlYFmcy/wPweiE5AQ+3bXtsOXTIJ+k4RyIXlNktobBHy/9JxzkbxK+RC9rrCUtbtk16FsgtOC/h2tf0cOwek7Tt44S4oJR9NonMAdA26RPKX4TWZII/yeXFAUEZ0vZjE2pcDeDjyCPklk5+HNj2G7W2vU8plS8VQonmAEScRQ9E1jc3v4VozkttX/xIGHIIeTmAbBG3bCXCXyYc5yXbtks2E+gDYlWx2J+LNP4fAnILBYdWVA0ZlfaDoWk/qE37wXBasa2EameAV0Lwd0R3zGsg4Z/6ckLiuvETUYL92u4QQZRVgJhFFjwx0GtdoCMs/8srPUmhnrTt4wTyG0RdhieaAUwneFEo2M72g8q0H9R4fuCk/aAiFNRAywkA7ooUS9GmPr6btO1JxerfC5QAN5S609zRUL0mkaj5lAAbFGSD53mLIXi2ecOGMxOOc5ESPqHybvhAiOIryBG7a+KfruPcWz92rF3SV9FbNPaIIsaYHpTL/wDQciwz0lHOWIFjKYbS4XnemwB+WfydcoBFvJVw4jf3ZXBXT0na9i1FRL0vgeAraT8Yn/YzV6WC4IXGxsZV+QKpVGq953nz0r5/azoIjlSCTxN4KVLvgv182+6rgC5C+JOuVcFsED+GlhM0uDe17A6lD4BgCiA/Afh2lEFULPYQIhUAi5QTpMfkysbzpMJqFD/7d113R6H8ERFn/gL5M1XYkPaD41O+f28QBI0dArglCIKl6Uzm6bQfXAKq7UXwQwBR8iUoodzTV+XUk278TBBdBdZ/DMHDQvkSlD5AadlNg3sL5SghLif4ELpZNbP9zLXQvEQpWTliVPXvAKCiasi3AdSSuioVBNM77lvFXMd+msAxPXw9awHeQMu6OZVKre9hHyUj4dgBCi9ZbbT9YPigOwGQR8KxpwEo6LUSPC3l+1EDPttI2vahQswsJCdUOw32ktGlJJlMDpUw+wKAnq6QrSDk2rif+dVA/Hy6bvwMCqMdnSWmVa3fePb7K1eu7slYCde+FoLvRxBdB2XtlE6nUz0ZJ+k4ZwukQPAdF0DkYhD/2PwpLBTIlZ6XeRoFVi9aciQk00Hwp27lXHsqBKcXUF2rWLZ28eJlXgG5HpF042eJFDp2LKuEVsLzvMgryePHj6/6eN3aWQQaIoivEcrZnpd5Kmr/+SQSiR2gw2cAbBtB/Oa0H0QuHteRpGO/L4UmXIIzQH4VkAM6PKMp+FUWuLZQyfCxY8duXVVhfSPlBV0Wfks6zrECOQqgBcpHlsYji4JgNrD5fmN2yIaNZwD4d7eKd83WgFwnYfMC17a/0p/ndFvGjrLk/f5A/HEtCuLDKGIStfKjoSSkUqn1FdlwMoB5PexitIC3Bq49N2Hb52AA5XKwbXsshbdFkaXg9rQXnNhT4w8AaS/4ASRSJcxhovU3ejpOEVzU8QIhT2RD+VSLgSq4dZFOL/lnIeMPANT4TQR9lGStQk5CjxEpHP1P8sFijD8ArF+35vsRjX8KSh/UU+MPAOl0ej6UdSByiZwKcUlNTU3BeIfeQIWGzYw/sVqojksFweWFjD8ALF26dG13xh8AUr4/I+0HV6d9/2tpL/hBq/EHOgk4en/lytVVGzYe3bL/1kOYIHHHqhXL5yfd+Jf6I1Bw+fLlLiIFVDFddmXKjOhoe1yDuZ7DYKVx6dKgIhsehgjBXF0i2B7EbxOOPdt145/DAAgUtIibEMnBlntSQXA5SpBhMx0EPwcxtZAcIV9yXbdcZ8cBSALEKe2uAH9L+ZnTy5GWNxUEf4Og4MxehGXZBojH4zUAji44PnVRy/+5WBdGKby2UqiOTKeXRNo26Y50Op0S8syWGILuGFphWV/t7XjdIYLLO1xqUsLJnuc9U85x8+n0h+T9lStXp4PgGOa+5L2Jjt9WhPcGrj034ThfQB/OYJRS0SKCKYPeAVBkJAegUG5qQ3loXLo0qKgacjAFv+5lVztS+MeEY7+ddJyTUYajZ1FIxuO7Afh8BNHnbT9zWSnHFqhLARQqpbyVQljO44hbAWhb3SQwp2XltJigz2IIiQg5AYj9HMeJsrxdFJbFKSi8P//vYg20olwXod+sUJ9Ryq1Fz/PeJHB9QUHKeSivzWoX4yPElxf7/otlHG8zuptJhCkv+AYEZ6Knx3NaEWwPyO8Sjv1OwrZPRx/8cFHrqOVWl5VVkT5ARFZEEtQYWmZVDF3Q2Ni4IRUEXwT4ZUQK6uqWXQXyeNKxX+/jiOUcCtei0CoEsbo51GeWenvN87xlgBQMrtTCLoujlJhsVnB6b7Y3ohCSv4kgRopMKfXYBCIs/xeX+a/WcfZmlKBCyA2et+TZYvqOwsbm8MaCGTsFTm3u6GNf8DvPCx7oo7HaKLiUmA6CqRrcFcD0Eoy3M4ipCSf+ZiIeL1eaUAAAySGRBEX6PVixt4iSqAalJGlKDT0n7ft3a3BPAC/3ti8BJgoxLeHEX07a9qG9164wtm3XCzi5oKDw2iVLlhSaqfeI5lDuR4EU2AQm1tZWu+UYv904grt6cuytWHzfnwviXwX1IUpaGyCZHDsegm6rIwJYs7FZF1VHRUMuR+GJYCqrS39EDsjtnYMomP1VUwp/1nvPOlqx7/TBOJsRaS/R9/0P035wvFA+h8LLbxHgHlB8KuHY0+LxeLmOpkWc7aotoCa3RHoNQhlQxVM+qfi+PzftBwcTvBiQVYXvKAQ/I8TMhG0/tG11dVnjPCzyQhT63RC8N3L06FicoLsAABseSURBVNvLpcOSJUsyEMwoIEbJVhxeLh1yyCqxrGvKO0b+cJFWAfbKZScsDTprnYWChloeKqZMczKZHA0UPNUAgN8pZ6lj6gg5FqQEhZ0KDSH4WUtNnj6nqGAiz8s8bFVU7gziVxGCKKIwKab4v4QT/3bJTwxQR1oBEMrgPgEAQGkVpSAQKIwkZ+gTJOX798Saw10A/A6lKEtKnJmtjM11bftSlC1QsHCqXwHunj17dlk/a6IK18DQ0IVLZfcCkg+21lXvCyqqqh5GLmtit0gYK1kwIFl4+V9BFXf2XzefgsITtKUjR49+pKh+i2RxELyFwsnvdmwJgiwXWQ3cWcb+u6XoH4lFixatTHvBpVThLhA8jN6n0N0K4P+tXrH8rUQiESlxTyRERXpt1Kgq2Zj9hFY6mvOkCv94GPqWD5ct89N+cC617AFiWq87FIwgcXvCsV8r5UwQaAv+q+9WiGjOal32wlpKR1kO527l1EFDPVTO/jvS2Ni4ChKl0FRpkgK1ZHgtVJzmrcW+/0Yx/YrmCRGk/lBuJxK5oM03CwlZVpeJekrBs1GO+5WLHs8SUqml76WD4HNCtTchvT62IMAu0OGrrhsvSU5kAaLt7UeNFRjQRI536G3wmaFMpDKZd9Je8FkNHlxMHYFu2Ee09XrScU4pLBoRi4UDDgXPlmvvPx9VWfnfCLrsivIFHDd6nleKf6eiUNGCAXets+0oZ+u7JVLlP0FRs/+GhoZKEAUD64RWlEqIvYco+DmiqF3LqECfOpEd6fUyoed5b6b8zDEUHIbeBzYNpfD+hG3/OplM9ipinZHrGuhBHxlPHc0BoLAE+82GcuL7/ktp3/9MSx7z3qWoFowQyKMJ174JPS+w0oYWKRQMBhJ9coxp0aJFq1A4t8DWruuWpdQyBf9APxQQW+z7zyFXOKlbQtXrCoExQAoFFK6r2rjxj8V0umLFit1QIBiZwEee5/2nmH57CiOdAtMlP1rZioo19yLfTgnGL1VHqSB4Pu0HBwnVQQBe6FVnxPkSZp8ZO3Zsz6tsRYzuF6iyZnvqIyIlPZGI+QIM/U9LHvO9hHIUIixTdgMhuNp14lN7m5CLYMGUxqGUZPUiCgJgZSEhFYblCYpU0icGqhNCgFG2WHqVByFS5T/B1GKPP6pIabHlNZQiJiYCIiz4GQJZrtMkS8qVujkqvZ4VdMTzvJcBHJqw7eNBXAtgrx52dWBlhfWk67onFJtesoVI5/sJSfSg74GFghNlLkJgSfmVMZQSz8s8B2Af142fTuEPAezck34Inhw49kPwgzPRg4Q19fX1I5s3biiYXEsBE5OO0yMdi0UifOi1hTiAd0o9NkX1OitdTxHytxT5dvdC2N513b1ailIVP0aEYE9YxWX+AwCKNEihMwVQTDrOZqmWy4EgQsVYQVmCAIl+cyLbKLkD0Eo6CKYBmO667okUfQOAHYvuRHC4Qvhn5ArdFJVKNBaGi5pjEZI4EX1eQ7zUiNBhhB9DEelXb9PQY7TnZR4B8GjCcc4C5Dr0rK7Dqa7j/Nbz/QhlXduTzX5cF23BUG7p83Xx7ilL7ouQLPvZ/67wPO/dhOO82kkRmXYorc9AD1aPXNfdCqJPLiD2v3R6yT+L7TtaPRI5SoCjiu27jJQlg6oA/fYZaqXcOcXF87wnbD/YLXfmufisewIenbDtopMkNC5dmkGEIzMQ1LuuO6gT5BASKdo7ls32tCiNYWAQpn3/97RiO5H4FoA1xXZAyFk9mV1JMwdlIamo8TFFIp7nFV46LiNE4TPskksKVHQQpEJ4EoBut1+LzfyXd2PZ9tPLhpTnpFik7Ycy0ydFRWYBzSnfvyerpUEg96LY/R3iB8l4vGAAUgcEwKIIcpalda8jZvuZwvoTqz9ctszvA10MZSaVSq1PecFPhaqh5ShuUQjkZtd1i1uRI0cXO86AgCzHj/fHKEFxo95QuWHDIyh80qkuUfzvJgQstPy/Aaqih1H6Mvg+R0RZToqR7D4VcR/Qp1XFMpnMEs/P/P/27jxKrqrOA/j396q7k5BOIJjueksldKDJAA2ICmhAJIIcFkEckcXxREVxnaOODs44LkfHQXEcFT3jYUYRhNFxBHFw2BdlCTjIEc54kChLiJ10vaXSTRZ7SdKp937zRzUxge5693UtXZ3+fs6Bw+n+vXdvNfWq7nv33t/vA6I4FwYLePbSpjm5BllHswKjeToVSZ8HalETmd9MFgH+odF9oeYKgmCgshVX/wpAloxpCwXJ1ZkaE5mdT8k0bcZ5GiQlh3wTbNi6dbtC/zs1MONuANu2u5Ba+U9vLhaLZvVHXm7W77qqFxVtaP0IEzNSVrQYRXdZcXICNH0P5h6KY1w3nykvsyZmJVhVtcEpQxsnbm9fZRSokpo4hWanICj9l+SSkyB43vggxWlePv+6DM3wg/tFSabBVuMIrjeIuhAZPuct4CJo9d0imTP/7YvvownSAu+jGasrPrB58/M7xsdPEeAJ02NEJdNaAMu0BnslMcWM11ifDhU1y1Wtmpo6lWavYnHzk+VYTwJgXjZVpPpKcpqcSEuscwyC0v1IneYUr2Dbp5ieU6zUMs/PDIThw6bno9Y2o196W7Zs+VNud/k8mBcYOtF13SNMz78rjh+HWenVV7hud5a7odah6Vm1AAC5XOYVuzS7lEqlzZKLz4Pp4kDBuZ7nmSbKmfVVM/dDCaCpOQHUcBpgWXf3YamV/yqZ/2oZADEdeQtp2DZAUxuHhkLXzb9fVG41ibcQnwHAaDX74ODgiOvYDwhwVlqsqLUGQNNTe9bC87zjkMRpuboBxZO+76dmD6PZr1gcfK7g5j+pKiaPaS3E8ekAbkqNVN1psgKnnGhnIyu40b4kl1yvce4zqLY+SnEBgI8hJf9DYllplf/G40rhqhrozvSlXPIVPww/W1s7ZKIlHnsHQek2CB4wiVVIygKVfYnCaGAB4OKenp7ZVRcgidcYxVn4nwb3hFpIMShdBzFLfiNidj2ppUaLduelZY+juioWB9cDqZURu123+42pJ0ur/Ke4pfbCNelb30TVrq0NMtUSAwAAQGJYElFxVKbz5nK3wWzb4ZLdu3a9J9O5Z9BErYS0+ToAgMK6pcHdodaSKPA9k0BVNbqecokYJZEq5/jh3Wwqen1ajKW5qtMAyxzneKQka1NLv5+tZy8nSE9GpgK+h5qkZQYA7fPn3wezL+pMaRknHn3fbRIr0L+rNV96syTl8nth8rdQPBkEQW1FZWjWsaz4HrNAs+tJ29qMBgCW5vjh3WTj4/FNSNkGqtC39fX1TVk2PEFS/e5f8HwQlGouXKNiNJDke6hJWmYA0N/fvw1miXs6s2buU9F/N4oDVkS2fVmWc8+E3t7eeSL4lEmsWtnKddL+YeLRcPrCPcM858ViMQQwkn666dUqoOkbGhoaBpCWE2DJtqGhqaZ7cgqpXvlP9VrUo/qh6nMGUSsBGORxp1q1zABgglFyiY6OjilHspMJgtKdADYaBQu+nM/nG1L8oV52jI5+CoBJSs2Rjo75zamrTa1GATW5nkyvpQSCp1KjRGfnbprZLkmfBpgqKZDruqdLtbtuwe72cvKDafdtb4lR7pfOQqF7tmdnnRVabQBgVP63v78/9U7kJWKBfMUwdkm7ZX0r4/mbZll392GAGuVDEMXVE09WaC4SMbmezK8l1fTMmorVvb29DcmdTlPzS6UHAfRXixHIWybWDu37c63++F9Vb+8fHKxLKXHN5YyysyZl68x6tEfVtdQAoOoo9M+GMY1ypsUwvA7AsyaxCn1Hs8pRZtHb2zsvyVk/hlk2rdEy8PVG94laU6FQWADFgamBap6SWwUPGoR1jo0NZ9qpQ3WRiFTfoqfAYsTx2Xv/bGI6tWrlP8tsS6mRIAgGTDJWioW31atNmlrLDAB6urpsBRYbhJrMIU2mDMXnTYMV+u1pFCBqqB1jI98EcKJZtF5V+5Ydmq1Ux9PzQwBQwXrTcyaJ/BIGC3UF0nKD57nAivUGpMzTq+hLpgHitwBYVOWQjcUoMltQakpxn0HM6wqF7mPr2i69TMsMAHa3tb3VJE4h0y5p60fRTwV6r2H4fLXkjuW23RJzUZ7jfBaKjxiGb1TJXdnQDlFL09gyup4EalwkqjKglF+nN45zPK/7labnpfrYVCptALC2apDi7L2naARS9U5bFdcha/XWFKK4zSROy1bmMvCUjVVw7S/atp1tb31DJEZ72i3goRoa0URy7xcYV/N6RQzcO9ODAM/JfwbQK0zjVfTjQRCMNbJPNDnPtb/uOM5M1zxvE8E7TAJVMl9PJpngLMTWNzCNWvRUI00tELRo1+jo6on/boPqGVViY8nlrqtLv/ZSjKJ7FUhfUyC4yHXdk+vdPv2ZpQmOyAke82z7w5ihJwKebb8bEJP/0VpW4zv4SQVBsAmQy40PELixhV+5bt4s534d9fb2zivY9rWAfNn4IMUPgqDEzH8zRXG8BX2i4ObT0qo2jOvan0RKUpcJu3bu3G2UgfNFufb2mwCkDy4Fp7uVz5SmqrbXfS4Yj+ObkbKwU1XPBQDHcVYBctCUgYK7GpRCvGwJUmsYABDR5Lquri6jxeF1JLMlH0ytXvzC74TgatexH3Mcx7hyVD0st+0+CL5hGP5QFEX9tbZZDMNrILjB+ADFgaJyl+faX2rWG6OQzx+zY3TkYRW8N8NhT5dVP9qwTpGpV6jKf3qOfb/ruq9uZsOe171KFF80Clb8fMuWLZlq22/atGkroN81iRXBVQXbXp3l/LUoOM47t20Z+tdmtdeKBgcHRyC4uVqMCs4FgJxo1ZsahTYsh4jkyt+CWWGglR253I/RpLwAhyxd6riOfWep0NXTjPZm2j53/AIcb0HXFhx7bcG2z3np7+vN87pXxYK1AMwqkqlhumAD7R3zPwTBYxkOaYPi85FjP1aw7VPr1Y+XKhQKB7uOc6Xm5AkAJ2Q4dGusuICFWFrKatHkCc+x75z4ImzoE4GC45yFxLoPhjXXBdO7nqy2+Osw+/DuUMFtXj5/2nTaMeU4ziEFJ3+LQn8ElfSdD/s5SVKnAXoKhYIHlSrrNNSfyJ/SEAMDQwEEZtMLgvM8x/5Jg5/uWAXHeX+5ve13JsXj9heTfsErcIoK7vAcu99z8v+UpQSvie7u7rzn2lcjsdYCONjkGAUe96Pop/XqQ39//04rV34bUvbOTuJVKnjQdey7Xbf7DNRpkLSsu/sw13Gu1LjcL9BPQzM9adhlQd4aRdHv69EXqruzVfCA5zjPeI7z2Xw+v6KeJ3ddd7nn2P+h0DsALDQ87K5iFE1rPc3AwFCQYVqqEzm527Xty1HnGwrXdZe6jnOlBf29QowWPc4FxShaC2BD1aA4PkZVq61t+gGmsd06C4X1BQBDhuFv37blhUcqeVDqq2Db57iO/ZhCvwfTm9H9RFo54GWAfE40+Zxn2+shehsS3B+LPJZ1i5nrugdYqmcDuECh50HNkv5MKEuiH0U9UlHuZWBgKLBt+425yv7mTAu3BDgTap3pOfZGUdyYWMkvgLZfmS6+6+3tnTc2NnaCaHwKRM5PFK+V6b28XSp68UAQVV/92wyafMtzbbNa9HUiVtsnisWi38w2p08PB3BFmyVXuI69DorbLZEHrfb2xyqP1s0dumTJgeMLOt6sKhdAk3MAZKlkOapifSJT11/ioIMP/trWLS9cIkD6AllFuwj+xXPsd6gknw6Czb9ADdey53nHQeMPQJM1MEweNseoKm4QwT9OFZConiiCQ6f6daxybYP6tkcQBEOebf9thunYE5Kc9TvPyX8TVttVvu+/MN22u7q6Oue1W5eoyocVePVcXa0qnm3/BDJ5isgUGwA8LYoNsNSHWlsAjKlqmwILLQudAJZCtVdh9QF6KKY9j6Of8cNSw7a15fP5FW2WPAhgeU0nEuyG4o9QPAOBr4rtIjIsoh1IMD8ROVigLoBDJ/6p9ZHWCCx9q+/XXqSjmoJtr1bDcs3NlkCOCsPQeCtbo3mO/SCArFNECsh6qD4NkQ0qGlgq2yDJSAKZB2ChBSxU1TxEDp+oiNmDad5Rq+j7gqBU8+ru5bbdFwt+jexfwk8B8hMVuTMIgt8h5U6zUCgcjDg+EapvVMF5qFZvQHGjH0XV89pXa8tx3qnQlPTZ8pwfhkZ5FmaKbds9uUrCnaneI0MAlk72CwXuCcKoaY/BPSf/Q0CMdoHtZQzAzwTy80RkbRAEaU8ScoV8/ii1rJOgeg4EbwIwZU0ZycUri8XB6eacQcGxNyhQ/Umf4mI/im6abhv1kPYEoJpDARyqAqDyr8pPpTLRqXvG93v9bhoEcm0xjL5aQz9TlUqlPy5btnRVUm67BcaJdiZReWy/EoKVACBS+aEqJv4udX2AsUHFenvgs9LffkAAPRyCwwGFKKBQQGXPogHdE1ZzU1cGQVSXrV2bomidZ9uXQnAjsg1Gjgb0ClG9wnPsMSjWA9gI0e0AxiDSUXlCqA6AHo3LXqXr9ej13BBFUb/n2g9CMdX6i0m//AHAQv0y/5mQXPsHNC4fBSDLgtkDAKxR6BpRhefYmxToF0FJVbcJoFBZDAuLVNEjwAoFDqiMtRv0QmahWgYADVf58g8/iDo/+p/MwMBQ0NPTc+ruXTu/B2BNo9urieLW9vnz3808/5SFQr4ahGFdk6v4UXRzwc1/UFW+i+k9kTgAgmMBHLvnk3mfmweatgQ3QKYcAEyllA/DWxux928qxWJxh23bZ+Us/BKKY6Z5muUCLK98v0+8bybuPfkumlrLZALcR+VR+uXFMLwMQNysZvv7+3f6YfQuKN4Dw8qEzaRAJKLv9KPofH75UwY7VPDeIAz/oREnLwal70PxPgDjjTg/TU9Z9Weo1E4xporrnwB2N6hLU4qiaLAc65sy7syiGlliGa/CbBL9rcJ6rR9FprkB6s6Pohvay3EfUH0/bRONiOJr83fuOqIYlH48052hqlrqehLgYVi544Igqk851yn4UXQ9rGQ1FEEj20nxSAx8aQbbbymlUmlUFFl2TqnVFn+/YR1KUSqVNi84oPNUQeMXIFYxCsgni8XB6rso9hNWMYg+KpA1Cqyb4b5shOJSPywdHwQzP6/dPzgY+WF0IRJdpcDdM9SNEqBfVrFWFKPo7zds3bp9hvpBhvwwugSKj5hUPGuwp6G4sBhGp/q+b1QFs1a+v/nR9vnz+yYSBdU1f3xVivUCWeOH0Ru4FXZfscj1xsGCB4rFQePiUI2wfv36XcUwvAyKc5F9i3YtygK5VsU60g/Dq9DEJ88zyQKgxTD8URBGRyeQN4jiOwA2Nan9BIpfQnGhHUaH+1F0PVrsD++XSr8OwuhsUbxWFNdlqCMwXcMAfqai59thtMwPS58zWOFKraPsR9G/+UG0UsU6U6HXGOU9r1PbUNwGxbl+GPX5UXQzmrB+Zm/9/f3b/LD0IVi510BwExo3EFAIHlDRS/woOrIYhj9Ck1/rbBCG4SMTiyxTNTLzX1Z+FN2hYvUJ9G8ADDSwqc2q+OdyoiuLYXhZEASNbKvlTLk+wnGcI3OSnKyQ10NxLCpbb7LsNZ6cIoDgUYHcMx7Ht27evLlU8zmbqFAoLEiS3eeLytkAVqPWrYN/tgmJXnrQ0qWPrFu3rqXmUpfbdl9s4Qsz3Y/JzJI8AFYhn+9LRE6ByMkiegwUf4Hat4ECwCaB/EqBuySXu6NYLLbU2hXbtnvaLL1EVS4CcBxqW5O1FcCjqrgTlnVrIz6sXdd9vSD5WLUYVQmDMPx4vdtuFM9x1kD0vGoxolKev3DhpevXr9/VrH6Z6uvr69i6degsqHWxiL4ZilqyPSYQrFOVB8RKbvX90kNoQMKjgmt/R4HuqkGSXOX7mx+td9tZZLkYc4VC14okaT9aND5SgRUCWQLFEhEcpMCSibiyAMMKDEMRKTBoiT4PWM/EwB/CMNzYiBcyU/L5/Io2kdeIhcMS1cMAWS7AEkDmAboIlQRDhvkP5Eq/zqu0qWW1ua7bK0lyNIAjReQQhS6B4CAolgB7PuTGBRhVwXZViQQYVNXnYCXP5nLJukpWvtlh+fLlS+Lx8ZMg8ipRXaEWVohisUIWA1q5RgSjAEaRYFCAQRV9HirPqmU9FQTBM+Bd/lyXKxS6+zTOrQJ0pUJXCMSDYAH0xSyYEgv0Tyr4k6hECg0BeVZUnx4bH/+/rPUv9mfcIdFgnuOsAfQGGP+t5fN+GBqX/iUiIpqOplRYmsuGR0aeXLxo4Tggpxsectqizs6x4ZGR/21ox4iIaE7jAKAJhkdGH1m8qHMxgFUm8SI4Y1Fn54LhkZFfNLhrREQ0R3EA0CTDIyP3LV7ceQgqC6FSieD1ixd35oeHR+4C5z2JiKjOOABoopXDI3cOL+o8QYBew0NOOHDRwld2zF9w59jYWEvtDCAiotmNiwCbLJ/PL2yzcA8gJ5seI8Dv1cr9ZbMSuhAR0f6vNWsB7MdKpdLoeDk5S4CHTY9R4ChJ4t94jvMhcNBGRER1wC+TGdLV1dXZ0Za7Hdlrxz9kQS4fCMPHG9EvIiKaGzgAmEGV6QC5HZWMgpkocI8k+p0FixbdlzF7l3iedzinE4iI5jYOAGaY67oHSJLcCoFpnoB9CbYDuFeAJ0Tlt0gSP87ltre1tY1YO3bM293RsRhx7Kmlh1pqrQL0NAWG/DA6sb6vhIiIZhMOAFpAX19fx7YtL1wD4F1NavI3HAAQEc1tXATYAtatWzfuh9G7JypfNa+MKhERzVkcALSQYlj6NhQXA9gx030hIqL9GwcALcaPopstyBsAeW6m+0JERPsvDgBa0EAYPj5eLr8agqvBKQEiImoADgBa1ODg4IgfRH+dQE6E4HawHgAREdURBwAtLgzDJ/wgOs9K9FgAPwTXBxARUR1wADBLDJRKT/lh9K5yol1QXATFjQA2Zz6RIFTF/fXvIRERzSbMAzDLFQoFT8vl4wAcAdGDVOVAC1ioFnZBZZuIbofKVqgWY5F1YRhunOk+ExERERERERERERERERERERERERERERERERERERERERERERERERERERERERERERERERERERERERERERERERERERERERERERERERERERERERERERERERERERERERERERERERERERERERERERERERERERERERERERERERERERERERERERERERERERERERERERERERERERERERERERERERERERERERERERERERERERERERERERERERERERHtn/4fuDOZNXVuSWYAAAAASUVORK5CYII=;" vertex="1" parent="1">
          <mxGeometry x="200" y="60" width="70" height="70" as="geometry" />
        </mxCell>
      </root>
    </mxGraphModel>
  </diagram>
</mxfile>
